<?xml version="1.0" encoding="UTF-8"?>
<!DOCTYPE svg PUBLIC "-//W3C//DTD SVG 1.1//EN" "http://www.w3.org/Graphics/SVG/1.1/DTD/svg11.dtd">
<svg xmlns="http://www.w3.org/2000/svg" version="1.1" width="1880px" height="214px" style="shape-rendering:geometricPrecision; text-rendering:geometricPrecision; image-rendering:optimizeQuality; fill-rule:evenodd; clip-rule:evenodd" xmlns:xlink="http://www.w3.org/1999/xlink">
<g><path style="opacity:1" fill="#fdfdfe" d="M -0.5,-0.5 C 626.167,-0.5 1252.83,-0.5 1879.5,-0.5C 1879.5,70.8333 1879.5,142.167 1879.5,213.5C 1252.83,213.5 626.167,213.5 -0.5,213.5C -0.5,170.167 -0.5,126.833 -0.5,83.5C 25.8077,94.4744 44.4744,113.141 55.5,139.5C 49.4908,139.334 43.4908,139.501 37.5,140C 33.9713,142.331 31.9713,145.497 31.5,149.5C 40.8571,149.168 50.1904,149.502 59.5,150.5C 52.1892,151.331 44.8559,151.831 37.5,152C 34.1667,154 31.5,156.667 29.5,160C 40.495,160.5 51.495,160.667 62.5,160.5C 63.038,162.117 63.3713,163.784 63.5,165.5C 63.5,165.833 63.5,166.167 63.5,166.5C 57.8236,166.334 52.1569,166.501 46.5,167C 42.1143,168.93 38.9476,172.097 37,176.5C 33.9845,181.525 31.8178,186.858 30.5,192.5C 42.5,192.5 54.5,192.5 66.5,192.5C 66.1984,195.059 66.5318,197.393 67.5,199.5C 70.5719,199.817 73.5719,199.484 76.5,198.5C 77.3482,196.591 77.6816,194.591 77.5,192.5C 80.1667,192.5 82.8333,192.5 85.5,192.5C 85.5,194.5 85.5,196.5 85.5,198.5C 88.6248,199.479 91.9581,199.813 95.5,199.5C 95.5,195.833 95.5,192.167 95.5,188.5C 96.8514,184.458 99.1848,181.125 102.5,178.5C 102.5,180.5 102.5,182.5 102.5,184.5C 102.08,186.094 101.414,187.594 100.5,189C 100.836,190.03 101.503,190.53 102.5,190.5C 103.159,193.455 103.492,196.455 103.5,199.5C 106.833,199.5 110.167,199.5 113.5,199.5C 113.5,196.5 113.5,193.5 113.5,190.5C 126.171,190.667 138.838,190.5 151.5,190C 156.201,188.472 158.868,185.305 159.5,180.5C 144.5,180.5 129.5,180.5 114.5,180.5C 114.5,179.167 114.5,177.833 114.5,176.5C 127.171,176.667 139.838,176.5 152.5,176C 157.065,173.944 159.398,170.444 159.5,165.5C 145.167,165.5 130.833,165.5 116.5,165.5C 116.5,164.5 116.5,163.5 116.5,162.5C 117.167,162.5 117.5,162.167 117.5,161.5C 128.505,161.667 139.505,161.5 150.5,161C 154.762,159.888 157.762,157.388 159.5,153.5C 160.404,152.791 160.737,151.791 160.5,150.5C 147.167,150.5 133.833,150.5 120.5,150.5C 120.5,150.167 120.5,149.833 120.5,149.5C 130.506,149.666 140.506,149.5 150.5,149C 154.762,147.888 157.762,145.388 159.5,141.5C 160.404,140.791 160.737,139.791 160.5,138.5C 148.655,138.828 136.988,138.495 125.5,137.5C 136.482,112.518 154.482,94.518 179.5,83.5C 180.833,68.1667 180.833,52.8333 179.5,37.5C 154.662,51.1738 134.495,69.8404 119,93.5C 111.435,109.029 106.601,125.362 104.5,142.5C 102.331,144.34 100.998,146.674 100.5,149.5C 101.5,149.5 102.5,149.5 103.5,149.5C 103.5,150.167 103.5,150.833 103.5,151.5C 102.683,153.831 102.016,156.331 101.5,159C 101.57,159.765 101.903,160.265 102.5,160.5C 102.5,160.833 102.5,161.167 102.5,161.5C 102.5,162.833 102.5,164.167 102.5,165.5C 100.071,166.551 97.738,167.884 95.5,169.5C 95.5,166.833 95.5,164.167 95.5,161.5C 96.9076,158.242 98.5743,155.076 100.5,152C 99.2068,151.51 97.8734,151.343 96.5,151.5C 96.5,149.833 96.5,148.167 96.5,146.5C 98.8504,144.787 99.8504,142.453 99.5,139.5C 98.5,139.5 97.5,139.5 96.5,139.5C 97.4655,112.369 99.9655,85.369 104,58.5C 105.807,42.9382 109.64,27.9382 115.5,13.5C 116.043,13.44 116.376,13.1067 116.5,12.5C 98.8333,11.1667 81.1667,11.1667 63.5,12.5C 63.6236,13.1067 63.9569,13.44 64.5,13.5C 70.1986,26.9585 74.032,40.9585 76,55.5C 79.9135,83.3818 82.4135,111.382 83.5,139.5C 80.8333,139.5 78.1667,139.5 75.5,139.5C 71.3737,105.072 55.7071,77.2388 28.5,56C 19.4678,48.7937 9.80111,42.6271 -0.5,37.5C -0.5,24.8333 -0.5,12.1667 -0.5,-0.5 Z"/></g>
<g><path style="opacity:1" fill="#81afcd" d="M 115.5,13.5 C 98.5,12.1667 81.5,12.1667 64.5,13.5C 63.9569,13.44 63.6236,13.1067 63.5,12.5C 81.1667,11.1667 98.8333,11.1667 116.5,12.5C 116.376,13.1067 116.043,13.44 115.5,13.5 Z"/></g>
<g><path style="opacity:1" fill="#046298" d="M 115.5,13.5 C 109.64,27.9382 105.807,42.9382 104,58.5C 99.9655,85.369 97.4655,112.369 96.5,139.5C 92.1667,139.5 87.8333,139.5 83.5,139.5C 82.4135,111.382 79.9135,83.3818 76,55.5C 74.032,40.9585 70.1986,26.9585 64.5,13.5C 81.5,12.1667 98.5,12.1667 115.5,13.5 Z"/></g>
<g><path style="opacity:1" fill="#0c4784" d="M 974.5,30.5 C 973.957,30.56 973.624,30.8933 973.5,31.5C 980.134,32.4967 986.8,32.83 993.5,32.5C 993.768,30.901 993.434,29.5676 992.5,28.5C 992.335,26.1732 991.669,24.0065 990.5,22C 995.356,21.2589 1000.19,20.4255 1005,19.5C 1005.77,19.6448 1006.44,19.9781 1007,20.5C 1007.39,24.5276 1007.89,28.5276 1008.5,32.5C 1018.83,32.5 1029.17,32.5 1039.5,32.5C 1039.5,35.8333 1039.5,39.1667 1039.5,42.5C 1028.65,42.1722 1017.99,42.5056 1007.5,43.5C 1007.5,44.8333 1007.5,46.1667 1007.5,47.5C 1016.83,47.5 1026.17,47.5 1035.5,47.5C 1035.5,50.5 1035.5,53.5 1035.5,56.5C 1026.17,56.5 1016.83,56.5 1007.5,56.5C 1007.5,58.1667 1007.5,59.8333 1007.5,61.5C 1016.83,61.5 1026.17,61.5 1035.5,61.5C 1035.5,64.5 1035.5,67.5 1035.5,70.5C 1026.17,70.5 1016.83,70.5 1007.5,70.5C 1007.5,71.8333 1007.5,73.1667 1007.5,74.5C 1018.5,74.5 1029.5,74.5 1040.5,74.5C 1040.5,78.1667 1040.5,81.8333 1040.5,85.5C 1027.83,85.5 1015.17,85.5 1002.5,85.5C 1002.5,87.1667 1002.5,88.8333 1002.5,90.5C 1016.83,90.5 1031.17,90.5 1045.5,90.5C 1045.5,94.5 1045.5,98.5 1045.5,102.5C 1035.16,102.334 1024.83,102.5 1014.5,103C 1024.45,109.705 1035.45,113.538 1047.5,114.5C 1044.58,118.666 1041.92,122.999 1039.5,127.5C 1037.93,128.631 1036.26,128.798 1034.5,128C 1022.78,123.392 1012.28,116.892 1003,108.5C 1002.5,115.492 1002.33,122.492 1002.5,129.5C 997.833,129.5 993.167,129.5 988.5,129.5C 988.666,122.825 988.5,116.158 988,109.5C 977.278,117.698 965.612,124.365 953,129.5C 950.036,125.534 946.703,121.867 943,118.5C 942.409,117.517 942.743,116.85 944,116.5C 955.319,114.009 965.819,109.675 975.5,103.5C 976.043,103.44 976.376,103.107 976.5,102.5C 965.52,101.501 954.52,101.168 943.5,101.5C 943.5,97.8333 943.5,94.1667 943.5,90.5C 958.167,90.5 972.833,90.5 987.5,90.5C 988.461,88.7354 988.795,86.7354 988.5,84.5C 982.642,84.1778 976.975,84.5111 971.5,85.5C 967.285,87.4364 962.619,88.1031 957.5,87.5C 957.667,76.495 957.5,65.495 957,54.5C 956.283,55.0442 955.783,55.7109 955.5,56.5C 953.233,59.2709 950.733,61.9375 948,64.5C 944.984,61.6511 942.15,58.6511 939.5,55.5C 949.361,44.3147 958.027,32.3147 965.5,19.5C 970.067,20.5775 974.4,22.2442 978.5,24.5C 977.156,26.5286 975.823,28.5286 974.5,30.5 Z"/></g>
<g><path style="opacity:1" fill="#064583" d="M 284.5,43.5 C 297.323,44.4955 310.323,44.8288 323.5,44.5C 323.5,61.8333 323.5,79.1667 323.5,96.5C 317.833,96.5 312.167,96.5 306.5,96.5C 306.5,94.1667 306.5,91.8333 306.5,89.5C 298.833,89.5 291.167,89.5 283.5,89.5C 283.5,102.833 283.5,116.167 283.5,129.5C 278.167,129.5 272.833,129.5 267.5,129.5C 267.5,116.167 267.5,102.833 267.5,89.5C 259.833,89.5 252.167,89.5 244.5,89.5C 244.5,92.1667 244.5,94.8333 244.5,97.5C 239.5,97.5 234.5,97.5 229.5,97.5C 229.5,79.8333 229.5,62.1667 229.5,44.5C 242.011,44.8286 254.345,44.4952 266.5,43.5C 266.5,36.1667 266.5,28.8333 266.5,21.5C 272.833,21.5 279.167,21.5 285.5,21.5C 284.608,28.7906 284.274,36.1239 284.5,43.5 Z"/></g>
<g><path style="opacity:1" fill="#084683" d="M 523.5,33.5 C 537.99,34.496 552.657,34.8293 567.5,34.5C 567.5,38.1667 567.5,41.8333 567.5,45.5C 552.167,45.5 536.833,45.5 521.5,45.5C 521.5,46.5 521.5,47.5 521.5,48.5C 520.539,50.2646 520.205,52.2646 520.5,54.5C 533.5,54.5 546.5,54.5 559.5,54.5C 559.667,76.8358 559.5,99.1692 559,121.5C 556.831,125.01 553.664,127.177 549.5,128C 545.179,128.499 540.846,128.666 536.5,128.5C 535.782,123.677 534.449,119.01 532.5,114.5C 535.447,113.679 538.447,113.179 541.5,113C 542,112.5 542.5,112 543,111.5C 543.5,96.5037 543.667,81.5037 543.5,66.5C 539.019,65.3516 534.352,65.1849 529.5,66C 530.044,66.7172 530.711,67.2172 531.5,67.5C 533.723,68.1145 535.389,69.4478 536.5,71.5C 534.35,74.1506 532.017,76.6506 529.5,79C 532.817,79.4983 536.15,79.665 539.5,79.5C 539.5,83.1667 539.5,86.8333 539.5,90.5C 533.5,90.5 527.5,90.5 521.5,90.5C 521.5,92.5 521.5,94.5 521.5,96.5C 527.833,96.5 534.167,96.5 540.5,96.5C 540.5,100.167 540.5,103.833 540.5,107.5C 534.167,107.5 527.833,107.5 521.5,107.5C 521.5,112.5 521.5,117.5 521.5,122.5C 516.833,122.5 512.167,122.5 507.5,122.5C 507.5,117.5 507.5,112.5 507.5,107.5C 501.5,107.5 495.5,107.5 489.5,107.5C 489.5,103.833 489.5,100.167 489.5,96.5C 495.167,96.5 500.833,96.5 506.5,96.5C 507.468,94.3926 507.802,92.0593 507.5,89.5C 501.833,89.5 496.167,89.5 490.5,89.5C 490.5,86.1667 490.5,82.8333 490.5,79.5C 493.572,79.8174 496.572,79.4841 499.5,78.5C 499.376,77.8933 499.043,77.56 498.5,77.5C 497.443,75.0587 496.11,72.7254 494.5,70.5C 496.577,68.9182 498.91,67.9182 501.5,67.5C 502.289,67.2172 502.956,66.7172 503.5,66C 497.651,65.1816 491.985,65.3483 486.5,66.5C 485.503,86.6598 485.17,106.993 485.5,127.5C 481.167,127.5 476.833,127.5 472.5,127.5C 472.5,103.167 472.5,78.8333 472.5,54.5C 483.679,54.8279 494.679,54.4946 505.5,53.5C 506.473,51.0521 506.806,48.3854 506.5,45.5C 492.167,45.5 477.833,45.5 463.5,45.5C 463.5,41.8333 463.5,38.1667 463.5,34.5C 478.676,34.8294 493.676,34.4961 508.5,33.5C 509.08,29.19 509.414,24.8566 509.5,20.5C 514.179,20.3342 518.845,20.5008 523.5,21C 523.697,25.0155 523.697,29.1821 523.5,33.5 Z"/></g>
<g><path style="opacity:1" fill="#094684" d="M 1264.5,96.5 C 1264.5,94.1667 1264.5,91.8333 1264.5,89.5C 1256.65,89.1746 1248.98,89.508 1241.5,90.5C 1241.5,103.5 1241.5,116.5 1241.5,129.5C 1235.83,129.5 1230.17,129.5 1224.5,129.5C 1224.5,116.167 1224.5,102.833 1224.5,89.5C 1217.17,89.5 1209.83,89.5 1202.5,89.5C 1202.5,92.1667 1202.5,94.8333 1202.5,97.5C 1197.17,97.5 1191.83,97.5 1186.5,97.5C 1186.5,79.5 1186.5,61.5 1186.5,43.5C 1199.17,43.5 1211.83,43.5 1224.5,43.5C 1224.5,36.1667 1224.5,28.8333 1224.5,21.5C 1230.84,21.3338 1237.18,21.5005 1243.5,22C 1242.81,23.0674 1242.31,24.2341 1242,25.5C 1241.5,31.4908 1241.33,37.4908 1241.5,43.5C 1254.83,43.5 1268.17,43.5 1281.5,43.5C 1281.5,61.1667 1281.5,78.8333 1281.5,96.5C 1275.83,96.5 1270.17,96.5 1264.5,96.5 Z"/></g>
<g><path style="opacity:1" fill="#074583" d="M 1477.5,32.5 C 1476.96,32.56 1476.62,32.8933 1476.5,33.5C 1492.82,34.4994 1509.15,34.8328 1525.5,34.5C 1525.5,38.5 1525.5,42.5 1525.5,46.5C 1507.16,46.3334 1488.83,46.5001 1470.5,47C 1468.95,49.2568 1467.29,51.4235 1465.5,53.5C 1480.49,54.4993 1495.49,54.8327 1510.5,54.5C 1510.67,77.5024 1510.5,100.502 1510,123.5C 1508.05,125.894 1505.55,127.394 1502.5,128C 1497.25,129.271 1491.91,129.771 1486.5,129.5C 1485.17,124.167 1483.83,118.833 1482.5,113.5C 1486.18,113.665 1489.85,113.499 1493.5,113C 1494.44,110.281 1494.78,107.448 1494.5,104.5C 1483.5,104.5 1472.5,104.5 1461.5,104.5C 1461.5,112.167 1461.5,119.833 1461.5,127.5C 1456.5,127.5 1451.5,127.5 1446.5,127.5C 1446.67,111.497 1446.5,95.4965 1446,79.5C 1441.61,84.3892 1436.78,88.7225 1431.5,92.5C 1427.19,88.8604 1423.19,84.8604 1419.5,80.5C 1426.75,75.4288 1433.58,69.7622 1440,63.5C 1444,58.8207 1447.5,53.8207 1450.5,48.5C 1451.04,48.44 1451.38,48.1067 1451.5,47.5C 1441.52,46.5015 1431.52,46.1681 1421.5,46.5C 1421.5,42.5 1421.5,38.5 1421.5,34.5C 1434.21,35.1464 1446.55,34.4797 1458.5,32.5C 1459.76,28.9642 1460.59,25.2975 1461,21.5C 1461.72,20.9415 1462.56,20.6082 1463.5,20.5C 1469.26,21.0418 1474.93,22.0418 1480.5,23.5C 1480.83,24 1481.17,24.5 1481.5,25C 1480.03,27.4318 1478.7,29.9318 1477.5,32.5 Z"/></g>
<g><path style="opacity:1" fill="#094684" d="M 645.5,26.5 C 645.595,37.884 647.761,48.884 652,59.5C 658.476,53.1777 664.476,46.5111 670,39.5C 674.908,42.4021 679.242,46.0688 683,50.5C 683.781,51.9437 683.614,53.277 682.5,54.5C 674.072,60.0926 666.072,66.2592 658.5,73C 666.737,85.7376 677.404,95.9043 690.5,103.5C 686.381,108.241 682.381,113.074 678.5,118C 677.5,118.667 676.5,118.667 675.5,118C 663.25,106.639 653.583,93.4727 646.5,78.5C 646.217,77.7109 645.717,77.0442 645,76.5C 644.173,90.0064 644.34,103.34 645.5,116.5C 645.851,124.652 641.851,128.819 633.5,129C 628.845,129.499 624.179,129.666 619.5,129.5C 619.282,124.962 618.282,120.629 616.5,116.5C 619.203,114.89 622.203,113.89 625.5,113.5C 626.609,113.443 627.609,113.11 628.5,112.5C 629.498,82.6713 629.831,52.6713 629.5,22.5C 634.833,22.5 640.167,22.5 645.5,22.5C 645.5,23.8333 645.5,25.1667 645.5,26.5 Z"/></g>
<g><path style="opacity:1" fill="#084683" d="M 757.5,22.5 C 762.833,22.5 768.167,22.5 773.5,22.5C 772.415,34.8072 772.248,47.1405 773,59.5C 780.263,54.7394 787.096,49.4061 793.5,43.5C 798.066,47.8961 802.066,52.7294 805.5,58C 794.994,64.0873 784.327,69.9207 773.5,75.5C 772.334,87.1524 772.167,98.8191 773,110.5C 773.5,111 774,111.5 774.5,112C 779.5,112.667 784.5,112.667 789.5,112C 790.717,110.352 791.55,108.519 792,106.5C 792.176,103.118 792.676,99.7848 793.5,96.5C 798.047,98.9402 802.713,101.107 807.5,103C 808.967,123.006 799.634,130.839 779.5,126.5C 773.833,126.333 768.167,126.167 762.5,126C 759.898,125.065 758.398,123.232 758,120.5C 757.5,87.835 757.333,55.1684 757.5,22.5 Z"/></g>
<g><path style="opacity:1" fill="#0d4784" d="M 1350.5,49.5 C 1351.5,49.5 1352.5,49.5 1353.5,49.5C 1353.79,47.2646 1353.46,45.2646 1352.5,43.5C 1351.88,36.1826 1351.55,28.8493 1351.5,21.5C 1357.18,21.0963 1362.68,21.763 1368,23.5C 1367.61,30.7738 1367.44,38.1071 1367.5,45.5C 1377.55,44.1602 1387.55,42.4935 1397.5,40.5C 1398.3,45.147 1398.96,49.8137 1399.5,54.5C 1389.53,56.1066 1379.53,57.6066 1369.5,59C 1368.99,61.7181 1368.99,64.5515 1369.5,67.5C 1379.63,66.1327 1389.63,64.1327 1399.5,61.5C 1402.38,65.5023 1403.04,69.8356 1401.5,74.5C 1392.17,76.2667 1382.83,78.1 1373.5,80C 1373.04,80.414 1372.71,80.914 1372.5,81.5C 1373.64,84.9227 1374.97,88.256 1376.5,91.5C 1380.01,87.7723 1383.51,84.1056 1387,80.5C 1391.88,82.5489 1396.04,85.5489 1399.5,89.5C 1394.82,94.0186 1389.98,98.3519 1385,102.5C 1385.27,107.096 1387.77,109.263 1392.5,109C 1393.12,106.527 1393.79,104.027 1394.5,101.5C 1398.92,103.717 1403.58,105.05 1408.5,105.5C 1408.67,114.163 1406.33,121.996 1401.5,129C 1396.29,129.866 1391.29,129.199 1386.5,127C 1380.74,123.246 1375.58,118.746 1371,113.5C 1364.25,118.462 1357.08,122.795 1349.5,126.5C 1345.68,123.182 1342.02,119.682 1338.5,116C 1344.02,113.077 1349.68,110.41 1355.5,108C 1359.07,106.382 1362.07,104.049 1364.5,101C 1362,95.6559 1360,90.1559 1358.5,84.5C 1353.92,85.1018 1349.42,86.1018 1345,87.5C 1344.23,87.3552 1343.56,87.0219 1343,86.5C 1342.51,84.8659 1342.34,83.1992 1342.5,81.5C 1342.67,80.5084 1342.34,79.8417 1341.5,79.5C 1340.86,77.54 1340.86,75.7067 1341.5,74C 1345.93,73.5827 1350.26,72.7494 1354.5,71.5C 1355.07,68.5884 1355.07,65.5884 1354.5,62.5C 1350.46,62.9578 1346.46,63.6245 1342.5,64.5C 1342.66,63.1266 1342.49,61.7932 1342,60.5C 1336.23,66.5446 1331.07,73.0446 1326.5,80C 1329.82,80.4983 1333.15,80.665 1336.5,80.5C 1338.1,80.2322 1339.43,80.5655 1340.5,81.5C 1340.5,85.1667 1340.5,88.8333 1340.5,92.5C 1329.66,93.0485 1318.99,94.7152 1308.5,97.5C 1307.83,97.1667 1307.17,96.8333 1306.5,96.5C 1305.23,92.4022 1304.23,88.2355 1303.5,84C 1305.8,81.8442 1308.47,80.1776 1311.5,79C 1314.17,75.6667 1316.83,72.3333 1319.5,69C 1314.61,68.7448 1309.78,69.2448 1305,70.5C 1304.5,70.1667 1304,69.8333 1303.5,69.5C 1302.2,64.9044 1301.7,60.2377 1302,55.5C 1304.71,53.1294 1307.04,50.4628 1309,47.5C 1312.07,38.9544 1314.74,30.2877 1317,21.5C 1317.41,21.0426 1317.91,20.7093 1318.5,20.5C 1322.89,21.8469 1327.22,23.3469 1331.5,25C 1332.91,25.3678 1333.91,26.2011 1334.5,27.5C 1329.04,36.9191 1323.71,46.4191 1318.5,56C 1321.55,56.8214 1324.55,56.6548 1327.5,55.5C 1329.37,50.3918 1332.21,46.0585 1336,42.5C 1339.49,44.651 1342.99,46.8176 1346.5,49C 1347.79,49.49 1349.13,49.6567 1350.5,49.5 Z"/></g>
<g><path style="opacity:1" fill="#104985" d="M 1382.5,22.5 C 1384.9,22.393 1386.74,23.393 1388,25.5C 1389.97,28.9681 1392.14,32.3015 1394.5,35.5C 1390.42,37.956 1386.26,40.2893 1382,42.5C 1378.83,38.1667 1375.67,33.8333 1372.5,29.5C 1375.85,27.1414 1379.18,24.8081 1382.5,22.5 Z"/></g>
<g><path style="opacity:1" fill="#074583" d="M 732.5,23.5 C 737.833,23.5 743.167,23.5 748.5,23.5C 748.313,25.5643 747.813,27.5643 747,29.5C 746.5,62.165 746.333,94.8316 746.5,127.5C 741.833,127.5 737.167,127.5 732.5,127.5C 732.83,121.132 732.496,114.798 731.5,108.5C 723.46,111.602 715.96,115.602 709,120.5C 705.673,115.853 702.84,110.853 700.5,105.5C 711.236,102.565 721.57,98.5648 731.5,93.5C 732.498,85.1932 732.831,76.8599 732.5,68.5C 724.167,68.5 715.833,68.5 707.5,68.5C 707.5,63.8333 707.5,59.1667 707.5,54.5C 715.752,54.8158 723.919,54.4825 732,53.5C 732.5,43.5056 732.666,33.5056 732.5,23.5 Z"/></g>
<g><path style="opacity:1" fill="#084683" d="M 347.5,24.5 C 379.5,24.5 411.5,24.5 443.5,24.5C 443.5,59.1667 443.5,93.8333 443.5,128.5C 438.5,128.5 433.5,128.5 428.5,128.5C 428.5,126.833 428.5,125.167 428.5,123.5C 406.5,123.5 384.5,123.5 362.5,123.5C 362.5,125.5 362.5,127.5 362.5,129.5C 357.5,129.5 352.5,129.5 347.5,129.5C 347.5,94.5 347.5,59.5 347.5,24.5 Z"/></g>
<g><path style="opacity:1" fill="#0c4784" d="M 1725.5,23.5 C 1727.17,23.5 1728.83,23.5 1730.5,23.5C 1732.79,33.0796 1736.96,41.7462 1743,49.5C 1750.28,57.784 1758.44,64.9506 1767.5,71C 1762.59,76.0691 1758.26,81.5691 1754.5,87.5C 1734.71,71.9516 1721.38,51.9516 1714.5,27.5C 1718.13,25.7376 1721.8,24.4043 1725.5,23.5 Z"/></g>
<g><path style="opacity:1" fill="#094684" d="M 1544.5,25.5 C 1556.83,25.5 1569.17,25.5 1581.5,25.5C 1580.56,37.44 1578.22,49.1066 1574.5,60.5C 1576.95,67.0672 1579.12,73.7339 1581,80.5C 1584.7,96.4673 1578.53,105.467 1562.5,107.5C 1562.08,103.393 1560.58,99.7262 1558,96.5C 1557.5,106.494 1557.33,116.494 1557.5,126.5C 1553.17,126.5 1548.83,126.5 1544.5,126.5C 1544.5,92.8333 1544.5,59.1667 1544.5,25.5 Z"/></g>
<g><path style="opacity:1" fill="#094684" d="M 1636.5,25.5 C 1637.13,42.7381 1636.46,59.7381 1634.5,76.5C 1637.79,79.1185 1640.79,82.1185 1643.5,85.5C 1643.02,86.4776 1642.36,87.3109 1641.5,88C 1635.84,90.4934 1630.51,93.4934 1625.5,97C 1631.76,104.246 1639.43,109.579 1648.5,113C 1643.59,117.244 1639.42,122.077 1636,127.5C 1615.81,116.46 1604.64,99.4601 1602.5,76.5C 1601.17,76.5 1599.83,76.5 1598.5,76.5C 1598.33,86.5056 1598.5,96.5056 1599,106.5C 1601.7,104.731 1604.53,103.398 1607.5,102.5C 1608.13,106.561 1609.46,110.394 1611.5,114C 1603.28,119.031 1595.11,124.197 1587,129.5C 1583.78,124.897 1580.95,120.064 1578.5,115C 1580.71,112.446 1582.55,109.613 1584,106.5C 1584.5,79.5021 1584.67,52.5021 1584.5,25.5C 1601.83,25.5 1619.17,25.5 1636.5,25.5 Z"/></g>
<g><path style="opacity:1" fill="#4373a3" d="M 924.5,26.5 C 902.167,26.5 879.833,26.5 857.5,26.5C 857.83,46.0072 857.497,65.3405 856.5,84.5C 856.5,64.8333 856.5,45.1667 856.5,25.5C 879.339,25.1692 902.006,25.5025 924.5,26.5 Z"/></g>
<g><path style="opacity:1" fill="#074583" d="M 924.5,26.5 C 924.667,58.8351 924.5,91.1684 924,123.5C 922.661,126.094 920.494,127.594 917.5,128C 912.915,129.225 908.248,129.725 903.5,129.5C 902.571,124.382 901.238,119.382 899.5,114.5C 902.518,114.665 905.518,114.498 908.5,114C 909.381,113.292 910.047,112.458 910.5,111.5C 911.495,99.011 911.829,86.3443 911.5,73.5C 897.656,73.171 883.99,73.5043 870.5,74.5C 871.476,92.3337 867.642,109 859,124.5C 858.261,125.574 857.261,126.241 856,126.5C 851.667,125.055 847.501,123.222 843.5,121C 849.289,115.254 852.789,108.421 854,100.5C 848.333,107.167 842.667,113.833 837,120.5C 833.915,116 831.082,111.333 828.5,106.5C 830.916,101.083 832.416,95.4167 833,89.5C 833.5,81.8406 833.666,74.1739 833.5,66.5C 830.038,65.5184 826.371,65.185 822.5,65.5C 822.5,61.5 822.5,57.5 822.5,53.5C 830.5,53.5 838.5,53.5 846.5,53.5C 846.333,65.5046 846.5,77.5046 847,89.5C 848.667,87.8333 850.333,86.1667 852,84.5C 853.333,87.8333 854.667,91.1667 856,94.5C 856.498,91.1832 856.665,87.8499 856.5,84.5C 857.497,65.3405 857.83,46.0072 857.5,26.5C 879.833,26.5 902.167,26.5 924.5,26.5 Z"/></g>
<g><path style="opacity:1" fill="#81a2c1" d="M 1160.5,26.5 C 1161.5,60.6626 1161.83,94.9959 1161.5,129.5C 1155.97,129.821 1150.64,129.488 1145.5,128.5C 1150.5,128.5 1155.5,128.5 1160.5,128.5C 1160.5,94.5 1160.5,60.5 1160.5,26.5 Z"/></g>
<g><path style="opacity:1" fill="#0f4885" d="M 841.5,22.5 C 846.283,28.5561 849.95,35.3895 852.5,43C 847.826,45.7246 842.826,47.5579 837.5,48.5C 835.363,41.3918 832.029,34.8918 827.5,29C 832.377,27.0582 837.044,24.8915 841.5,22.5 Z"/></g>
<g><path style="opacity:1" fill="#0a4684" d="M 1160.5,26.5 C 1160.5,60.5 1160.5,94.5 1160.5,128.5C 1155.5,128.5 1150.5,128.5 1145.5,128.5C 1145.5,126.833 1145.5,125.167 1145.5,123.5C 1124.17,123.5 1102.83,123.5 1081.5,123.5C 1081.5,125.167 1081.5,126.833 1081.5,128.5C 1076.5,128.5 1071.5,128.5 1066.5,128.5C 1066.5,94.5 1066.5,60.5 1066.5,26.5C 1097.83,26.5 1129.17,26.5 1160.5,26.5 Z"/></g>
<g><path style="opacity:1" fill="#064583" d="M 1790.5,28.5 C 1819.5,28.5 1848.5,28.5 1877.5,28.5C 1877.17,57.3382 1877.5,86.0049 1878.5,114.5C 1878.59,123.914 1873.92,129.081 1864.5,130C 1860.18,130.499 1855.85,130.666 1851.5,130.5C 1851.09,125.463 1850.43,120.463 1849.5,115.5C 1851.41,115.784 1853.08,115.451 1854.5,114.5C 1856.94,114.683 1859.1,114.016 1861,112.5C 1861.5,88.8357 1861.67,65.169 1861.5,41.5C 1837.83,41.5 1814.17,41.5 1790.5,41.5C 1790.5,37.1667 1790.5,32.8333 1790.5,28.5 Z"/></g>
<g><path style="opacity:1" fill="#6c91b6" d="M 1790.5,28.5 C 1819.66,27.5019 1849,27.1686 1878.5,27.5C 1878.5,56.5 1878.5,85.5 1878.5,114.5C 1877.5,86.0049 1877.17,57.3382 1877.5,28.5C 1848.5,28.5 1819.5,28.5 1790.5,28.5 Z"/></g>
<g><path style="opacity:1" fill="#7fa0c0" d="M 1636.5,25.5 C 1637.5,42.3251 1637.83,59.3251 1637.5,76.5C 1636.5,76.5 1635.5,76.5 1634.5,76.5C 1636.46,59.7381 1637.13,42.7381 1636.5,25.5 Z"/></g>
<g><path style="opacity:1" fill="#0c4784" d="M 1687.5,29.5 C 1694.2,30.7507 1700.53,32.7507 1706.5,35.5C 1696.65,52.5121 1685.81,68.8455 1674,84.5C 1673.26,85.5742 1672.26,86.2409 1671,86.5C 1666.61,83.0501 1662.11,79.7168 1657.5,76.5C 1667.72,66.7848 1676.22,55.7848 1683,43.5C 1684.81,38.9086 1686.31,34.242 1687.5,29.5 Z"/></g>
<g><path style="opacity:1" fill="#5881ac" d="M 347.5,24.5 C 379.662,23.5018 411.996,23.1684 444.5,23.5C 444.832,58.6706 444.498,93.6706 443.5,128.5C 443.5,93.8333 443.5,59.1667 443.5,24.5C 411.5,24.5 379.5,24.5 347.5,24.5 Z"/></g>
<g><path style="opacity:1" fill="#bbccdd" d="M 992.5,28.5 C 993.434,29.5676 993.768,30.901 993.5,32.5C 986.8,32.83 980.134,32.4967 973.5,31.5C 973.624,30.8933 973.957,30.56 974.5,30.5C 980.31,31.4896 986.31,31.8229 992.5,31.5C 992.5,30.5 992.5,29.5 992.5,28.5 Z"/></g>
<g><path style="opacity:1" fill="#4f7ba8" d="M 508.5,33.5 C 493.676,34.4961 478.676,34.8294 463.5,34.5C 463.5,38.1667 463.5,41.8333 463.5,45.5C 462.517,41.7016 462.183,37.7016 462.5,33.5C 477.833,33.5 493.167,33.5 508.5,33.5 Z"/></g>
<g><path style="opacity:1" fill="#4f7ca9" d="M 523.5,33.5 C 538.5,33.5 553.5,33.5 568.5,33.5C 568.817,37.7016 568.483,41.7016 567.5,45.5C 567.5,41.8333 567.5,38.1667 567.5,34.5C 552.657,34.8293 537.99,34.496 523.5,33.5 Z"/></g>
<g><path style="opacity:1" fill="#4373a3" d="M 1458.5,32.5 C 1446.55,34.4797 1434.21,35.1464 1421.5,34.5C 1433.73,33.815 1446.07,33.1483 1458.5,32.5 Z"/></g>
<g><path style="opacity:1" fill="#4574a4" d="M 1477.5,32.5 C 1493.66,33.4964 1509.99,33.8298 1526.5,33.5C 1526.82,38.0323 1526.48,42.3656 1525.5,46.5C 1525.5,42.5 1525.5,38.5 1525.5,34.5C 1509.15,34.8328 1492.82,34.4994 1476.5,33.5C 1476.62,32.8933 1476.96,32.56 1477.5,32.5 Z"/></g>
<g><path style="opacity:1" fill="#f5f7fa" d="M 362.5,36.5 C 384.5,36.5 406.5,36.5 428.5,36.5C 428.5,61.1667 428.5,85.8333 428.5,110.5C 406.5,110.5 384.5,110.5 362.5,110.5C 362.5,85.8333 362.5,61.1667 362.5,36.5 Z"/></g>
<g><path style="opacity:1" fill="#f1f4f8" d="M 1557.5,37.5 C 1560.17,37.5 1562.83,37.5 1565.5,37.5C 1564.53,46.2284 1562.53,54.7284 1559.5,63C 1562.23,67.5133 1564.4,72.3467 1566,77.5C 1566.67,80.8333 1566.67,84.1667 1566,87.5C 1564.19,90.8212 1561.35,92.1546 1557.5,91.5C 1557.5,73.5 1557.5,55.5 1557.5,37.5 Z"/></g>
<g><path style="opacity:1" fill="#bfcfdf" d="M 1599.5,38.5 C 1606.65,37.5084 1613.98,37.175 1621.5,37.5C 1621.8,40.0593 1621.47,42.3926 1620.5,44.5C 1620.5,42.5 1620.5,40.5 1620.5,38.5C 1613.5,38.5 1606.5,38.5 1599.5,38.5 Z"/></g>
<g><path style="opacity:1" fill="#076399" d="M -0.5,37.5 C 9.80111,42.6271 19.4678,48.7937 28.5,56C 55.7071,77.2388 71.3737,105.072 75.5,139.5C 68.8333,139.5 62.1667,139.5 55.5,139.5C 44.4744,113.141 25.8077,94.4744 -0.5,83.5C -0.5,68.1667 -0.5,52.8333 -0.5,37.5 Z"/></g>
<g><path style="opacity:1" fill="#076399" d="M 125.5,137.5 C 124.662,137.842 124.328,138.508 124.5,139.5C 118.824,139.334 113.157,139.501 107.5,140C 106.627,141.045 105.627,141.878 104.5,142.5C 106.601,125.362 111.435,109.029 119,93.5C 134.495,69.8404 154.662,51.1738 179.5,37.5C 180.833,52.8333 180.833,68.1667 179.5,83.5C 154.482,94.518 136.482,112.518 125.5,137.5 Z"/></g>
<g><path style="opacity:1" fill="#f5f7fa" d="M 882.5,37.5 C 882.5,40.1667 882.5,42.8333 882.5,45.5C 879.615,45.1936 876.948,45.5269 874.5,46.5C 874.5,49.8333 874.5,53.1667 874.5,56.5C 877.167,56.5 879.833,56.5 882.5,56.5C 882.5,58.5 882.5,60.5 882.5,62.5C 878.5,62.5 874.5,62.5 870.5,62.5C 870.5,54.1667 870.5,45.8333 870.5,37.5C 874.5,37.5 878.5,37.5 882.5,37.5 Z"/></g>
<g><path style="opacity:1" fill="#bdcdde" d="M 910.5,38.5 C 906.167,38.5 901.833,38.5 897.5,38.5C 897.5,40.8333 897.5,43.1667 897.5,45.5C 901.042,45.1872 904.375,45.5206 907.5,46.5C 903.833,46.5 900.167,46.5 896.5,46.5C 896.5,43.5 896.5,40.5 896.5,37.5C 901.363,37.1805 906.03,37.5139 910.5,38.5 Z"/></g>
<g><path style="opacity:1" fill="#fbfcfc" d="M 910.5,38.5 C 910.5,46.8333 910.5,55.1667 910.5,63.5C 905.833,63.5 901.167,63.5 896.5,63.5C 896.5,61.1667 896.5,58.8333 896.5,56.5C 900.167,56.5 903.833,56.5 907.5,56.5C 907.5,53.1667 907.5,49.8333 907.5,46.5C 904.375,45.5206 901.042,45.1872 897.5,45.5C 897.5,43.1667 897.5,40.8333 897.5,38.5C 901.833,38.5 906.167,38.5 910.5,38.5 Z"/></g>
<g><path style="opacity:1" fill="#fbfcfd" d="M 1114.5,38.5 C 1114.5,42.5 1114.5,46.5 1114.5,50.5C 1104.32,50.1726 1094.32,50.506 1084.5,51.5C 1084.5,55.5 1084.5,59.5 1084.5,63.5C 1091.53,63.1697 1098.53,63.503 1105.5,64.5C 1100.45,75.7572 1093.12,85.2572 1083.5,93C 1086.93,96.0422 1089.77,99.5422 1092,103.5C 1101.5,95.6705 1109.16,86.3371 1115,75.5C 1115.67,82.8333 1115.67,90.1667 1115,97.5C 1111.87,98.1298 1108.7,98.7964 1105.5,99.5C 1107.7,102.447 1108.7,105.78 1108.5,109.5C 1099.68,110.493 1090.68,110.827 1081.5,110.5C 1081.5,86.5 1081.5,62.5 1081.5,38.5C 1092.5,38.5 1103.5,38.5 1114.5,38.5 Z"/></g>
<g><path style="opacity:1" fill="#fdfefe" d="M 1145.5,38.5 C 1145.5,62.5 1145.5,86.5 1145.5,110.5C 1138.65,110.824 1131.98,110.491 1125.5,109.5C 1127.5,108.327 1129,106.66 1130,104.5C 1130.5,90.8374 1130.67,77.1707 1130.5,63.5C 1134.5,63.5 1138.5,63.5 1142.5,63.5C 1142.5,59.5 1142.5,55.5 1142.5,51.5C 1138.5,51.5 1134.5,51.5 1130.5,51.5C 1130.5,47.1667 1130.5,42.8333 1130.5,38.5C 1135.5,38.5 1140.5,38.5 1145.5,38.5 Z"/></g>
<g><path style="opacity:1" fill="#8caac6" d="M 1145.5,38.5 C 1146.5,62.6609 1146.83,86.9943 1146.5,111.5C 1138.49,111.666 1130.49,111.5 1122.5,111C 1123.53,110.487 1124.53,109.987 1125.5,109.5C 1131.98,110.491 1138.65,110.824 1145.5,110.5C 1145.5,86.5 1145.5,62.5 1145.5,38.5 Z"/></g>
<g><path style="opacity:1" fill="#fefefe" d="M 1599.5,38.5 C 1606.5,38.5 1613.5,38.5 1620.5,38.5C 1620.5,40.5 1620.5,42.5 1620.5,44.5C 1613.5,44.5 1606.5,44.5 1599.5,44.5C 1599.5,42.5 1599.5,40.5 1599.5,38.5 Z"/></g>
<g><path style="opacity:1" fill="#517ca9" d="M 1039.5,32.5 C 1040.48,35.9619 1040.81,39.6286 1040.5,43.5C 1029.5,43.5 1018.5,43.5 1007.5,43.5C 1017.99,42.5056 1028.65,42.1722 1039.5,42.5C 1039.5,39.1667 1039.5,35.8333 1039.5,32.5 Z"/></g>
<g><path style="opacity:1" fill="#fcfcfd" d="M 992.5,43.5 C 992.5,44.5 992.5,45.5 992.5,46.5C 985.5,46.5 978.5,46.5 971.5,46.5C 971.5,45.5 971.5,44.5 971.5,43.5C 978.5,43.5 985.5,43.5 992.5,43.5 Z"/></g>
<g><path style="opacity:1" fill="#4b79a7" d="M 266.5,43.5 C 254.345,44.4952 242.011,44.8286 229.5,44.5C 229.5,62.1667 229.5,79.8333 229.5,97.5C 234.5,97.5 239.5,97.5 244.5,97.5C 239.36,98.4881 234.026,98.8214 228.5,98.5C 228.5,80.1667 228.5,61.8333 228.5,43.5C 241.167,43.5 253.833,43.5 266.5,43.5 Z"/></g>
<g><path style="opacity:1" fill="#0a4684" d="M 402.5,64.5 C 408.979,65.4907 415.646,65.824 422.5,65.5C 422.5,69.1667 422.5,72.8333 422.5,76.5C 420.801,76.3398 419.134,76.5065 417.5,77C 419.625,80.0823 421.625,83.2489 423.5,86.5C 422.252,88.4586 420.585,89.9586 418.5,91C 420.81,91.4966 423.143,91.6633 425.5,91.5C 425.5,95.5 425.5,99.5 425.5,103.5C 405.5,103.5 385.5,103.5 365.5,103.5C 365.5,99.5 365.5,95.5 365.5,91.5C 372.5,91.5 379.5,91.5 386.5,91.5C 387.487,86.6946 387.821,81.6946 387.5,76.5C 381.167,76.5 374.833,76.5 368.5,76.5C 368.5,72.8333 368.5,69.1667 368.5,65.5C 374.833,65.5 381.167,65.5 387.5,65.5C 387.5,62.1667 387.5,58.8333 387.5,55.5C 380.5,55.5 373.5,55.5 366.5,55.5C 366.5,51.5 366.5,47.5 366.5,43.5C 385.833,43.5 405.167,43.5 424.5,43.5C 424.5,47.5 424.5,51.5 424.5,55.5C 417.167,55.5 409.833,55.5 402.5,55.5C 402.5,58.5 402.5,61.5 402.5,64.5 Z"/></g>
<g><path style="opacity:1" fill="#a8bed4" d="M 882.5,37.5 C 883.477,40.2869 883.81,43.2869 883.5,46.5C 880.5,46.5 877.5,46.5 874.5,46.5C 876.948,45.5269 879.615,45.1936 882.5,45.5C 882.5,42.8333 882.5,40.1667 882.5,37.5 Z"/></g>
<g><path style="opacity:1" fill="#6f94b8" d="M 284.5,43.5 C 297.833,43.5 311.167,43.5 324.5,43.5C 324.83,61.3412 324.497,79.0079 323.5,96.5C 323.5,79.1667 323.5,61.8333 323.5,44.5C 310.323,44.8288 297.323,44.4955 284.5,43.5 Z"/></g>
<g><path style="opacity:1" fill="#7e9fbf" d="M 992.5,43.5 C 993.434,44.5676 993.768,45.901 993.5,47.5C 985.981,47.825 978.648,47.4916 971.5,46.5C 978.5,46.5 985.5,46.5 992.5,46.5C 992.5,45.5 992.5,44.5 992.5,43.5 Z"/></g>
<g><path style="opacity:1" fill="#7497ba" d="M 1352.5,43.5 C 1353.46,45.2646 1353.79,47.2646 1353.5,49.5C 1352.5,49.5 1351.5,49.5 1350.5,49.5C 1352.07,47.8863 1352.74,45.8863 1352.5,43.5 Z"/></g>
<g><path style="opacity:1" fill="#bdcede" d="M 1421.5,46.5 C 1431.52,46.1681 1441.52,46.5015 1451.5,47.5C 1451.38,48.1067 1451.04,48.44 1450.5,48.5C 1440.83,47.8333 1431.17,47.1667 1421.5,46.5 Z"/></g>
<g><path style="opacity:1" fill="#82a3c1" d="M 585.5,49.5 C 598.99,48.5043 612.656,48.171 626.5,48.5C 626.813,52.0419 626.479,55.3752 625.5,58.5C 625.5,55.5 625.5,52.5 625.5,49.5C 612.167,49.5 598.833,49.5 585.5,49.5 Z"/></g>
<g><path style="opacity:1" fill="#0a4684" d="M 585.5,49.5 C 598.833,49.5 612.167,49.5 625.5,49.5C 625.5,52.5 625.5,55.5 625.5,58.5C 623.036,81.8195 612.869,101.153 595,116.5C 590.578,113.036 585.744,110.203 580.5,108C 595.999,96.6684 605.999,81.6684 610.5,63C 602.173,62.5003 593.84,62.3336 585.5,62.5C 585.5,58.1667 585.5,53.8333 585.5,49.5 Z"/></g>
<g><path style="opacity:1" fill="#4c79a7" d="M 1855.5,62.5 C 1855.5,58.5 1855.5,54.5 1855.5,50.5C 1832.17,50.5 1808.83,50.5 1785.5,50.5C 1785.5,54.5 1785.5,58.5 1785.5,62.5C 1784.52,58.3656 1784.18,54.0323 1784.5,49.5C 1808.5,49.5 1832.5,49.5 1856.5,49.5C 1856.82,54.0323 1856.48,58.3656 1855.5,62.5 Z"/></g>
<g><path style="opacity:1" fill="#c0cedf" d="M 1114.5,38.5 C 1115.48,42.6344 1115.82,46.9677 1115.5,51.5C 1105.17,51.5 1094.83,51.5 1084.5,51.5C 1094.32,50.506 1104.32,50.1726 1114.5,50.5C 1114.5,46.5 1114.5,42.5 1114.5,38.5 Z"/></g>
<g><path style="opacity:1" fill="#054483" d="M 1855.5,62.5 C 1832.17,62.5 1808.83,62.5 1785.5,62.5C 1785.5,58.5 1785.5,54.5 1785.5,50.5C 1808.83,50.5 1832.17,50.5 1855.5,50.5C 1855.5,54.5 1855.5,58.5 1855.5,62.5 Z"/></g>
<g><path style="opacity:1" fill="#83a3c2" d="M 521.5,48.5 C 521.5,50.1667 521.5,51.8333 521.5,53.5C 534.344,53.1713 547.011,53.5046 559.5,54.5C 546.5,54.5 533.5,54.5 520.5,54.5C 520.205,52.2646 520.539,50.2646 521.5,48.5 Z"/></g>
<g><path style="opacity:1" fill="#537eaa" d="M 505.5,53.5 C 494.679,54.4946 483.679,54.8279 472.5,54.5C 472.5,78.8333 472.5,103.167 472.5,127.5C 471.502,103.006 471.169,78.339 471.5,53.5C 482.833,53.5 494.167,53.5 505.5,53.5 Z"/></g>
<g><path style="opacity:1" fill="#fefffe" d="M 1620.5,55.5 C 1620.5,58.1667 1620.5,60.8333 1620.5,63.5C 1613.5,63.5 1606.5,63.5 1599.5,63.5C 1599.5,60.8333 1599.5,58.1667 1599.5,55.5C 1606.5,55.5 1613.5,55.5 1620.5,55.5 Z"/></g>
<g><path style="opacity:1" fill="#f6f8fa" d="M 266.5,57.5 C 266.5,63.8333 266.5,70.1667 266.5,76.5C 259.167,76.5 251.833,76.5 244.5,76.5C 244.5,69.8333 244.5,63.1667 244.5,56.5C 252.019,56.175 259.352,56.5084 266.5,57.5 Z"/></g>
<g><path style="opacity:1" fill="#f8fafb" d="M 306.5,57.5 C 306.5,63.8333 306.5,70.1667 306.5,76.5C 299.167,76.5 291.833,76.5 284.5,76.5C 284.5,70.1667 284.5,63.8333 284.5,57.5C 291.833,56.1667 299.167,56.1667 306.5,57.5 Z"/></g>
<g><path style="opacity:1" fill="#fcfcfc" d="M 971.5,57.5 C 978.5,57.5 985.5,57.5 992.5,57.5C 992.5,58.5 992.5,59.5 992.5,60.5C 985.5,60.5 978.5,60.5 971.5,60.5C 971.5,59.5 971.5,58.5 971.5,57.5 Z"/></g>
<g><path style="opacity:1" fill="#f3f6f9" d="M 1202.5,56.5 C 1209.83,56.5 1217.17,56.5 1224.5,56.5C 1224.5,63.5 1224.5,70.5 1224.5,77.5C 1217.17,77.5 1209.83,77.5 1202.5,77.5C 1202.5,70.5 1202.5,63.5 1202.5,56.5 Z"/></g>
<g><path style="opacity:1" fill="#f0f4f7" d="M 1241.5,56.5 C 1249.17,56.5 1256.83,56.5 1264.5,56.5C 1264.5,63.5 1264.5,70.5 1264.5,77.5C 1256.83,77.5 1249.17,77.5 1241.5,77.5C 1241.5,70.5 1241.5,63.5 1241.5,56.5 Z"/></g>
<g><path style="opacity:1" fill="#7ea0c0" d="M 971.5,57.5 C 978.648,56.5084 985.981,56.175 993.5,56.5C 993.5,58.1667 993.5,59.8333 993.5,61.5C 985.981,61.825 978.648,61.4916 971.5,60.5C 978.5,60.5 985.5,60.5 992.5,60.5C 992.5,59.5 992.5,58.5 992.5,57.5C 985.5,57.5 978.5,57.5 971.5,57.5 Z"/></g>
<g><path style="opacity:1" fill="#f6f8fa" d="M 1341.5,79.5 C 1339.59,79.2155 1337.92,79.5489 1336.5,80.5C 1333.15,80.665 1329.82,80.4983 1326.5,80C 1331.07,73.0446 1336.23,66.5446 1342,60.5C 1342.49,61.7932 1342.66,63.1266 1342.5,64.5C 1346.46,63.6245 1350.46,62.9578 1354.5,62.5C 1355.07,65.5884 1355.07,68.5884 1354.5,71.5C 1350.26,72.7494 1345.93,73.5827 1341.5,74C 1340.86,75.7067 1340.86,77.54 1341.5,79.5 Z"/></g>
<g><path style="opacity:1" fill="#aec2d7" d="M 882.5,56.5 C 883.468,58.6074 883.802,60.9407 883.5,63.5C 878.968,63.8182 874.634,63.4849 870.5,62.5C 874.5,62.5 878.5,62.5 882.5,62.5C 882.5,60.5 882.5,58.5 882.5,56.5 Z"/></g>
<g><path style="opacity:1" fill="#c0cfe0" d="M 957.5,87.5 C 956.833,77.1667 956.167,66.8333 955.5,56.5C 955.783,55.7109 956.283,55.0442 957,54.5C 957.5,65.495 957.667,76.495 957.5,87.5 Z"/></g>
<g><path style="opacity:1" fill="#becfdf" d="M 1620.5,55.5 C 1621.48,58.2869 1621.81,61.2869 1621.5,64.5C 1613.98,64.825 1606.65,64.4916 1599.5,63.5C 1606.5,63.5 1613.5,63.5 1620.5,63.5C 1620.5,60.8333 1620.5,58.1667 1620.5,55.5 Z"/></g>
<g><path style="opacity:1" fill="#82a2c1" d="M 402.5,64.5 C 409.5,64.5 416.5,64.5 423.5,64.5C 423.817,68.7016 423.483,72.7016 422.5,76.5C 422.5,72.8333 422.5,69.1667 422.5,65.5C 415.646,65.824 408.979,65.4907 402.5,64.5 Z"/></g>
<g><path style="opacity:1" fill="#4373a2" d="M 486.5,66.5 C 491.985,65.3483 497.651,65.1816 503.5,66C 502.956,66.7172 502.289,67.2172 501.5,67.5C 496.695,66.5128 491.695,66.1795 486.5,66.5 Z"/></g>
<g><path style="opacity:1" fill="#4272a2" d="M 521.5,66.5 C 517.298,66.1832 513.298,66.5166 509.5,67.5C 508.957,67.44 508.624,67.1067 508.5,66.5C 512.984,65.1889 517.317,65.1889 521.5,66.5 Z"/></g>
<g><path style="opacity:1" fill="#4675a4" d="M 543.5,66.5 C 539.298,66.1832 535.298,66.5166 531.5,67.5C 530.711,67.2172 530.044,66.7172 529.5,66C 534.352,65.1849 539.019,65.3516 543.5,66.5 Z"/></g>
<g><path style="opacity:1" fill="#4474a3" d="M 822.5,53.5 C 822.5,57.5 822.5,61.5 822.5,65.5C 826.371,65.185 830.038,65.5184 833.5,66.5C 829.5,66.5 825.5,66.5 821.5,66.5C 821.182,61.9677 821.515,57.6344 822.5,53.5 Z"/></g>
<g><path style="opacity:1" fill="#eff3f7" d="M 521.5,66.5 C 520.231,70.6331 518.564,74.6331 516.5,78.5C 513.216,79.657 509.882,79.8236 506.5,79C 508.65,77.5886 510.984,76.7553 513.5,76.5C 512.977,73.122 511.644,70.122 509.5,67.5C 513.298,66.5166 517.298,66.1832 521.5,66.5 Z"/></g>
<g><path style="opacity:1" fill="#f7f8fb" d="M 1461.5,67.5 C 1472.5,67.5 1483.5,67.5 1494.5,67.5C 1494.5,69.8333 1494.5,72.1667 1494.5,74.5C 1483.5,74.5 1472.5,74.5 1461.5,74.5C 1461.5,72.1667 1461.5,69.8333 1461.5,67.5 Z"/></g>
<g><path style="opacity:1" fill="#f6f8fa" d="M 971.5,70.5 C 978.833,70.5 986.167,70.5 993.5,70.5C 993.5,71.8333 993.5,73.1667 993.5,74.5C 986.167,74.5 978.833,74.5 971.5,74.5C 971.5,73.1667 971.5,71.8333 971.5,70.5 Z"/></g>
<g><path style="opacity:1" fill="#5a83ad" d="M 1849.5,70.5 C 1831.17,70.5 1812.83,70.5 1794.5,70.5C 1794.5,85.8333 1794.5,101.167 1794.5,116.5C 1793.5,101.009 1793.17,85.3422 1793.5,69.5C 1812.34,69.1698 1831.01,69.5031 1849.5,70.5 Z"/></g>
<g><path style="opacity:1" fill="#064583" d="M 1849.5,70.5 C 1849.5,85.5 1849.5,100.5 1849.5,115.5C 1844.26,114.551 1838.93,114.218 1833.5,114.5C 1833.5,112.5 1833.5,110.5 1833.5,108.5C 1825.35,107.507 1817.02,107.174 1808.5,107.5C 1808.5,110.5 1808.5,113.5 1808.5,116.5C 1803.83,116.5 1799.17,116.5 1794.5,116.5C 1794.5,101.167 1794.5,85.8333 1794.5,70.5C 1812.83,70.5 1831.17,70.5 1849.5,70.5 Z"/></g>
<g><path style="opacity:1" fill="#b9cbdc" d="M 1849.5,70.5 C 1850.5,84.9905 1850.83,99.6572 1850.5,114.5C 1851.83,114.5 1853.17,114.5 1854.5,114.5C 1853.08,115.451 1851.41,115.784 1849.5,115.5C 1849.5,100.5 1849.5,85.5 1849.5,70.5 Z"/></g>
<g><path style="opacity:1" fill="#5b84ae" d="M 870.5,74.5 C 883.99,73.5043 897.656,73.171 911.5,73.5C 911.829,86.3443 911.495,99.011 910.5,111.5C 910.5,99.1667 910.5,86.8333 910.5,74.5C 897.167,74.5 883.833,74.5 870.5,74.5 Z"/></g>
<g><path style="opacity:1" fill="#4272a1" d="M 1629.5,77.5 C 1627.7,76.838 1625.7,76.5046 1623.5,76.5C 1621.05,76.5391 1619.05,77.2057 1617.5,78.5C 1616.6,77.791 1616.26,76.791 1616.5,75.5C 1621.21,75.1734 1625.88,75.5067 1630.5,76.5C 1630.38,77.1067 1630.04,77.44 1629.5,77.5 Z"/></g>
<g><path style="opacity:1" fill="#7ea0bf" d="M 266.5,57.5 C 267.491,63.979 267.824,70.6457 267.5,77.5C 259.648,77.8254 251.982,77.492 244.5,76.5C 251.833,76.5 259.167,76.5 266.5,76.5C 266.5,70.1667 266.5,63.8333 266.5,57.5 Z"/></g>
<g><path style="opacity:1" fill="#7195b8" d="M 284.5,57.5 C 284.5,63.8333 284.5,70.1667 284.5,76.5C 291.833,76.5 299.167,76.5 306.5,76.5C 306.5,70.1667 306.5,63.8333 306.5,57.5C 307.491,63.979 307.824,70.6457 307.5,77.5C 299.5,77.5 291.5,77.5 283.5,77.5C 283.176,70.6457 283.509,63.979 284.5,57.5 Z"/></g>
<g><path style="opacity:1" fill="#f7f9fa" d="M 1629.5,77.5 C 1626.5,80.3316 1623.33,82.9983 1620,85.5C 1618.1,83.559 1617.26,81.2257 1617.5,78.5C 1619.05,77.2057 1621.05,76.5391 1623.5,76.5C 1625.7,76.5046 1627.7,76.838 1629.5,77.5 Z"/></g>
<g><path style="opacity:1" fill="#becedf" d="M 368.5,76.5 C 374.833,76.5 381.167,76.5 387.5,76.5C 387.821,81.6946 387.487,86.6946 386.5,91.5C 386.5,86.8333 386.5,82.1667 386.5,77.5C 380.31,77.8229 374.31,77.4896 368.5,76.5 Z"/></g>
<g><path style="opacity:1" fill="#f0f4f7" d="M 402.5,76.5 C 405.187,76.3359 407.854,76.5026 410.5,77C 408.359,78.3076 406.359,79.8076 404.5,81.5C 406.5,84.5 408.5,87.5 410.5,90.5C 407.914,91.48 405.247,91.8134 402.5,91.5C 402.5,86.5 402.5,81.5 402.5,76.5 Z"/></g>
<g><path style="opacity:1" fill="#7d9ebf" d="M 645.5,26.5 C 645.5,25.1667 645.5,23.8333 645.5,22.5C 640.167,22.5 634.833,22.5 629.5,22.5C 629.831,52.6713 629.498,82.6713 628.5,112.5C 628.5,82.1667 628.5,51.8333 628.5,21.5C 634.5,21.5 640.5,21.5 646.5,21.5C 646.784,23.4147 646.451,25.0813 645.5,26.5 Z"/></g>
<g><path style="opacity:1" fill="#4272a2" d="M 646.5,78.5 C 645.505,90.989 645.171,103.656 645.5,116.5C 644.34,103.34 644.173,90.0064 645,76.5C 645.717,77.0442 646.217,77.7109 646.5,78.5 Z"/></g>
<g><path style="opacity:1" fill="#7fa0c0" d="M 498.5,77.5 C 499.043,77.56 499.376,77.8933 499.5,78.5C 496.572,79.4841 493.572,79.8174 490.5,79.5C 493.167,78.8333 495.833,78.1667 498.5,77.5 Z"/></g>
<g><path style="opacity:1" fill="#81a2c1" d="M 905.5,79.5 C 894.833,79.5 884.167,79.5 873.5,79.5C 873.5,90.5 873.5,101.5 873.5,112.5C 872.505,101.346 872.172,90.0123 872.5,78.5C 883.679,78.1721 894.679,78.5054 905.5,79.5 Z"/></g>
<g><path style="opacity:1" fill="#0a4684" d="M 905.5,79.5 C 905.5,89.8333 905.5,100.167 905.5,110.5C 901.167,110.5 896.833,110.5 892.5,110.5C 890.721,108.656 888.388,107.99 885.5,108.5C 885.5,109.833 885.5,111.167 885.5,112.5C 881.5,112.5 877.5,112.5 873.5,112.5C 873.5,101.5 873.5,90.5 873.5,79.5C 884.167,79.5 894.833,79.5 905.5,79.5 Z"/></g>
<g><path style="opacity:1" fill="#81a2c1" d="M 905.5,79.5 C 906.494,89.9869 906.828,100.654 906.5,111.5C 901.637,111.819 896.97,111.486 892.5,110.5C 896.833,110.5 901.167,110.5 905.5,110.5C 905.5,100.167 905.5,89.8333 905.5,79.5 Z"/></g>
<g><path style="opacity:1" fill="#7e9fbf" d="M 1336.5,80.5 C 1337.92,79.5489 1339.59,79.2155 1341.5,79.5C 1342.34,79.8417 1342.67,80.5084 1342.5,81.5C 1341.83,81.5 1341.17,81.5 1340.5,81.5C 1339.43,80.5655 1338.1,80.2322 1336.5,80.5 Z"/></g>
<g><path style="opacity:1" fill="#fefefe" d="M 1833.5,83.5 C 1833.5,87.5 1833.5,91.5 1833.5,95.5C 1825.5,95.5 1817.5,95.5 1809.5,95.5C 1809.5,91.5 1809.5,87.5 1809.5,83.5C 1817.5,83.5 1825.5,83.5 1833.5,83.5 Z"/></g>
<g><path style="opacity:1" fill="#4e7aa8" d="M 971.5,85.5 C 976.975,84.5111 982.642,84.1778 988.5,84.5C 988.795,86.7354 988.461,88.7354 987.5,90.5C 987.5,88.8333 987.5,87.1667 987.5,85.5C 982.167,85.5 976.833,85.5 971.5,85.5 Z"/></g>
<g><path style="opacity:1" fill="#0b4784" d="M 1701.5,62.5 C 1707.17,63.8355 1712.84,65.3355 1718.5,67C 1719.43,67.3879 1720.09,68.0546 1720.5,69C 1712.67,80.9867 1705.34,93.3201 1698.5,106C 1708.21,106.541 1717.88,106.041 1727.5,104.5C 1724.21,99.8733 1720.54,95.54 1716.5,91.5C 1720.67,88.5825 1725,85.9159 1729.5,83.5C 1739.69,94.7023 1748.36,107.036 1755.5,120.5C 1750.15,123.452 1744.65,126.119 1739,128.5C 1737.59,124.017 1735.43,120.017 1732.5,116.5C 1715.12,117.893 1697.96,120.56 1681,124.5C 1680.17,124.167 1679.33,123.833 1678.5,123.5C 1677.17,119.172 1675.84,114.839 1674.5,110.5C 1685.17,102.286 1692.67,91.6194 1697,78.5C 1699.38,73.4026 1700.88,68.0693 1701.5,62.5 Z"/></g>
<g><path style="opacity:1" fill="#f7f9fb" d="M 1461.5,85.5 C 1472.5,85.5 1483.5,85.5 1494.5,85.5C 1494.5,88.1667 1494.5,90.8333 1494.5,93.5C 1483.5,93.5 1472.5,93.5 1461.5,93.5C 1461.5,90.8333 1461.5,88.1667 1461.5,85.5 Z"/></g>
<g><path style="opacity:1" fill="#bfcfdf" d="M 1833.5,83.5 C 1825.5,83.5 1817.5,83.5 1809.5,83.5C 1809.5,87.5 1809.5,91.5 1809.5,95.5C 1808.52,91.3656 1808.18,87.0323 1808.5,82.5C 1817.02,82.1739 1825.35,82.5073 1833.5,83.5 Z"/></g>
<g><path style="opacity:1" fill="#a8bed4" d="M 267.5,129.5 C 266.505,116.677 266.171,103.677 266.5,90.5C 259.5,90.5 252.5,90.5 245.5,90.5C 245.802,93.0593 245.468,95.3926 244.5,97.5C 244.5,94.8333 244.5,92.1667 244.5,89.5C 252.167,89.5 259.833,89.5 267.5,89.5C 267.5,102.833 267.5,116.167 267.5,129.5 Z"/></g>
<g><path style="opacity:1" fill="#507ba8" d="M 490.5,89.5 C 496.167,89.5 501.833,89.5 507.5,89.5C 507.802,92.0593 507.468,94.3926 506.5,96.5C 506.5,94.5 506.5,92.5 506.5,90.5C 500.974,90.8214 495.64,90.4881 490.5,89.5 Z"/></g>
<g><path style="opacity:1" fill="#f9fafb" d="M 885.5,89.5 C 887.833,89.5 890.167,89.5 892.5,89.5C 892.5,92.8333 892.5,96.1667 892.5,99.5C 890.167,99.5 887.833,99.5 885.5,99.5C 885.5,96.1667 885.5,92.8333 885.5,89.5 Z"/></g>
<g><path style="opacity:1" fill="#bfcfdf" d="M 1241.5,90.5 C 1248.98,89.508 1256.65,89.1746 1264.5,89.5C 1264.5,91.8333 1264.5,94.1667 1264.5,96.5C 1263.54,94.7354 1263.21,92.7354 1263.5,90.5C 1256.17,90.5 1248.83,90.5 1241.5,90.5 Z"/></g>
<g><path style="opacity:1" fill="#0e4785" d="M 1344.5,96.5 C 1344.72,100.943 1344.72,105.61 1344.5,110.5C 1331.19,113.881 1318.35,118.548 1306,124.5C 1303.54,119.234 1301.71,113.734 1300.5,108C 1315.45,105.07 1330.11,101.237 1344.5,96.5 Z"/></g>
<g><path style="opacity:1" fill="#4574a4" d="M 943.5,101.5 C 954.52,101.168 965.52,101.501 976.5,102.5C 976.376,103.107 976.043,103.44 975.5,103.5C 964.833,102.833 954.167,102.167 943.5,101.5 Z"/></g>
<g><path style="opacity:1" fill="#c0cedf" d="M 1833.5,108.5 C 1825.5,108.5 1817.5,108.5 1809.5,108.5C 1809.81,111.385 1809.47,114.052 1808.5,116.5C 1808.5,113.5 1808.5,110.5 1808.5,107.5C 1817.02,107.174 1825.35,107.507 1833.5,108.5 Z"/></g>
<g><path style="opacity:1" fill="#bacbdd" d="M 1108.5,109.5 C 1109.04,109.56 1109.38,109.893 1109.5,110.5C 1100.01,111.822 1090.67,111.822 1081.5,110.5C 1090.68,110.827 1099.68,110.493 1108.5,109.5 Z"/></g>
<g><path style="opacity:1" fill="#7a9cbd" d="M 625.5,113.5 C 622.203,113.89 619.203,114.89 616.5,116.5C 615.596,115.791 615.263,114.791 615.5,113.5C 618.833,113.5 622.167,113.5 625.5,113.5 Z"/></g>
<g><path style="opacity:1" fill="#c6f2f3" d="M 125.5,137.5 C 136.988,138.495 148.655,138.828 160.5,138.5C 160.737,139.791 160.404,140.791 159.5,141.5C 148.215,139.522 136.548,138.855 124.5,139.5C 124.328,138.508 124.662,137.842 125.5,137.5 Z"/></g>
<g><path style="opacity:1" fill="#2ad7d3" d="M 55.5,139.5 C 62.1667,139.5 68.8333,139.5 75.5,139.5C 78.1667,139.5 80.8333,139.5 83.5,139.5C 87.8333,139.5 92.1667,139.5 96.5,139.5C 97.5,139.5 98.5,139.5 99.5,139.5C 99.8504,142.453 98.8504,144.787 96.5,146.5C 94.6854,147.63 92.6854,148.296 90.5,148.5C 84.8333,148.5 79.1667,148.5 73.5,148.5C 73.5,149.5 73.5,150.5 73.5,151.5C 74.791,151.737 75.791,151.404 76.5,150.5C 78.717,151.369 81.0504,151.702 83.5,151.5C 83.8333,151.5 84.1667,151.5 84.5,151.5C 88.5,151.5 92.5,151.5 96.5,151.5C 97.8734,151.343 99.2068,151.51 100.5,152C 98.5743,155.076 96.9076,158.242 95.5,161.5C 92.8676,165.734 89.5343,169.401 85.5,172.5C 84.8333,172.5 84.5,172.833 84.5,173.5C 82.3024,173.875 80.3024,174.542 78.5,175.5C 78.1667,175.5 77.8333,175.5 77.5,175.5C 75.8333,175.5 74.1667,175.5 72.5,175.5C 70.1667,175.5 67.8333,175.5 65.5,175.5C 60.1563,175.334 54.8229,175.501 49.5,176C 48.3128,177.019 47.3128,178.186 46.5,179.5C 52.7985,180.496 59.1318,180.83 65.5,180.5C 69.8333,180.5 74.1667,180.5 78.5,180.5C 80.6208,180.675 82.6208,180.341 84.5,179.5C 85.4916,179.672 86.1583,179.338 86.5,178.5C 90.5,176.5 93.5,173.5 95.5,169.5C 97.738,167.884 100.071,166.551 102.5,165.5C 107.167,165.5 111.833,165.5 116.5,165.5C 130.833,165.5 145.167,165.5 159.5,165.5C 159.398,170.444 157.065,173.944 152.5,176C 139.838,176.5 127.171,176.667 114.5,176.5C 110.958,176.187 107.625,176.521 104.5,177.5C 103.508,177.328 102.842,177.662 102.5,178.5C 99.1848,181.125 96.8514,184.458 95.5,188.5C 94.8333,188.5 94.5,188.833 94.5,189.5C 92.0034,191.871 89.0034,192.871 85.5,192.5C 82.8333,192.5 80.1667,192.5 77.5,192.5C 74.1667,192.5 70.8333,192.5 67.5,192.5C 67.5,194.833 67.5,197.167 67.5,199.5C 66.5318,197.393 66.1984,195.059 66.5,192.5C 54.5,192.5 42.5,192.5 30.5,192.5C 31.8178,186.858 33.9845,181.525 37,176.5C 38.9476,172.097 42.1143,168.93 46.5,167C 52.1569,166.501 57.8236,166.334 63.5,166.5C 68.6946,166.821 73.6946,166.487 78.5,165.5C 81.3213,165.684 82.9879,164.351 83.5,161.5C 81.9547,160.548 80.288,160.215 78.5,160.5C 78.1667,160.5 77.8333,160.5 77.5,160.5C 72.5,160.5 67.5,160.5 62.5,160.5C 51.495,160.667 40.495,160.5 29.5,160C 31.5,156.667 34.1667,154 37.5,152C 44.8559,151.831 52.1892,151.331 59.5,150.5C 50.1904,149.502 40.8571,149.168 31.5,149.5C 31.9713,145.497 33.9713,142.331 37.5,140C 43.4908,139.501 49.4908,139.334 55.5,139.5 Z"/></g>
<g><path style="opacity:1" fill="#33d8d4" d="M 124.5,139.5 C 136.548,138.855 148.215,139.522 159.5,141.5C 157.762,145.388 154.762,147.888 150.5,149C 140.506,149.5 130.506,149.666 120.5,149.5C 114.833,148.167 109.167,148.167 103.5,149.5C 102.5,149.5 101.5,149.5 100.5,149.5C 100.998,146.674 102.331,144.34 104.5,142.5C 105.627,141.878 106.627,141.045 107.5,140C 113.157,139.501 118.824,139.334 124.5,139.5 Z"/></g>
<g><path style="opacity:1" fill="#04689b" d="M 65.5,147.5 C 71.1755,147.86 71.8421,149.86 67.5,153.5C 64.5313,152.235 63.8646,150.235 65.5,147.5 Z"/></g>
<g><path style="opacity:1" fill="#56b5c8" d="M 90.5,148.5 C 88.1561,148.94 86.1561,149.94 84.5,151.5C 84.1667,151.5 83.8333,151.5 83.5,151.5C 82.8478,150.275 81.6811,149.608 80,149.5C 78.6153,149.514 77.4486,149.848 76.5,150.5C 75.791,151.404 74.791,151.737 73.5,151.5C 73.5,150.5 73.5,149.5 73.5,148.5C 79.1667,148.5 84.8333,148.5 90.5,148.5 Z"/></g>
<g><path style="opacity:1" fill="#0c74a2" d="M 120.5,149.5 C 120.5,149.833 120.5,150.167 120.5,150.5C 120.5,150.833 120.5,151.167 120.5,151.5C 116.154,151.334 111.821,151.501 107.5,152C 104.961,154.941 103.628,154.774 103.5,151.5C 103.5,150.833 103.5,150.167 103.5,149.5C 109.167,148.167 114.833,148.167 120.5,149.5 Z"/></g>
<g><path style="opacity:1" fill="#d8f6f5" d="M 76.5,150.5 C 77.4486,149.848 78.6153,149.514 80,149.5C 81.6811,149.608 82.8478,150.275 83.5,151.5C 81.0504,151.702 78.717,151.369 76.5,150.5 Z"/></g>
<g><path style="opacity:1" fill="#1576a4" d="M 96.5,146.5 C 96.5,148.167 96.5,149.833 96.5,151.5C 92.5,151.5 88.5,151.5 84.5,151.5C 86.1561,149.94 88.1561,148.94 90.5,148.5C 92.6854,148.296 94.6854,147.63 96.5,146.5 Z"/></g>
<g><path style="opacity:1" fill="#c7f4f2" d="M 120.5,151.5 C 120.5,151.167 120.5,150.833 120.5,150.5C 133.833,150.5 147.167,150.5 160.5,150.5C 160.737,151.791 160.404,152.791 159.5,153.5C 146.876,151.519 133.876,150.852 120.5,151.5 Z"/></g>
<g><path style="opacity:1" fill="#33d7d4" d="M 103.5,151.5 C 103.628,154.774 104.961,154.941 107.5,152C 111.821,151.501 116.154,151.334 120.5,151.5C 133.876,150.852 146.876,151.519 159.5,153.5C 157.762,157.388 154.762,159.888 150.5,161C 139.505,161.5 128.505,161.667 117.5,161.5C 112.695,160.513 107.695,160.179 102.5,160.5C 101.903,160.265 101.57,159.765 101.5,159C 102.016,156.331 102.683,153.831 103.5,151.5 Z"/></g>
<g><path style="opacity:1" fill="#144a87" d="M 240.5,156.5 C 248.72,154.843 253.887,157.843 256,165.5C 254.416,166.861 252.582,167.528 250.5,167.5C 248.381,160.769 244.548,159.769 239,164.5C 237.056,169.807 237.056,175.14 239,180.5C 244.745,185.233 248.912,184.066 251.5,177C 253.107,177.019 254.774,177.185 256.5,177.5C 256.429,182.147 254.429,185.647 250.5,188C 240.591,190.801 234.424,187.301 232,177.5C 229.704,168.185 232.537,161.185 240.5,156.5 Z"/></g>
<g><path style="opacity:1" fill="#144a87" d="M 378.5,156.5 C 384.024,155.898 389.19,156.898 394,159.5C 394.85,161.01 395.683,162.51 396.5,164C 393.478,167.513 390.812,167.179 388.5,163C 385.97,161.578 383.303,161.245 380.5,162C 377.601,165.227 378.268,167.56 382.5,169C 388.301,169.149 393.135,171.316 397,175.5C 398.22,184.614 394.22,188.948 385,188.5C 377.353,189.163 373.019,185.83 372,178.5C 373.699,177.594 375.533,177.261 377.5,177.5C 377.393,179.903 378.393,181.736 380.5,183C 383.5,183.667 386.5,183.667 389.5,183C 391.602,181.267 391.935,179.267 390.5,177C 386.289,175.29 381.956,173.957 377.5,173C 372.776,170.565 371.276,166.731 373,161.5C 374.73,159.598 376.563,157.931 378.5,156.5 Z"/></g>
<g><path style="opacity:1" fill="#164b87" d="M 1439.5,156.5 C 1446.11,155.115 1451.28,157.115 1455,162.5C 1455.49,163.793 1455.66,165.127 1455.5,166.5C 1454.07,166.421 1452.74,166.754 1451.5,167.5C 1444,158.671 1439,160.005 1436.5,171.5C 1436.65,175.271 1437.65,178.771 1439.5,182C 1445.87,185.291 1449.53,183.458 1450.5,176.5C 1452.5,176.833 1454.5,177.167 1456.5,177.5C 1454.43,187.378 1448.43,190.878 1438.5,188C 1434.13,185.445 1431.63,181.612 1431,176.5C 1429.28,167.796 1432.12,161.129 1439.5,156.5 Z"/></g>
<g><path style="opacity:1" fill="#044583" d="M 291.5,157.5 C 293.167,157.5 294.833,157.5 296.5,157.5C 296.5,159.167 296.5,160.833 296.5,162.5C 296.5,160.833 296.5,159.167 296.5,157.5C 294.833,157.5 293.167,157.5 291.5,157.5 Z"/></g>
<g><path style="opacity:1" fill="#4d79a7" d="M 612.5,157.5 C 610.833,157.5 609.167,157.5 607.5,157.5C 607.5,167.833 607.5,178.167 607.5,188.5C 606.506,178.013 606.172,167.346 606.5,156.5C 608.735,156.205 610.735,156.539 612.5,157.5 Z"/></g>
<g><path style="opacity:1" fill="#4f7ba8" d="M 633.5,157.5 C 631.833,157.5 630.167,157.5 628.5,157.5C 628.831,164.863 628.497,172.197 627.5,179.5C 626.893,179.376 626.56,179.043 626.5,178.5C 627.492,171.352 627.825,164.019 627.5,156.5C 629.735,156.205 631.735,156.539 633.5,157.5 Z"/></g>
<g><path style="opacity:1" fill="#4b78a6" d="M 713.5,166.5 C 713.44,167.043 713.107,167.376 712.5,167.5C 711.513,164.232 711.18,160.898 711.5,157.5C 710.167,157.5 708.833,157.5 707.5,157.5C 707.5,167.833 707.5,178.167 707.5,188.5C 706.506,178.013 706.172,167.346 706.5,156.5C 708.5,156.5 710.5,156.5 712.5,156.5C 712.187,160.042 712.521,163.375 713.5,166.5 Z"/></g>
<g><path style="opacity:1" fill="#184d88" d="M 713.5,166.5 C 719.384,162.942 723.884,164.275 727,170.5C 727.499,176.491 727.666,182.491 727.5,188.5C 725.5,188.5 723.5,188.5 721.5,188.5C 721.666,182.824 721.499,177.157 721,171.5C 718.034,168.735 715.367,169.068 713,172.5C 712.501,177.823 712.334,183.156 712.5,188.5C 710.833,188.5 709.167,188.5 707.5,188.5C 707.5,178.167 707.5,167.833 707.5,157.5C 708.833,157.5 710.167,157.5 711.5,157.5C 711.18,160.898 711.513,164.232 712.5,167.5C 713.107,167.376 713.44,167.043 713.5,166.5 Z"/></g>
<g><path style="opacity:1" fill="#0b4784" d="M 896.5,157.5 C 916.457,153.955 924.29,161.955 920,181.5C 918.332,185.165 915.499,187.332 911.5,188C 906.511,188.499 901.511,188.666 896.5,188.5C 896.5,178.167 896.5,167.833 896.5,157.5 Z"/></g>
<g><path style="opacity:1" fill="#044583" d="M 929.5,157.5 C 931.167,157.5 932.833,157.5 934.5,157.5C 934.5,159.167 934.5,160.833 934.5,162.5C 932.833,162.5 931.167,162.5 929.5,162.5C 929.5,160.833 929.5,159.167 929.5,157.5 Z"/></g>
<g><path style="opacity:1" fill="#a8bdd3" d="M 929.5,157.5 C 931.265,156.539 933.265,156.205 935.5,156.5C 935.5,158.833 935.5,161.167 935.5,163.5C 933.265,163.795 931.265,163.461 929.5,162.5C 931.167,162.5 932.833,162.5 934.5,162.5C 934.5,160.833 934.5,159.167 934.5,157.5C 932.833,157.5 931.167,157.5 929.5,157.5 Z"/></g>
<g><path style="opacity:1" fill="#054583" d="M 1037.5,157.5 C 1039.17,157.5 1040.83,157.5 1042.5,157.5C 1042.5,159.167 1042.5,160.833 1042.5,162.5C 1040.83,162.5 1039.17,162.5 1037.5,162.5C 1037.5,160.833 1037.5,159.167 1037.5,157.5 Z"/></g>
<g><path style="opacity:1" fill="#0e4885" d="M 1148.5,157.5 C 1150.5,157.5 1152.5,157.5 1154.5,157.5C 1154.5,167.833 1154.5,178.167 1154.5,188.5C 1152.83,188.5 1151.17,188.5 1149.5,188.5C 1149.67,181.492 1149.5,174.492 1149,167.5C 1146.07,174.126 1143.24,180.792 1140.5,187.5C 1138.95,188.452 1137.29,188.785 1135.5,188.5C 1133.45,182.064 1131.12,175.731 1128.5,169.5C 1128.01,168.527 1127.51,167.527 1127,166.5C 1126.5,173.826 1126.33,181.159 1126.5,188.5C 1124.83,188.5 1123.17,188.5 1121.5,188.5C 1121.5,178.167 1121.5,167.833 1121.5,157.5C 1124.12,157.232 1126.62,157.565 1129,158.5C 1132,165.5 1135,172.5 1138,179.5C 1141.26,171.985 1144.76,164.652 1148.5,157.5 Z"/></g>
<g><path style="opacity:1" fill="#044583" d="M 1163.5,157.5 C 1165.17,157.5 1166.83,157.5 1168.5,157.5C 1168.5,159.167 1168.5,160.833 1168.5,162.5C 1168.5,160.833 1168.5,159.167 1168.5,157.5C 1166.83,157.5 1165.17,157.5 1163.5,157.5 Z"/></g>
<g><path style="opacity:1" fill="#114986" d="M 1192.5,157.5 C 1194.17,157.5 1195.83,157.5 1197.5,157.5C 1197.5,167.833 1197.5,178.167 1197.5,188.5C 1195.23,188.859 1193.4,188.192 1192,186.5C 1184.96,190.346 1179.62,188.679 1176,181.5C 1174.17,174.345 1176.33,168.845 1182.5,165C 1185.92,164.107 1189.08,164.607 1192,166.5C 1192.5,163.518 1192.66,160.518 1192.5,157.5 Z"/></g>
<g><path style="opacity:1" fill="#054583" d="M 1238.5,157.5 C 1238.5,167.833 1238.5,178.167 1238.5,188.5C 1236.83,188.5 1235.17,188.5 1233.5,188.5C 1233.5,178.167 1233.5,167.833 1233.5,157.5C 1235.17,157.5 1236.83,157.5 1238.5,157.5 Z"/></g>
<g><path style="opacity:1" fill="#82a3c1" d="M 1301.5,157.5 C 1296.83,157.5 1292.17,157.5 1287.5,157.5C 1287.5,167.833 1287.5,178.167 1287.5,188.5C 1286.51,178.013 1286.17,167.346 1286.5,156.5C 1291.69,156.179 1296.69,156.513 1301.5,157.5 Z"/></g>
<g><path style="opacity:1" fill="#124986" d="M 1379.5,157.5 C 1379.5,160.167 1379.5,162.833 1379.5,165.5C 1381.17,165.5 1382.83,165.5 1384.5,165.5C 1384.5,166.833 1384.5,168.167 1384.5,169.5C 1382.83,169.5 1381.17,169.5 1379.5,169.5C 1379.18,174.032 1379.52,178.366 1380.5,182.5C 1381.92,183.451 1383.59,183.784 1385.5,183.5C 1385.5,185.167 1385.5,186.833 1385.5,188.5C 1382.22,188.784 1379.06,188.451 1376,187.5C 1374.6,181.956 1374.1,176.29 1374.5,170.5C 1373.17,170.5 1371.83,170.5 1370.5,170.5C 1370.5,168.5 1370.5,166.5 1370.5,164.5C 1371.83,164.5 1373.17,164.5 1374.5,164.5C 1373.49,160.187 1375.15,157.854 1379.5,157.5 Z"/></g>
<g><path style="opacity:1" fill="#074583" d="M 1718.5,157.5 C 1718.5,166.167 1718.5,174.833 1718.5,183.5C 1723.17,183.5 1727.83,183.5 1732.5,183.5C 1732.5,185.167 1732.5,186.833 1732.5,188.5C 1726.17,188.5 1719.83,188.5 1713.5,188.5C 1713.5,178.167 1713.5,167.833 1713.5,157.5C 1715.17,157.5 1716.83,157.5 1718.5,157.5 Z"/></g>
<g><path style="opacity:1" fill="#054583" d="M 1744.5,157.5 C 1744.5,159.167 1744.5,160.833 1744.5,162.5C 1742.83,162.5 1741.17,162.5 1739.5,162.5C 1739.5,160.833 1739.5,159.167 1739.5,157.5C 1741.17,157.5 1742.83,157.5 1744.5,157.5 Z"/></g>
<g><path style="opacity:1" fill="#054583" d="M 1800.5,157.5 C 1800.5,159.167 1800.5,160.833 1800.5,162.5C 1798.83,162.5 1797.17,162.5 1795.5,162.5C 1795.5,160.833 1795.5,159.167 1795.5,157.5C 1797.17,157.5 1798.83,157.5 1800.5,157.5 Z"/></g>
<g><path style="opacity:1" fill="#134a87" d="M 1806.5,170.5 C 1806.5,168.833 1806.5,167.167 1806.5,165.5C 1807.79,165.737 1808.79,165.404 1809.5,164.5C 1808.63,159.706 1810.63,157.373 1815.5,157.5C 1815.5,160.167 1815.5,162.833 1815.5,165.5C 1817.17,165.5 1818.83,165.5 1820.5,165.5C 1820.5,167.167 1820.5,168.833 1820.5,170.5C 1818.83,170.5 1817.17,170.5 1815.5,170.5C 1815.5,174.833 1815.5,179.167 1815.5,183.5C 1817.17,183.5 1818.83,183.5 1820.5,183.5C 1820.5,185.167 1820.5,186.833 1820.5,188.5C 1817.22,188.784 1814.06,188.451 1811,187.5C 1809.6,181.956 1809.1,176.29 1809.5,170.5C 1808.5,170.5 1807.5,170.5 1806.5,170.5 Z"/></g>
<g><path style="opacity:1" fill="#114986" d="M 1868.5,157.5 C 1870.17,157.5 1871.83,157.5 1873.5,157.5C 1873.5,167.833 1873.5,178.167 1873.5,188.5C 1868.25,188.128 1862.92,187.961 1857.5,188C 1849.96,181.005 1849.63,173.671 1856.5,166C 1860.42,164.013 1864.25,164.179 1868,166.5C 1868.5,163.518 1868.66,160.518 1868.5,157.5 Z"/></g>
<g><path style="opacity:1" fill="#0c4784" d="M 465.5,157.5 C 465.5,160.167 465.5,162.833 465.5,165.5C 467.167,165.5 468.833,165.5 470.5,165.5C 470.5,166.833 470.5,168.167 470.5,169.5C 468.833,169.5 467.167,169.5 465.5,169.5C 465.181,174.363 465.514,179.03 466.5,183.5C 468.167,183.5 469.833,183.5 471.5,183.5C 471.5,185.167 471.5,186.833 471.5,188.5C 468.482,188.665 465.482,188.498 462.5,188C 462,187.5 461.5,187 461,186.5C 460.501,181.177 460.334,175.844 460.5,170.5C 459.167,170.5 457.833,170.5 456.5,170.5C 456.5,168.833 456.5,167.167 456.5,165.5C 457.833,165.5 459.167,165.5 460.5,165.5C 459.342,160.891 461.009,158.224 465.5,157.5 Z"/></g>
<g><path style="opacity:1" fill="#0f4885" d="M 530.5,165.5 C 531.833,165.5 533.167,165.5 534.5,165.5C 534.5,163.5 534.5,161.5 534.5,159.5C 535.641,158.661 536.974,157.994 538.5,157.5C 539.48,160.086 539.813,162.753 539.5,165.5C 541.167,165.5 542.833,165.5 544.5,165.5C 544.5,167.167 544.5,168.833 544.5,170.5C 542.833,170.5 541.167,170.5 539.5,170.5C 539.5,174.833 539.5,179.167 539.5,183.5C 543.938,182.425 545.938,184.092 545.5,188.5C 542.102,188.82 538.768,188.487 535.5,187.5C 534.546,181.896 534.212,176.229 534.5,170.5C 533.167,170.5 531.833,170.5 530.5,170.5C 530.5,168.833 530.5,167.167 530.5,165.5 Z"/></g>
<g><path style="opacity:1" fill="#0a4684" d="M 612.5,157.5 C 617.908,163.976 622.575,170.976 626.5,178.5C 626.56,179.043 626.893,179.376 627.5,179.5C 628.497,172.197 628.831,164.863 628.5,157.5C 630.167,157.5 631.833,157.5 633.5,157.5C 633.5,167.833 633.5,178.167 633.5,188.5C 631.208,188.756 629.041,188.423 627,187.5C 621.98,180.783 617.48,173.783 613.5,166.5C 613.44,165.957 613.107,165.624 612.5,165.5C 611.503,173.138 611.169,180.804 611.5,188.5C 610.167,188.5 608.833,188.5 607.5,188.5C 607.5,178.167 607.5,167.833 607.5,157.5C 609.167,157.5 610.833,157.5 612.5,157.5 Z"/></g>
<g><path style="opacity:1" fill="#134a86" d="M 694.5,164.5 C 695.919,165.451 697.585,165.784 699.5,165.5C 699.5,167.167 699.5,168.833 699.5,170.5C 697.833,170.5 696.167,170.5 694.5,170.5C 694.5,174.833 694.5,179.167 694.5,183.5C 696.5,183.5 698.5,183.5 700.5,183.5C 700.5,185.167 700.5,186.833 700.5,188.5C 697.482,188.665 694.482,188.498 691.5,188C 691,187.5 690.5,187 690,186.5C 689.501,181.177 689.334,175.844 689.5,170.5C 688.167,170.5 686.833,170.5 685.5,170.5C 685.5,168.5 685.5,166.5 685.5,164.5C 686.833,164.5 688.167,164.5 689.5,164.5C 689.5,162.5 689.5,160.5 689.5,158.5C 690.93,158.579 692.264,158.246 693.5,157.5C 694.474,159.743 694.808,162.076 694.5,164.5 Z"/></g>
<g><path style="opacity:1" fill="#82a2c1" d="M 1238.5,157.5 C 1236.83,157.5 1235.17,157.5 1233.5,157.5C 1233.5,167.833 1233.5,178.167 1233.5,188.5C 1232.51,178.013 1232.17,167.346 1232.5,156.5C 1234.74,156.205 1236.74,156.539 1238.5,157.5 Z"/></g>
<g><path style="opacity:1" fill="#1d508b" d="M 1616.5,164.5 C 1617.57,165.434 1618.9,165.768 1620.5,165.5C 1620.5,166.833 1620.5,168.167 1620.5,169.5C 1618.9,169.232 1617.57,169.566 1616.5,170.5C 1616.5,174.833 1616.5,179.167 1616.5,183.5C 1618.17,183.5 1619.83,183.5 1621.5,183.5C 1621.5,185.167 1621.5,186.833 1621.5,188.5C 1618.22,188.784 1615.06,188.451 1612,187.5C 1610.6,181.956 1610.1,176.29 1610.5,170.5C 1609.17,170.5 1607.83,170.5 1606.5,170.5C 1606.5,168.5 1606.5,166.5 1606.5,164.5C 1607.83,164.5 1609.17,164.5 1610.5,164.5C 1609.63,159.706 1611.63,157.373 1616.5,157.5C 1616.5,159.833 1616.5,162.167 1616.5,164.5 Z"/></g>
<g><path style="opacity:1" fill="#6188b0" d="M 1628.5,156.5 C 1630.5,156.5 1632.5,156.5 1634.5,156.5C 1634.5,158.833 1634.5,161.167 1634.5,163.5C 1632.5,163.5 1630.5,163.5 1628.5,163.5C 1628.5,161.167 1628.5,158.833 1628.5,156.5 Z"/></g>
<g><path style="opacity:1" fill="#054583" d="M 1629.5,157.5 C 1630.83,157.5 1632.17,157.5 1633.5,157.5C 1633.5,159.167 1633.5,160.833 1633.5,162.5C 1632.17,162.5 1630.83,162.5 1629.5,162.5C 1629.5,160.833 1629.5,159.167 1629.5,157.5 Z"/></g>
<g><path style="opacity:1" fill="#82a2c1" d="M 1718.5,157.5 C 1716.83,157.5 1715.17,157.5 1713.5,157.5C 1713.5,167.833 1713.5,178.167 1713.5,188.5C 1712.51,178.013 1712.17,167.346 1712.5,156.5C 1714.74,156.205 1716.74,156.539 1718.5,157.5 Z"/></g>
<g><path style="opacity:1" fill="#84a4c2" d="M 291.5,157.5 C 293.265,156.539 295.265,156.205 297.5,156.5C 297.795,158.735 297.461,160.735 296.5,162.5C 296.5,160.833 296.5,159.167 296.5,157.5C 294.833,157.5 293.167,157.5 291.5,157.5 Z"/></g>
<g><path style="opacity:1" fill="#82a2c1" d="M 483.5,157.5 C 481.833,157.5 480.167,157.5 478.5,157.5C 478.5,167.833 478.5,178.167 478.5,188.5C 477.506,178.013 477.172,167.346 477.5,156.5C 479.735,156.205 481.735,156.539 483.5,157.5 Z"/></g>
<g><path style="opacity:1" fill="#82a2c1" d="M 1148.5,157.5 C 1150.61,156.532 1152.94,156.198 1155.5,156.5C 1155.83,167.346 1155.49,178.013 1154.5,188.5C 1154.5,178.167 1154.5,167.833 1154.5,157.5C 1152.5,157.5 1150.5,157.5 1148.5,157.5 Z"/></g>
<g><path style="opacity:1" fill="#84a4c2" d="M 1163.5,157.5 C 1165.26,156.539 1167.26,156.205 1169.5,156.5C 1169.79,158.735 1169.46,160.735 1168.5,162.5C 1168.5,160.833 1168.5,159.167 1168.5,157.5C 1166.83,157.5 1165.17,157.5 1163.5,157.5 Z"/></g>
<g><path style="opacity:1" fill="#0b6399" d="M 62.5,160.5 C 67.5,160.5 72.5,160.5 77.5,160.5C 77.5,162.167 77.5,163.833 77.5,165.5C 72.8333,165.5 68.1667,165.5 63.5,165.5C 63.3713,163.784 63.038,162.117 62.5,160.5 Z"/></g>
<g><path style="opacity:1" fill="#fafefd" d="M 78.5,160.5 C 80.288,160.215 81.9547,160.548 83.5,161.5C 82.9879,164.351 81.3213,165.684 78.5,165.5C 78.5,163.833 78.5,162.167 78.5,160.5 Z"/></g>
<g><path style="opacity:1" fill="#1a9cb6" d="M 102.5,161.5 C 102.5,161.167 102.5,160.833 102.5,160.5C 107.695,160.179 112.695,160.513 117.5,161.5C 117.5,162.167 117.167,162.5 116.5,162.5C 112.03,161.514 107.363,161.181 102.5,161.5 Z"/></g>
<g><path style="opacity:1" fill="#668cb3" d="M 1744.5,157.5 C 1742.83,157.5 1741.17,157.5 1739.5,157.5C 1739.5,159.167 1739.5,160.833 1739.5,162.5C 1741.17,162.5 1742.83,162.5 1744.5,162.5C 1742.74,163.461 1740.74,163.795 1738.5,163.5C 1738.5,161.167 1738.5,158.833 1738.5,156.5C 1740.74,156.205 1742.74,156.539 1744.5,157.5 Z"/></g>
<g><path style="opacity:1" fill="#668cb3" d="M 1800.5,157.5 C 1798.83,157.5 1797.17,157.5 1795.5,157.5C 1795.5,159.167 1795.5,160.833 1795.5,162.5C 1797.17,162.5 1798.83,162.5 1800.5,162.5C 1798.74,163.461 1796.74,163.795 1794.5,163.5C 1794.5,161.167 1794.5,158.833 1794.5,156.5C 1796.74,156.205 1798.74,156.539 1800.5,157.5 Z"/></g>
<g><path style="opacity:1" fill="#02649a" d="M 95.5,161.5 C 95.5,164.167 95.5,166.833 95.5,169.5C 93.5,173.5 90.5,176.5 86.5,178.5C 85.5386,176.735 85.2053,174.735 85.5,172.5C 89.5343,169.401 92.8676,165.734 95.5,161.5 Z"/></g>
<g><path style="opacity:1" fill="#006098" d="M 102.5,161.5 C 107.363,161.181 112.03,161.514 116.5,162.5C 116.5,163.5 116.5,164.5 116.5,165.5C 111.833,165.5 107.167,165.5 102.5,165.5C 102.5,164.167 102.5,162.833 102.5,161.5 Z"/></g>
<g><path style="opacity:1" fill="#104885" d="M 820.5,185.5 C 820.5,180.167 820.5,174.833 820.5,169.5C 819.167,169.5 817.833,169.5 816.5,169.5C 816.5,168.167 816.5,166.833 816.5,165.5C 817.833,165.5 819.167,165.5 820.5,165.5C 820.5,163.5 820.5,161.5 820.5,159.5C 821.78,158.069 823.447,157.402 825.5,157.5C 825.5,160.167 825.5,162.833 825.5,165.5C 827.167,165.5 828.833,165.5 830.5,165.5C 830.5,167.167 830.5,168.833 830.5,170.5C 828.833,170.5 827.167,170.5 825.5,170.5C 825.5,174.833 825.5,179.167 825.5,183.5C 829.938,182.425 831.938,184.092 831.5,188.5C 828.482,188.665 825.482,188.498 822.5,188C 821.244,187.583 820.577,186.75 820.5,185.5 Z"/></g>
<g><path style="opacity:1" fill="#f8f9fb" d="M 909.5,162.5 C 913.079,162.911 915.246,164.911 916,168.5C 917.986,179.347 913.486,184.347 902.5,183.5C 902.5,176.5 902.5,169.5 902.5,162.5C 904.833,162.5 907.167,162.5 909.5,162.5 Z"/></g>
<g><path style="opacity:1" fill="#81a2c1" d="M 268.5,157.5 C 266.833,157.5 265.167,157.5 263.5,157.5C 263.5,167.833 263.5,178.167 263.5,188.5C 262.506,178.013 262.172,167.346 262.5,156.5C 264.735,156.205 266.735,156.539 268.5,157.5 Z"/></g>
<g><path style="opacity:1" fill="#134a86" d="M 268.5,157.5 C 268.183,160.572 268.516,163.572 269.5,166.5C 274.99,163.211 279.49,164.211 283,169.5C 283.5,175.825 283.666,182.158 283.5,188.5C 281.5,188.5 279.5,188.5 277.5,188.5C 277.666,182.491 277.499,176.491 277,170.5C 273.794,168.876 271.128,169.542 269,172.5C 268.501,177.823 268.334,183.156 268.5,188.5C 266.833,188.5 265.167,188.5 263.5,188.5C 263.5,178.167 263.5,167.833 263.5,157.5C 265.167,157.5 266.833,157.5 268.5,157.5 Z"/></g>
<g><path style="opacity:1" fill="#154b87" d="M 305.5,188.5 C 305.5,180.833 305.5,173.167 305.5,165.5C 307.167,165.5 308.833,165.5 310.5,165.5C 310.435,165.938 310.601,166.272 311,166.5C 316.154,163.581 320.821,164.247 325,168.5C 326.42,175.05 326.92,181.716 326.5,188.5C 324.5,188.5 322.5,188.5 320.5,188.5C 320.666,182.824 320.499,177.157 320,171.5C 316.661,168.701 313.661,169.034 311,172.5C 310.501,177.823 310.334,183.156 310.5,188.5C 308.833,188.5 307.167,188.5 305.5,188.5 Z"/></g>
<g><path style="opacity:1" fill="#0d4785" d="M 483.5,157.5 C 483.183,160.572 483.516,163.572 484.5,166.5C 489.99,163.211 494.49,164.211 498,169.5C 498.5,175.825 498.666,182.158 498.5,188.5C 496.833,188.5 495.167,188.5 493.5,188.5C 493.861,182.407 493.361,176.407 492,170.5C 488.794,168.876 486.128,169.542 484,172.5C 483.501,177.823 483.334,183.156 483.5,188.5C 481.833,188.5 480.167,188.5 478.5,188.5C 478.5,178.167 478.5,167.833 478.5,157.5C 480.167,157.5 481.833,157.5 483.5,157.5 Z"/></g>
<g><path style="opacity:1" fill="#789bbc" d="M 534.5,159.5 C 534.5,161.5 534.5,163.5 534.5,165.5C 533.167,165.5 531.833,165.5 530.5,165.5C 531.209,164.596 532.209,164.263 533.5,164.5C 533.216,162.585 533.549,160.919 534.5,159.5 Z"/></g>
<g><path style="opacity:1" fill="#82a3c1" d="M 668.5,165.5 C 670.726,164.244 673.059,164.244 675.5,165.5C 673.412,165.865 671.079,165.865 668.5,165.5 Z"/></g>
<g><path style="opacity:1" fill="#799bbc" d="M 820.5,159.5 C 820.5,161.5 820.5,163.5 820.5,165.5C 819.167,165.5 817.833,165.5 816.5,165.5C 817.209,164.596 818.209,164.263 819.5,164.5C 819.216,162.585 819.549,160.919 820.5,159.5 Z"/></g>
<g><path style="opacity:1" fill="#83a3c1" d="M 862.5,165.5 C 864.726,164.244 867.059,164.244 869.5,165.5C 867.412,165.865 865.079,165.865 862.5,165.5 Z"/></g>
<g><path style="opacity:1" fill="#7ea0bf" d="M 909.5,162.5 C 907.167,162.5 904.833,162.5 902.5,162.5C 902.5,169.5 902.5,176.5 902.5,183.5C 901.508,176.352 901.175,169.019 901.5,161.5C 904.385,161.194 907.052,161.527 909.5,162.5 Z"/></g>
<g><path style="opacity:1" fill="#124986" d="M 1220.5,157.5 C 1222.17,157.5 1223.83,157.5 1225.5,157.5C 1225.5,167.833 1225.5,178.167 1225.5,188.5C 1223.23,188.859 1221.4,188.192 1220,186.5C 1211.67,190.88 1206.33,188.547 1204,179.5C 1203.22,167.267 1208.55,162.934 1220,166.5C 1220.5,163.518 1220.66,160.518 1220.5,157.5 Z"/></g>
<g><path style="opacity:1" fill="#144a87" d="M 1468.5,164.5 C 1480.82,164.332 1485.66,170.332 1483,182.5C 1481.83,185 1480,186.833 1477.5,188C 1464.65,190.658 1459.15,185.491 1461,172.5C 1462.35,168.65 1464.85,165.983 1468.5,164.5 Z"/></g>
<g><path style="opacity:1" fill="#83a3c1" d="M 1489.5,165.5 C 1491.73,164.244 1494.06,164.244 1496.5,165.5C 1494.41,165.865 1492.08,165.865 1489.5,165.5 Z"/></g>
<g><path style="opacity:1" fill="#8eacc7" d="M 1508.5,165.5 C 1510.73,164.244 1513.06,164.244 1515.5,165.5C 1513.41,165.865 1511.08,165.865 1508.5,165.5 Z"/></g>
<g><path style="opacity:1" fill="#184c88" d="M 1508.5,165.5 C 1511.08,165.865 1513.41,165.865 1515.5,165.5C 1524.67,163.084 1529.67,166.584 1530.5,176C 1530.39,186.785 1525.22,190.618 1515,187.5C 1514.5,190.146 1514.34,192.813 1514.5,195.5C 1512.5,195.5 1510.5,195.5 1508.5,195.5C 1508.5,185.5 1508.5,175.5 1508.5,165.5 Z"/></g>
<g><path style="opacity:1" fill="#1b4e89" d="M 1542.5,164.5 C 1554.34,163.506 1559.51,168.839 1558,180.5C 1556.54,186.399 1552.7,189.399 1546.5,189.5C 1540.68,189.175 1537.18,186.175 1536,180.5C 1534.06,173.389 1536.23,168.056 1542.5,164.5 Z"/></g>
<g><path style="opacity:1" fill="#184c88" d="M 1648.5,164.5 C 1654.73,163.373 1659.57,165.373 1663,170.5C 1665.84,184.654 1660.34,190.487 1646.5,188C 1638.06,179.202 1638.72,171.369 1648.5,164.5 Z"/></g>
<g><path style="opacity:1" fill="#3b8db2" d="M 77.5,160.5 C 77.8333,160.5 78.1667,160.5 78.5,160.5C 78.5,162.167 78.5,163.833 78.5,165.5C 73.6946,166.487 68.6946,166.821 63.5,166.5C 63.5,166.167 63.5,165.833 63.5,165.5C 68.1667,165.5 72.8333,165.5 77.5,165.5C 77.5,163.833 77.5,162.167 77.5,160.5 Z"/></g>
<g><path style="opacity:1" fill="#054582" d="M 291.5,165.5 C 293.167,165.5 294.833,165.5 296.5,165.5C 296.5,173.167 296.5,180.833 296.5,188.5C 294.833,188.5 293.167,188.5 291.5,188.5C 291.5,180.833 291.5,173.167 291.5,165.5 Z"/></g>
<g><path style="opacity:1" fill="#144a87" d="M 797.5,164.5 C 802.39,163.784 806.556,165.117 810,168.5C 810.333,173.833 810.667,179.167 811,184.5C 813.451,187.03 812.951,188.363 809.5,188.5C 807.956,188.21 806.623,187.544 805.5,186.5C 801.3,189.136 797.133,189.136 793,186.5C 790.46,181.903 791.293,178.07 795.5,175C 798.864,174.273 802.197,173.44 805.5,172.5C 802.173,168.403 799.173,168.737 796.5,173.5C 794.667,172.948 793,172.115 791.5,171C 793.027,168.31 795.027,166.143 797.5,164.5 Z"/></g>
<g><path style="opacity:1" fill="#054583" d="M 929.5,165.5 C 931.167,165.5 932.833,165.5 934.5,165.5C 934.5,173.167 934.5,180.833 934.5,188.5C 932.833,188.5 931.167,188.5 929.5,188.5C 929.5,180.833 929.5,173.167 929.5,165.5 Z"/></g>
<g><path style="opacity:1" fill="#4f7ba8" d="M 999.5,165.5 C 997.833,165.5 996.167,165.5 994.5,165.5C 994.5,173.167 994.5,180.833 994.5,188.5C 993.508,180.684 993.174,172.684 993.5,164.5C 995.735,164.205 997.735,164.539 999.5,165.5 Z"/></g>
<g><path style="opacity:1" fill="#054583" d="M 1037.5,165.5 C 1039.17,165.5 1040.83,165.5 1042.5,165.5C 1042.5,173.167 1042.5,180.833 1042.5,188.5C 1040.83,188.5 1039.17,188.5 1037.5,188.5C 1037.5,180.833 1037.5,173.167 1037.5,165.5 Z"/></g>
<g><path style="opacity:1" fill="#b7c9dc" d="M 1037.5,165.5 C 1039.26,164.539 1041.26,164.205 1043.5,164.5C 1043.83,172.684 1043.49,180.684 1042.5,188.5C 1042.5,180.833 1042.5,173.167 1042.5,165.5C 1040.83,165.5 1039.17,165.5 1037.5,165.5 Z"/></g>
<g><path style="opacity:1" fill="#0a4784" d="M 1086.5,164.5 C 1090.84,163.846 1094.67,164.846 1098,167.5C 1099.42,174.385 1099.92,181.385 1099.5,188.5C 1097.83,188.5 1096.17,188.5 1094.5,188.5C 1094.67,182.824 1094.5,177.157 1094,171.5C 1089.88,168.408 1086.55,169.075 1084,173.5C 1083.5,178.489 1083.33,183.489 1083.5,188.5C 1081.83,188.5 1080.17,188.5 1078.5,188.5C 1078.5,180.833 1078.5,173.167 1078.5,165.5C 1080.59,165.318 1082.59,165.652 1084.5,166.5C 1085.52,166.145 1086.19,165.478 1086.5,164.5 Z"/></g>
<g><path style="opacity:1" fill="#054582" d="M 1163.5,165.5 C 1165.17,165.5 1166.83,165.5 1168.5,165.5C 1168.5,173.167 1168.5,180.833 1168.5,188.5C 1166.83,188.5 1165.17,188.5 1163.5,188.5C 1163.5,180.833 1163.5,173.167 1163.5,165.5 Z"/></g>
<g><path style="opacity:1" fill="#154b87" d="M 1252.5,164.5 C 1262.19,164.186 1266.85,168.853 1266.5,178.5C 1261.5,178.5 1256.5,178.5 1251.5,178.5C 1252.17,183.151 1254.84,184.651 1259.5,183C 1261.63,179.713 1263.63,179.713 1265.5,183C 1262.9,188.464 1258.57,190.464 1252.5,189C 1250.71,188.215 1249.21,187.049 1248,185.5C 1246.45,180.618 1246.11,175.618 1247,170.5C 1248.36,167.977 1250.19,165.977 1252.5,164.5 Z"/></g>
<g><path style="opacity:1" fill="#1a4d88" d="M 1322.5,164.5 C 1336.78,164.007 1341.61,170.674 1337,184.5C 1328.77,191.786 1321.77,190.786 1316,181.5C 1314.56,174.317 1316.72,168.65 1322.5,164.5 Z"/></g>
<g><path style="opacity:1" fill="#184c88" d="M 1397.5,164.5 C 1407.12,164.117 1411.78,168.784 1411.5,178.5C 1406.5,178.5 1401.5,178.5 1396.5,178.5C 1396.49,181.822 1398.16,183.489 1401.5,183.5C 1403.68,182.754 1405.68,181.754 1407.5,180.5C 1411.15,181.893 1411.48,184.06 1408.5,187C 1395.34,191.527 1389.51,186.694 1391,172.5C 1392.3,169.039 1394.47,166.372 1397.5,164.5 Z"/></g>
<g><path style="opacity:1" fill="#1d4d89" d="M 1489.5,165.5 C 1492.08,165.865 1494.41,165.865 1496.5,165.5C 1499.45,163.787 1501.78,164.287 1503.5,167C 1503.26,167.873 1502.93,168.707 1502.5,169.5C 1500.31,170.221 1498.15,170.887 1496,171.5C 1495.5,177.157 1495.33,182.824 1495.5,188.5C 1493.5,188.5 1491.5,188.5 1489.5,188.5C 1489.5,180.833 1489.5,173.167 1489.5,165.5 Z"/></g>
<g><path style="opacity:1" fill="#074683" d="M 1571.5,164.5 C 1574.16,164.162 1576.49,164.829 1578.5,166.5C 1577.42,170.374 1575.09,171.541 1571.5,170C 1570.87,170.75 1570.37,171.584 1570,172.5C 1569.5,177.823 1569.33,183.156 1569.5,188.5C 1567.83,188.5 1566.17,188.5 1564.5,188.5C 1564.5,180.833 1564.5,173.167 1564.5,165.5C 1566.47,165.261 1568.3,165.594 1570,166.5C 1570.72,165.956 1571.22,165.289 1571.5,164.5 Z"/></g>
<g><path style="opacity:1" fill="#184c88" d="M 1588.5,164.5 C 1592.84,163.846 1596.67,164.846 1600,167.5C 1601.25,173.39 1601.91,179.39 1602,185.5C 1602.69,186.025 1603.19,186.692 1603.5,187.5C 1599.02,187.523 1594.52,187.856 1590,188.5C 1582.78,188.068 1580.61,184.401 1583.5,177.5C 1586.93,174.638 1590.93,173.305 1595.5,173.5C 1595.92,171.052 1594.92,169.719 1592.5,169.5C 1590.26,170.071 1588.59,171.404 1587.5,173.5C 1585.94,172.926 1584.44,172.26 1583,171.5C 1583.8,168.51 1585.64,166.177 1588.5,164.5 Z"/></g>
<g><path style="opacity:1" fill="#5781ac" d="M 1616.5,164.5 C 1618.17,164.5 1619.83,164.5 1621.5,164.5C 1621.5,166.5 1621.5,168.5 1621.5,170.5C 1619.83,170.5 1618.17,170.5 1616.5,170.5C 1617.57,169.566 1618.9,169.232 1620.5,169.5C 1620.5,168.167 1620.5,166.833 1620.5,165.5C 1618.9,165.768 1617.57,165.434 1616.5,164.5 Z"/></g>
<g><path style="opacity:1" fill="#4c79a6" d="M 1633.5,188.5 C 1633.5,180.833 1633.5,173.167 1633.5,165.5C 1632.17,165.5 1630.83,165.5 1629.5,165.5C 1629.5,173.167 1629.5,180.833 1629.5,188.5C 1628.51,180.684 1628.17,172.684 1628.5,164.5C 1630.5,164.5 1632.5,164.5 1634.5,164.5C 1634.83,172.684 1634.49,180.684 1633.5,188.5 Z"/></g>
<g><path style="opacity:1" fill="#4f7ba8" d="M 1744.5,165.5 C 1742.83,165.5 1741.17,165.5 1739.5,165.5C 1739.5,173.167 1739.5,180.833 1739.5,188.5C 1738.51,180.684 1738.17,172.684 1738.5,164.5C 1740.74,164.205 1742.74,164.539 1744.5,165.5 Z"/></g>
<g><path style="opacity:1" fill="#054483" d="M 1744.5,165.5 C 1744.5,173.167 1744.5,180.833 1744.5,188.5C 1742.83,188.5 1741.17,188.5 1739.5,188.5C 1739.5,180.833 1739.5,173.167 1739.5,165.5C 1741.17,165.5 1742.83,165.5 1744.5,165.5 Z"/></g>
<g><path style="opacity:1" fill="#0f4885" d="M 1761.5,164.5 C 1765.31,164.02 1768.64,165.02 1771.5,167.5C 1776.65,163.276 1781.49,163.61 1786,168.5C 1786.5,175.158 1786.67,181.825 1786.5,188.5C 1784.83,188.5 1783.17,188.5 1781.5,188.5C 1781.67,182.824 1781.5,177.157 1781,171.5C 1778.03,168.735 1775.37,169.068 1773,172.5C 1772.5,177.823 1772.33,183.156 1772.5,188.5C 1770.83,188.5 1769.17,188.5 1767.5,188.5C 1767.67,183.156 1767.5,177.823 1767,172.5C 1764.82,168.935 1762.16,168.601 1759,171.5C 1758.5,177.157 1758.33,182.824 1758.5,188.5C 1756.5,188.5 1754.5,188.5 1752.5,188.5C 1752.5,180.833 1752.5,173.167 1752.5,165.5C 1754.79,165.244 1756.96,165.577 1759,166.5C 1759.99,165.934 1760.83,165.267 1761.5,164.5 Z"/></g>
<g><path style="opacity:1" fill="#4f7ba8" d="M 1800.5,165.5 C 1798.83,165.5 1797.17,165.5 1795.5,165.5C 1795.5,173.167 1795.5,180.833 1795.5,188.5C 1794.51,180.684 1794.17,172.684 1794.5,164.5C 1796.74,164.205 1798.74,164.539 1800.5,165.5 Z"/></g>
<g><path style="opacity:1" fill="#054483" d="M 1800.5,165.5 C 1800.5,173.167 1800.5,180.833 1800.5,188.5C 1798.83,188.5 1797.17,188.5 1795.5,188.5C 1795.5,180.833 1795.5,173.167 1795.5,165.5C 1797.17,165.5 1798.83,165.5 1800.5,165.5 Z"/></g>
<g><path style="opacity:1" fill="#154b87" d="M 1846.5,178.5 C 1841.5,178.5 1836.5,178.5 1831.5,178.5C 1831.26,179.791 1831.6,180.791 1832.5,181.5C 1833.31,182.993 1834.65,183.66 1836.5,183.5C 1838.98,183.89 1840.32,182.89 1840.5,180.5C 1841.5,180.5 1842.5,180.5 1843.5,180.5C 1844.47,180.987 1845.47,181.487 1846.5,182C 1841.77,190.428 1835.61,191.594 1828,185.5C 1825.29,178.395 1826.13,171.895 1830.5,166C 1841.49,162.814 1846.82,166.981 1846.5,178.5 Z"/></g>
<g><path style="opacity:1" fill="#164b87" d="M 408.5,164.5 C 422.684,164.2 427.517,170.867 423,184.5C 421.786,186.049 420.286,187.215 418.5,188C 405.888,190.388 400.388,185.221 402,172.5C 403.305,169.039 405.471,166.372 408.5,164.5 Z"/></g>
<g><path style="opacity:1" fill="#0d4784" d="M 436.5,165.5 C 436.334,171.176 436.501,176.843 437,182.5C 439.401,183.602 441.901,183.769 444.5,183C 445.126,182.25 445.626,181.416 446,180.5C 446.499,175.511 446.666,170.511 446.5,165.5C 448.167,165.5 449.833,165.5 451.5,165.5C 451.5,173.167 451.5,180.833 451.5,188.5C 449.234,188.859 447.401,188.192 446,186.5C 443.347,189.194 440.18,190.027 436.5,189C 433.921,187.924 432.254,186.091 431.5,183.5C 431.5,177.5 431.5,171.5 431.5,165.5C 433.167,165.5 434.833,165.5 436.5,165.5 Z"/></g>
<g><path style="opacity:1" fill="#82a3c1" d="M 446.5,165.5 C 448.265,164.539 450.265,164.205 452.5,164.5C 452.826,172.684 452.492,180.684 451.5,188.5C 451.5,180.833 451.5,173.167 451.5,165.5C 449.833,165.5 448.167,165.5 446.5,165.5 Z"/></g>
<g><path style="opacity:1" fill="#1c4d89" d="M 668.5,165.5 C 671.079,165.865 673.412,165.865 675.5,165.5C 677.288,164.378 679.288,164.211 681.5,165C 683.005,169.18 681.672,170.68 677.5,169.5C 676.522,169.977 675.689,170.643 675,171.5C 674.501,177.157 674.334,182.824 674.5,188.5C 672.5,188.5 670.5,188.5 668.5,188.5C 668.5,180.833 668.5,173.167 668.5,165.5 Z"/></g>
<g><path style="opacity:1" fill="#87a6c3" d="M 694.5,164.5 C 696.5,164.5 698.5,164.5 700.5,164.5C 700.795,166.735 700.461,168.735 699.5,170.5C 699.5,168.833 699.5,167.167 699.5,165.5C 697.585,165.784 695.919,165.451 694.5,164.5 Z"/></g>
<g><path style="opacity:1" fill="#144a86" d="M 856.5,178.5 C 851.5,178.5 846.5,178.5 841.5,178.5C 841.263,179.791 841.596,180.791 842.5,181.5C 843.312,182.993 844.645,183.66 846.5,183.5C 848.355,183.66 849.688,182.993 850.5,181.5C 851.222,181.082 851.722,180.416 852,179.5C 852.383,180.056 852.883,180.389 853.5,180.5C 856.989,182.226 856.989,184.392 853.5,187C 842.816,191.657 837.149,188.157 836.5,176.5C 837.727,165.445 843.393,162.279 853.5,167C 856.014,170.413 857.014,174.247 856.5,178.5 Z"/></g>
<g><path style="opacity:1" fill="#104986" d="M 994.5,188.5 C 994.5,180.833 994.5,173.167 994.5,165.5C 996.167,165.5 997.833,165.5 999.5,165.5C 999.435,165.938 999.601,166.272 1000,166.5C 1002.69,163.796 1005.19,163.963 1007.5,167C 1007.07,170.127 1005.57,170.961 1003,169.5C 1001.74,169.759 1000.74,170.426 1000,171.5C 999.501,177.157 999.334,182.824 999.5,188.5C 997.833,188.5 996.167,188.5 994.5,188.5 Z"/></g>
<g><path style="opacity:1" fill="#82a3c1" d="M 1360.5,165.5 C 1362.26,164.539 1364.26,164.205 1366.5,164.5C 1366.83,172.684 1366.49,180.684 1365.5,188.5C 1365.5,180.833 1365.5,173.167 1365.5,165.5C 1363.83,165.5 1362.17,165.5 1360.5,165.5 Z"/></g>
<g><path style="opacity:1" fill="#054483" d="M 1633.5,188.5 C 1632.17,188.5 1630.83,188.5 1629.5,188.5C 1629.5,180.833 1629.5,173.167 1629.5,165.5C 1630.83,165.5 1632.17,165.5 1633.5,165.5C 1633.5,173.167 1633.5,180.833 1633.5,188.5 Z"/></g>
<g><path style="opacity:1" fill="#89a8c5" d="M 1809.5,164.5 C 1808.79,165.404 1807.79,165.737 1806.5,165.5C 1806.5,167.167 1806.5,168.833 1806.5,170.5C 1805.54,168.735 1805.21,166.735 1805.5,164.5C 1806.83,164.5 1808.17,164.5 1809.5,164.5 Z"/></g>
<g><path style="opacity:1" fill="#1a4d88" d="M 557.5,164.5 C 569.189,163.556 574.356,168.889 573,180.5C 569.442,188.363 563.609,190.863 555.5,188C 549.819,181.876 548.986,175.042 553,167.5C 554.652,166.601 556.152,165.601 557.5,164.5 Z"/></g>
<g><path style="opacity:1" fill="#164b87" d="M 1056.5,164.5 C 1071.57,164.624 1076.07,171.624 1070,185.5C 1055.28,192.467 1048.61,187.801 1050,171.5C 1051.69,168.642 1053.86,166.309 1056.5,164.5 Z"/></g>
<g><path style="opacity:1" fill="#bacbdd" d="M 1128.5,169.5 C 1127.83,175.833 1127.17,182.167 1126.5,188.5C 1126.33,181.159 1126.5,173.826 1127,166.5C 1127.51,167.527 1128.01,168.527 1128.5,169.5 Z"/></g>
<g><path style="opacity:1" fill="#82a2c1" d="M 1675.5,165.5 C 1673.83,165.5 1672.17,165.5 1670.5,165.5C 1670.5,173.167 1670.5,180.833 1670.5,188.5C 1669.51,180.684 1669.17,172.684 1669.5,164.5C 1671.74,164.205 1673.74,164.539 1675.5,165.5 Z"/></g>
<g><path style="opacity:1" fill="#0f4885" d="M 1670.5,188.5 C 1670.5,180.833 1670.5,173.167 1670.5,165.5C 1672.17,165.5 1673.83,165.5 1675.5,165.5C 1675.43,165.938 1675.6,166.272 1676,166.5C 1681.87,163.242 1686.87,164.242 1691,169.5C 1691.5,175.825 1691.67,182.158 1691.5,188.5C 1689.5,188.5 1687.5,188.5 1685.5,188.5C 1685.67,182.491 1685.5,176.491 1685,170.5C 1681.47,168.81 1678.47,169.476 1676,172.5C 1675.5,177.823 1675.33,183.156 1675.5,188.5C 1673.83,188.5 1672.17,188.5 1670.5,188.5 Z"/></g>
<g><path style="opacity:1" fill="#134a86" d="M 337.5,164.5 C 342.39,163.784 346.556,165.117 350,168.5C 350.018,174.978 350.852,181.311 352.5,187.5C 349.932,188.868 347.599,188.534 345.5,186.5C 341.3,189.136 337.133,189.136 333,186.5C 330.399,181.498 331.566,177.665 336.5,175C 339.5,174.167 342.5,173.333 345.5,172.5C 342.173,168.403 339.173,168.737 336.5,173.5C 333.468,172.988 332.301,171.322 333,168.5C 334.397,166.93 335.897,165.596 337.5,164.5 Z"/></g>
<g><path style="opacity:1" fill="#f3f6f9" d="M 410.5,169.5 C 417.771,169.036 420.604,172.369 419,179.5C 416.947,183.292 413.781,184.458 409.5,183C 406.585,178.176 406.919,173.676 410.5,169.5 Z"/></g>
<g><path style="opacity:1" fill="#86a5c3" d="M 436.5,165.5 C 434.833,165.5 433.167,165.5 431.5,165.5C 431.5,171.5 431.5,177.5 431.5,183.5C 430.51,177.355 430.177,171.022 430.5,164.5C 432.735,164.205 434.735,164.539 436.5,165.5 Z"/></g>
<g><path style="opacity:1" fill="#658bb2" d="M 465.5,157.5 C 466.468,159.607 466.802,161.941 466.5,164.5C 468.167,164.5 469.833,164.5 471.5,164.5C 471.5,166.5 471.5,168.5 471.5,170.5C 469.833,170.5 468.167,170.5 466.5,170.5C 466.5,174.833 466.5,179.167 466.5,183.5C 465.514,179.03 465.181,174.363 465.5,169.5C 467.167,169.5 468.833,169.5 470.5,169.5C 470.5,168.167 470.5,166.833 470.5,165.5C 468.833,165.5 467.167,165.5 465.5,165.5C 465.5,162.833 465.5,160.167 465.5,157.5 Z"/></g>
<g><path style="opacity:1" fill="#f5f7f9" d="M 559.5,169.5 C 566.865,169.714 569.365,173.38 567,180.5C 562.837,184.747 559.171,184.414 556,179.5C 554.756,175.191 555.923,171.858 559.5,169.5 Z"/></g>
<g><path style="opacity:1" fill="#184c88" d="M 764.5,156.5 C 766.467,156.261 768.301,156.594 770,157.5C 771.845,164.545 773.845,171.545 776,178.5C 777.937,171.523 779.771,164.523 781.5,157.5C 783.5,156.167 785.5,156.167 787.5,157.5C 784.287,167.803 781.287,178.136 778.5,188.5C 776.833,188.5 775.167,188.5 773.5,188.5C 771.645,180.764 769.478,173.098 767,165.5C 764.118,172.977 761.952,180.643 760.5,188.5C 758.5,188.5 756.5,188.5 754.5,188.5C 752.378,178.178 749.711,168.011 746.5,158C 748.579,157.192 750.579,157.359 752.5,158.5C 754.331,165.156 756.164,171.823 758,178.5C 759.875,171.044 762.042,163.711 764.5,156.5 Z"/></g>
<g><path style="opacity:1" fill="#f4f7f9" d="M 850.5,172.5 C 847.833,173.833 845.167,173.833 842.5,172.5C 843.014,170.561 844.347,169.561 846.5,169.5C 848.653,169.561 849.986,170.561 850.5,172.5 Z"/></g>
<g><path style="opacity:1" fill="#f9fafc" d="M 1058.5,169.5 C 1065.81,169.666 1068.31,173.333 1066,180.5C 1065.63,181.416 1065.13,182.25 1064.5,183C 1055.99,184.471 1053.15,180.971 1056,172.5C 1057.04,171.627 1057.88,170.627 1058.5,169.5 Z"/></g>
<g><path style="opacity:1" fill="#f5f8fa" d="M 1260.5,173.5 C 1257.3,174.036 1254.64,173.369 1252.5,171.5C 1254.01,169.559 1256.01,169.059 1258.5,170C 1259.82,170.816 1260.49,171.983 1260.5,173.5 Z"/></g>
<g><path style="opacity:1" fill="#f2f5f8" d="M 1324.5,169.5 C 1332.1,169.334 1334.93,173.001 1333,180.5C 1330.44,183.349 1327.27,184.183 1323.5,183C 1320.59,178.176 1320.92,173.676 1324.5,169.5 Z"/></g>
<g><path style="opacity:1" fill="#6489b1" d="M 1379.5,157.5 C 1380.47,159.607 1380.8,161.941 1380.5,164.5C 1382.17,164.5 1383.83,164.5 1385.5,164.5C 1385.5,166.5 1385.5,168.5 1385.5,170.5C 1383.83,170.5 1382.17,170.5 1380.5,170.5C 1380.5,174.5 1380.5,178.5 1380.5,182.5C 1379.52,178.366 1379.18,174.032 1379.5,169.5C 1381.17,169.5 1382.83,169.5 1384.5,169.5C 1384.5,168.167 1384.5,166.833 1384.5,165.5C 1382.83,165.5 1381.17,165.5 1379.5,165.5C 1379.5,162.833 1379.5,160.167 1379.5,157.5 Z"/></g>
<g><path style="opacity:1" fill="#dde5ee" d="M 1398.5,169.5 C 1402.85,168.533 1405.18,170.2 1405.5,174.5C 1402.5,174.5 1399.5,174.5 1396.5,174.5C 1396.39,172.486 1397.06,170.82 1398.5,169.5 Z"/></g>
<g><path style="opacity:1" fill="#f3f6f9" d="M 1469.5,169.5 C 1476.77,169.036 1479.6,172.369 1478,179.5C 1475.95,183.292 1472.78,184.458 1468.5,183C 1465.59,178.176 1465.92,173.676 1469.5,169.5 Z"/></g>
<g><path style="opacity:1" fill="#f6f8fa" d="M 1516.5,169.5 C 1519.36,169.055 1521.86,169.722 1524,171.5C 1524.96,175.572 1524.46,179.405 1522.5,183C 1519.9,183.769 1517.4,183.602 1515,182.5C 1513.98,177.871 1514.48,173.538 1516.5,169.5 Z"/></g>
<g><path style="opacity:1" fill="#f8fafb" d="M 1544.5,169.5 C 1552.12,169.946 1554.62,173.946 1552,181.5C 1542.96,185.473 1539.63,182.473 1542,172.5C 1543.04,171.627 1543.88,170.627 1544.5,169.5 Z"/></g>
<g><path style="opacity:1" fill="#f5f7f9" d="M 1649.5,169.5 C 1656.77,169.036 1659.6,172.369 1658,179.5C 1654.83,184.414 1651.16,184.747 1647,180.5C 1645.95,176.345 1646.78,172.678 1649.5,169.5 Z"/></g>
<g><path style="opacity:1" fill="#f5f7fa" d="M 1840.5,173.5 C 1837.61,173.806 1834.95,173.473 1832.5,172.5C 1832.56,170.278 1833.73,169.278 1836,169.5C 1838.62,169.617 1840.12,170.95 1840.5,173.5 Z"/></g>
<g><path style="opacity:1" fill="#0e4885" d="M 578.5,170.5 C 585.5,170.5 592.5,170.5 599.5,170.5C 599.5,171.833 599.5,173.167 599.5,174.5C 592.5,174.5 585.5,174.5 578.5,174.5C 578.5,173.167 578.5,171.833 578.5,170.5 Z"/></g>
<g><path style="opacity:1" fill="#0c4784" d="M 862.5,165.5 C 865.079,165.865 867.412,165.865 869.5,165.5C 871.288,164.378 873.288,164.211 875.5,165C 877.005,169.18 875.672,170.68 871.5,169.5C 870.522,169.977 869.689,170.643 869,171.5C 867.649,177.072 867.149,182.738 867.5,188.5C 865.833,188.5 864.167,188.5 862.5,188.5C 862.5,180.833 862.5,173.167 862.5,165.5 Z"/></g>
<g><path style="opacity:1" fill="#f1f4f8" d="M 1184.5,169.5 C 1191.81,169.666 1194.31,173.333 1192,180.5C 1188.49,184.436 1185.16,184.436 1182,180.5C 1180.81,176.259 1181.65,172.592 1184.5,169.5 Z"/></g>
<g><path style="opacity:1" fill="#f2f5f8" d="M 1212.5,169.5 C 1219.31,169.49 1221.81,172.823 1220,179.5C 1218.31,183.213 1215.48,184.379 1211.5,183C 1208.59,178.176 1208.92,173.676 1212.5,169.5 Z"/></g>
<g><path style="opacity:1" fill="#184c88" d="M 1301.5,157.5 C 1309.27,159.372 1311.43,164.039 1308,171.5C 1306.42,173.041 1304.59,174.208 1302.5,175C 1305.83,179.333 1309.17,183.667 1312.5,188C 1310.17,188.667 1307.83,188.667 1305.5,188C 1302.74,183.821 1299.74,179.821 1296.5,176C 1295.21,175.51 1293.87,175.343 1292.5,175.5C 1292.5,179.833 1292.5,184.167 1292.5,188.5C 1290.83,188.5 1289.17,188.5 1287.5,188.5C 1287.5,178.167 1287.5,167.833 1287.5,157.5C 1292.17,157.5 1296.83,157.5 1301.5,157.5 Z"/></g>
<g><path style="opacity:1" fill="#f7f9fb" d="M 1292.5,162.5 C 1295.85,162.335 1299.18,162.502 1302.5,163C 1303.83,165 1303.83,167 1302.5,169C 1299.18,169.498 1295.85,169.665 1292.5,169.5C 1292.5,167.167 1292.5,164.833 1292.5,162.5 Z"/></g>
<g><path style="opacity:1" fill="#f1f4f7" d="M 1860.5,169.5 C 1867.81,169.666 1870.31,173.333 1868,180.5C 1864.49,184.436 1861.16,184.436 1858,180.5C 1856.81,176.259 1857.65,172.592 1860.5,169.5 Z"/></g>
<g><path style="opacity:1" fill="#054583" d="M 505.5,170.5 C 512.167,170.5 518.833,170.5 525.5,170.5C 525.5,171.833 525.5,173.167 525.5,174.5C 518.833,174.5 512.167,174.5 505.5,174.5C 505.5,173.167 505.5,171.833 505.5,170.5 Z"/></g>
<g><path style="opacity:1" fill="#154a87" d="M 974.5,164.5 C 984.345,164.013 988.679,168.679 987.5,178.5C 982.833,178.5 978.167,178.5 973.5,178.5C 973.468,183.213 975.801,184.713 980.5,183C 981.701,182.097 982.535,180.931 983,179.5C 988.423,181.647 988.59,184.48 983.5,188C 977.704,190.73 972.87,189.563 969,184.5C 965.572,176.169 967.406,169.502 974.5,164.5 Z"/></g>
<g><path style="opacity:1" fill="#f4f6f9" d="M 981.5,172.5 C 978.833,173.833 976.167,173.833 973.5,172.5C 975.053,169.746 977.386,168.913 980.5,170C 981.252,170.671 981.586,171.504 981.5,172.5 Z"/></g>
<g><path style="opacity:1" fill="#f4fcfc" d="M 84.5,173.5 C 84.5,175.5 84.5,177.5 84.5,179.5C 82.6208,180.341 80.6208,180.675 78.5,180.5C 78.5,178.833 78.5,177.167 78.5,175.5C 80.3024,174.542 82.3024,173.875 84.5,173.5 Z"/></g>
<g><path style="opacity:1" fill="#4a77a6" d="M 310.5,165.5 C 308.833,165.5 307.167,165.5 305.5,165.5C 305.5,173.167 305.5,180.833 305.5,188.5C 304.508,180.684 304.174,172.684 304.5,164.5C 306.735,164.205 308.735,164.539 310.5,165.5 Z"/></g>
<g><path style="opacity:1" fill="#789abc" d="M 842.5,172.5 C 845.167,173.833 847.833,173.833 850.5,172.5C 851.043,172.56 851.376,172.893 851.5,173.5C 848.167,174.833 844.833,174.833 841.5,173.5C 841.624,172.893 841.957,172.56 842.5,172.5 Z"/></g>
<g><path style="opacity:1" fill="#789abc" d="M 973.5,172.5 C 976.167,173.833 978.833,173.833 981.5,172.5C 982.043,172.56 982.376,172.893 982.5,173.5C 979.167,174.833 975.833,174.833 972.5,173.5C 972.624,172.893 972.957,172.56 973.5,172.5 Z"/></g>
<g><path style="opacity:1" fill="#88a6c4" d="M 1252.5,171.5 C 1254.64,173.369 1257.3,174.036 1260.5,173.5C 1257.71,174.477 1254.71,174.81 1251.5,174.5C 1251.26,173.209 1251.6,172.209 1252.5,171.5 Z"/></g>
<g><path style="opacity:1" fill="#80a0c0" d="M 1832.5,172.5 C 1834.95,173.473 1837.61,173.806 1840.5,173.5C 1837.64,174.803 1834.64,174.803 1831.5,173.5C 1831.62,172.893 1831.96,172.56 1832.5,172.5 Z"/></g>
<g><path style="opacity:1" fill="#6fa9c5" d="M 85.5,172.5 C 85.2053,174.735 85.5386,176.735 86.5,178.5C 86.1583,179.338 85.4916,179.672 84.5,179.5C 84.5,177.5 84.5,175.5 84.5,173.5C 84.5,172.833 84.8333,172.5 85.5,172.5 Z"/></g>
<g><path style="opacity:1" fill="#4574a4" d="M 613.5,166.5 C 612.833,173.833 612.167,181.167 611.5,188.5C 611.169,180.804 611.503,173.138 612.5,165.5C 613.107,165.624 613.44,165.957 613.5,166.5 Z"/></g>
<g><path style="opacity:1" fill="#1b4e89" d="M 646.5,164.5 C 661.534,164.55 666.034,171.55 660,185.5C 659.097,186.701 657.931,187.535 656.5,188C 643.558,190.724 638.058,185.558 640,172.5C 641.305,169.039 643.471,166.372 646.5,164.5 Z"/></g>
<g><path style="opacity:1" fill="#f7f9fb" d="M 648.5,169.5 C 651.272,169.22 653.772,169.887 656,171.5C 656.667,174.833 656.667,178.167 656,181.5C 653.503,183.478 650.669,183.978 647.5,183C 644.585,178.176 644.919,173.676 648.5,169.5 Z"/></g>
<g><path style="opacity:1" fill="#779abb" d="M 816.5,165.5 C 816.5,166.833 816.5,168.167 816.5,169.5C 817.833,169.5 819.167,169.5 820.5,169.5C 820.5,174.833 820.5,180.167 820.5,185.5C 819.513,180.695 819.179,175.695 819.5,170.5C 818.167,170.5 816.833,170.5 815.5,170.5C 815.216,168.585 815.549,166.919 816.5,165.5 Z"/></g>
<g><path style="opacity:1" fill="#f3fcfc" d="M 65.5,175.5 C 65.5,177.167 65.5,178.833 65.5,180.5C 59.1318,180.83 52.7985,180.496 46.5,179.5C 47.3128,178.186 48.3128,177.019 49.5,176C 54.8229,175.501 60.1563,175.334 65.5,175.5 Z"/></g>
<g><path style="opacity:1" fill="#1e89ad" d="M 104.5,177.5 C 107.625,176.521 110.958,176.187 114.5,176.5C 114.5,177.833 114.5,179.167 114.5,180.5C 112.735,181.461 110.735,181.795 108.5,181.5C 109.919,180.549 111.585,180.216 113.5,180.5C 113.5,179.5 113.5,178.5 113.5,177.5C 110.5,177.5 107.5,177.5 104.5,177.5 Z"/></g>
<g><path style="opacity:1" fill="#154a87" d="M 1360.5,165.5 C 1362.17,165.5 1363.83,165.5 1365.5,165.5C 1365.5,173.167 1365.5,180.833 1365.5,188.5C 1363.41,188.682 1361.41,188.348 1359.5,187.5C 1354.43,190.571 1349.93,189.904 1346,185.5C 1345.5,178.842 1345.33,172.175 1345.5,165.5C 1347.17,165.5 1348.83,165.5 1350.5,165.5C 1350.33,170.844 1350.5,176.177 1351,181.5C 1353.12,183.457 1355.62,183.957 1358.5,183C 1359.13,182.25 1359.63,181.416 1360,180.5C 1360.5,175.511 1360.67,170.511 1360.5,165.5 Z"/></g>
<g><path style="opacity:1" fill="#016298" d="M 104.5,177.5 C 107.5,177.5 110.5,177.5 113.5,177.5C 113.5,178.5 113.5,179.5 113.5,180.5C 111.585,180.216 109.919,180.549 108.5,181.5C 106.517,182.471 104.517,183.471 102.5,184.5C 102.5,182.5 102.5,180.5 102.5,178.5C 102.842,177.662 103.508,177.328 104.5,177.5 Z"/></g>
<g><path style="opacity:1" fill="#edf1f6" d="M 343.5,177.5 C 344.497,177.47 345.164,177.97 345.5,179C 344.422,183.046 341.756,184.546 337.5,183.5C 337.5,182.167 337.5,180.833 337.5,179.5C 339.898,179.741 341.898,179.074 343.5,177.5 Z"/></g>
<g><path style="opacity:1" fill="#e3eaf1" d="M 803.5,177.5 C 804.497,177.47 805.164,177.97 805.5,179C 804.422,183.046 801.756,184.546 797.5,183.5C 797.238,182.022 797.571,180.689 798.5,179.5C 800.336,178.972 802.003,178.306 803.5,177.5 Z"/></g>
<g><path style="opacity:1" fill="#b5c7db" d="M 856.5,178.5 C 855.5,179.167 854.5,179.833 853.5,180.5C 852.883,180.389 852.383,180.056 852,179.5C 851.722,180.416 851.222,181.082 850.5,181.5C 849.666,180.252 848.333,179.585 846.5,179.5C 844.667,179.585 843.334,180.252 842.5,181.5C 841.596,180.791 841.263,179.791 841.5,178.5C 846.5,178.5 851.5,178.5 856.5,178.5 Z"/></g>
<g><path style="opacity:1" fill="#eff3f7" d="M 1590.5,178.5 C 1592.17,178.5 1593.83,178.5 1595.5,178.5C 1595.58,181.585 1594.08,183.252 1591,183.5C 1586.55,182.365 1586.39,180.698 1590.5,178.5 Z"/></g>
<g><path style="opacity:1" fill="#b8cadc" d="M 1846.5,178.5 C 1845.5,179.167 1844.5,179.833 1843.5,180.5C 1842.5,180.5 1841.5,180.5 1840.5,180.5C 1839.38,179.844 1838.05,179.511 1836.5,179.5C 1834.67,179.585 1833.33,180.252 1832.5,181.5C 1831.6,180.791 1831.26,179.791 1831.5,178.5C 1836.5,178.5 1841.5,178.5 1846.5,178.5 Z"/></g>
<g><path style="opacity:1" fill="#2484ab" d="M 65.5,175.5 C 67.8333,175.5 70.1667,175.5 72.5,175.5C 70.7354,176.461 68.7354,176.795 66.5,176.5C 66.5,177.5 66.5,178.5 66.5,179.5C 70.1667,179.5 73.8333,179.5 77.5,179.5C 77.5,178.167 77.5,176.833 77.5,175.5C 77.8333,175.5 78.1667,175.5 78.5,175.5C 78.5,177.167 78.5,178.833 78.5,180.5C 74.1667,180.5 69.8333,180.5 65.5,180.5C 65.5,178.833 65.5,177.167 65.5,175.5 Z"/></g>
<g><path style="opacity:1" fill="#006097" d="M 72.5,175.5 C 74.1667,175.5 75.8333,175.5 77.5,175.5C 77.5,176.833 77.5,178.167 77.5,179.5C 73.8333,179.5 70.1667,179.5 66.5,179.5C 66.5,178.5 66.5,177.5 66.5,176.5C 68.7354,176.795 70.7354,176.461 72.5,175.5 Z"/></g>
<g><path style="opacity:1" fill="#f8fafb" d="M 850.5,181.5 C 849.688,182.993 848.355,183.66 846.5,183.5C 844.645,183.66 843.312,182.993 842.5,181.5C 843.334,180.252 844.667,179.585 846.5,179.5C 848.333,179.585 849.666,180.252 850.5,181.5 Z"/></g>
<g><path style="opacity:1" fill="#f8fafb" d="M 1840.5,180.5 C 1840.32,182.89 1838.98,183.89 1836.5,183.5C 1834.65,183.66 1833.31,182.993 1832.5,181.5C 1833.33,180.252 1834.67,179.585 1836.5,179.5C 1838.05,179.511 1839.38,179.844 1840.5,180.5 Z"/></g>
<g><path style="opacity:1" fill="#114986" d="M 941.5,165.5 C 943.604,165.201 945.604,165.534 947.5,166.5C 949.099,171.465 950.599,176.465 952,181.5C 953.06,176.368 954.56,171.368 956.5,166.5C 958.421,165.359 960.421,165.192 962.5,166C 959.335,173.329 956.668,180.829 954.5,188.5C 952.5,188.5 950.5,188.5 948.5,188.5C 946.772,180.649 944.438,172.982 941.5,165.5 Z"/></g>
<g><path style="opacity:1" fill="#174c88" d="M 1015.5,164.5 C 1020.77,163.571 1025.27,164.904 1029,168.5C 1029.48,169.448 1029.65,170.448 1029.5,171.5C 1028.07,171.421 1026.74,171.754 1025.5,172.5C 1024.07,171.065 1022.4,170.065 1020.5,169.5C 1019,169.453 1018,170.119 1017.5,171.5C 1021.89,173.321 1026.06,175.654 1030,178.5C 1030.85,181.588 1030.35,184.421 1028.5,187C 1024.29,188.534 1019.96,188.867 1015.5,188C 1012.98,186.117 1011.64,183.617 1011.5,180.5C 1014.84,178.504 1017.17,179.337 1018.5,183C 1020.47,183.495 1022.47,183.662 1024.5,183.5C 1024.5,182.167 1024.5,180.833 1024.5,179.5C 1019.56,179.689 1015.4,178.023 1012,174.5C 1011.33,172.5 1011.33,170.5 1012,168.5C 1013.38,167.295 1014.54,165.962 1015.5,164.5 Z"/></g>
<g><path style="opacity:1" fill="#35d8d4" d="M 114.5,180.5 C 129.5,180.5 144.5,180.5 159.5,180.5C 158.868,185.305 156.201,188.472 151.5,190C 138.838,190.5 126.171,190.667 113.5,190.5C 109.833,190.5 106.167,190.5 102.5,190.5C 101.503,190.53 100.836,190.03 100.5,189C 101.414,187.594 102.08,186.094 102.5,184.5C 104.517,183.471 106.517,182.471 108.5,181.5C 110.735,181.795 112.735,181.461 114.5,180.5 Z"/></g>
<g><path style="opacity:1" fill="#016299" d="M 94.5,189.5 C 94.5,192.5 94.5,195.5 94.5,198.5C 91.5,198.5 88.5,198.5 85.5,198.5C 85.5,196.5 85.5,194.5 85.5,192.5C 89.0034,192.871 92.0034,191.871 94.5,189.5 Z"/></g>
<g><path style="opacity:1" fill="#12689c" d="M 102.5,190.5 C 106.167,190.5 109.833,190.5 113.5,190.5C 113.5,193.5 113.5,196.5 113.5,199.5C 110.167,199.5 106.833,199.5 103.5,199.5C 103.492,196.455 103.159,193.455 102.5,190.5 Z"/></g>
<g><path style="opacity:1" fill="#12659a" d="M 77.5,192.5 C 77.6816,194.591 77.3482,196.591 76.5,198.5C 73.5719,199.484 70.5719,199.817 67.5,199.5C 67.5,197.167 67.5,194.833 67.5,192.5C 70.8333,192.5 74.1667,192.5 77.5,192.5 Z"/></g>
<g><path style="opacity:1" fill="#81b2cc" d="M 95.5,188.5 C 95.5,192.167 95.5,195.833 95.5,199.5C 91.9581,199.813 88.6248,199.479 85.5,198.5C 88.5,198.5 91.5,198.5 94.5,198.5C 94.5,195.5 94.5,192.5 94.5,189.5C 94.5,188.833 94.8333,188.5 95.5,188.5 Z"/></g>
</svg>
