<svg xmlns="http://www.w3.org/2000/svg" viewBox="0 0 172.57 172.57"><defs><style>.cls-1,.cls-2{fill:#003f88;}.cls-2{fill-rule:evenodd;}</style></defs><title>资源 3</title><g id="图层_2" data-name="图层 2"><g id="图层_1-2" data-name="图层 1"><path class="cls-1" d="M86.28,0A86.29,86.29,0,1,1,0,86.28,86.45,86.45,0,0,1,86.28,0m0,3.44a82.85,82.85,0,1,0,82.84,82.84A83,83,0,0,0,86.28,3.44"/><path class="cls-1" d="M56,123.06a48.1,48.1,0,0,1-12.84-16.49,47.28,47.28,0,0,1-4.55-20.29,47.69,47.69,0,0,1,95.38,0,47.28,47.28,0,0,1-4.55,20.29,48.07,48.07,0,0,1-12.83,16.49l-1.1-1.33a46.26,46.26,0,0,0,12.39-15.9,46,46,0,1,0-83.19,0,46.35,46.35,0,0,0,12.38,15.9Z"/><polygon class="cls-2" points="12.39 115.09 9.14 106.36 10.92 105.74 25.84 108.01 23.56 101.89 25.33 101.27 28.31 109.27 26.53 109.88 11.62 107.61 14.17 114.46 12.39 115.09"/><polygon class="cls-2" points="18.07 126.99 17.18 125.25 24.19 121.64 21.96 117.31 14.95 120.92 14.05 119.18 29.05 111.47 29.94 113.21 23.63 116.46 25.85 120.78 32.17 117.53 33.07 119.28 18.07 126.99"/><polygon class="cls-2" points="25.19 136.49 19.86 129.05 33.91 120.31 38.99 127.39 37.43 128.36 33.56 122.97 29.2 125.67 32.75 130.63 31.19 131.6 27.64 126.64 22.62 129.75 26.75 135.52 25.19 136.49"/><polygon class="cls-2" points="37.14 148.18 35.35 146.67 45.7 133.96 47.49 135.47 37.14 148.18"/><path class="cls-2" d="M45.15,153.78l2.12-4.5-2.57-1.87-3.82,3.73-1.75-1.36,12.13-12,2.44,1.48L47.24,155Zm3.1-6.71,2.53-5.81-.23-.2-4.37,4.46Z"/><polygon class="cls-2" points="57.31 159.66 55.13 158.64 56.4 146.95 51.61 156.78 49.42 155.77 57.03 140.72 59.01 141.63 58.09 152.74 63.03 143.57 64.87 144.33 57.31 159.66"/><path class="cls-2" d="M68.63,163l-1.41-.46.13-1.33a2.49,2.49,0,0,1-1.31.55,3.45,3.45,0,0,1-1.65-.15,4.22,4.22,0,0,1-2.59-2.75q-.84-2.18.34-6c.85-2.78,1.91-4.72,3.16-5.81a5.24,5.24,0,0,1,4.84-1.15c1.81.58,3,2.81,2.47,5.89l-2.16-.18c.37-1.32.18-3.38-1.11-3.8a2.83,2.83,0,0,0-3,.82,13.46,13.46,0,0,0-2.18,4.71q-1,3.28-.56,4.8a2.5,2.5,0,0,0,1.53,1.87,2.07,2.07,0,0,0,2-.3,4.45,4.45,0,0,0,1.43-2.41l.3-1-2.59-.83.53-1.69L71,155.22Z"/><path class="cls-2" d="M91.07,159.32a5.49,5.49,0,0,1-1.22,3.57,4.19,4.19,0,0,1-3.52,1.19,4.25,4.25,0,0,1-3.43-1.45,5.55,5.55,0,0,1-1-3.65l.37-11.49,2,.08-.37,11.48a3.38,3.38,0,0,0,.63,2.4,2.44,2.44,0,0,0,1.82.84,2.38,2.38,0,0,0,1.87-.7,3.34,3.34,0,0,0,.78-2.34l.38-11.48,2,.07Z"/><polygon class="cls-2" points="102.58 162.39 100.78 162.67 95.08 151.7 95.95 163.47 93.81 163.78 92.55 147.27 95.02 147.04 99.71 154.73 98.84 146.46 100.63 146.15 102.58 162.39"/><polygon class="cls-2" points="108.74 160.66 106.63 161.3 102.23 145.69 104.34 145.04 108.74 160.66"/><polygon class="cls-2" points="114.45 140.86 117.12 158.11 115.04 159.14 105.9 144.5 107.91 143.65 114.27 153.64 112.5 141.71 114.45 140.86"/><polygon class="cls-2" points="131.42 150.64 123.71 154.81 115.32 140.39 122.64 136.44 123.58 138.03 117.98 141.06 120.59 145.53 125.73 142.75 126.66 144.35 121.52 147.13 124.52 152.27 130.48 149.04 131.42 150.64"/><path class="cls-2" d="M140.2,144.48l-1.7,1.45-6-5-1.54,1.4,4,5.5-1.69,1.77-9.89-13.88,3.15-2.26a5.3,5.3,0,0,1,3.53-1.1c3.08.37,4.39,2.44,4.25,4.85a6.9,6.9,0,0,1-.39,2.27Zm-10.65-9.77c-1.26-.35-2.25.62-3.15,1.32l3.28,4.35a5.64,5.64,0,0,0,2.24-2.19c.32-1.58-.38-2.94-2.37-3.48"/><path class="cls-2" d="M145.53,131.08a4.73,4.73,0,0,1-1.88,8.63,5.49,5.49,0,0,1-3.27-.57l.77-1.76a5.57,5.57,0,0,0,2.22.3c2.94-.55,2.81-3.6,1.1-4.87a3.08,3.08,0,0,0-2.16-.41c-2,.21-3.25,1.69-5.45,1.83a4.08,4.08,0,0,1-4.48-3.67,4.82,4.82,0,0,1,.71-3.41,4.37,4.37,0,0,1,5.95-1.1l-.77,1.81c-1.07-.56-3-.56-3.67.55a2.44,2.44,0,0,0-.39,1.79,2.13,2.13,0,0,0,2.43,1.94c2.14-.27,3.58-2,5.69-1.95a6.71,6.71,0,0,1,3.2.89"/><polygon class="cls-2" points="152.8 128.94 151.57 130.46 137.35 121.55 138.59 120.03 152.8 128.94"/><polygon class="cls-2" points="145.63 110.96 144.06 113.88 157.48 121.77 156.58 123.45 143.15 115.55 141.58 118.47 139.91 117.48 143.95 109.97 145.63 110.96"/><polygon class="cls-2" points="148.09 99.87 156.28 107.19 161.75 109.53 161.08 111.38 156.02 109.41 144.35 109.14 144.92 107.27 153.06 107.4 147.29 102.11 148.09 99.87"/><path class="cls-2" d="M35.88,140.84a6.43,6.43,0,0,1-4.05,2.23,4.49,4.49,0,0,1-3.42-1.5A4.57,4.57,0,0,1,27,138.26a4.31,4.31,0,0,1,.56-2l1.85,1.13a2.11,2.11,0,0,0-.25.91,2.26,2.26,0,0,0,.63,1.71,2.45,2.45,0,0,0,2,.86,4.55,4.55,0,0,0,2.5-1.55l8.2-8.11L44,132.79Z"/><path class="cls-2" d="M63.77,138,58,134.43l.52-.9,2.14,1.32,3.41-5.95L62,127.58l.46-.81a5.33,5.33,0,0,0,1.93.84,1.21,1.21,0,0,0,1.21-.57l1.23.76-4.59,8,2.08,1.29Zm17.13-3.62a1.27,1.27,0,0,0-.48-1.25,3.44,3.44,0,0,0-1.88-.72,4,4,0,0,0-2,.14,1.34,1.34,0,0,0-1,1,1.07,1.07,0,0,0,.2.9,3.08,3.08,0,0,0,1,.79l.93.46c.42.2.81.36,1.17.49a3.67,3.67,0,0,0,1.44-.77,2.13,2.13,0,0,0,.55-1m-.75,5.14a1.28,1.28,0,0,0-.17-1,4,4,0,0,0-1.33-1c-.22-.12-.52-.25-.89-.41l-1.28-.54a3.75,3.75,0,0,0-1.54.74,2.1,2.1,0,0,0-.72,1.18,1.7,1.7,0,0,0,.56,1.65,3.58,3.58,0,0,0,2,.91,4.1,4.1,0,0,0,2.24-.23,1.72,1.72,0,0,0,1.09-1.29M76.59,142a9.26,9.26,0,0,1-2.09-.52,5.42,5.42,0,0,1-1.51-.88,2.87,2.87,0,0,1-.82-1.12,2.21,2.21,0,0,1,.9-2.67,5.17,5.17,0,0,1,2.2-.83l0,0a5,5,0,0,1-1.54-1.19,1.64,1.64,0,0,1-.29-1.38,2.44,2.44,0,0,1,1.73-1.73,7.08,7.08,0,0,1,3.56-.29,6.78,6.78,0,0,1,3.31,1.21,2,2,0,0,1,.92,2,2.21,2.21,0,0,1-.9,1.27,4.57,4.57,0,0,1-2,.8v0A5.63,5.63,0,0,1,82,138.05a1.83,1.83,0,0,1,.41,1.63,2.85,2.85,0,0,1-1.92,2,7.41,7.41,0,0,1-3.85.37m19.88-6.3a4.4,4.4,0,0,0-.29-1.72,2.38,2.38,0,0,0-.81-1,2.94,2.94,0,0,0-.92-.46,4.1,4.1,0,0,0-1-.12,3.09,3.09,0,0,0-2,.61,2.14,2.14,0,0,0-.76,1.77,2.11,2.11,0,0,0,.24,1.08,2,2,0,0,0,.82.72,2.66,2.66,0,0,0,.89.29,7.21,7.21,0,0,0,1.07.07,7.48,7.48,0,0,0,1.43-.15,6.45,6.45,0,0,0,1.34-.41,1.84,1.84,0,0,0,0-.28c0-.11,0-.24,0-.38m-8-.89a2.76,2.76,0,0,1,.39-1.45A3.73,3.73,0,0,1,90,132.26a4.83,4.83,0,0,1,1.57-.71,6.75,6.75,0,0,1,1.9-.26,7.18,7.18,0,0,1,1.93.24,4.87,4.87,0,0,1,1.51.69,3.9,3.9,0,0,1,1.24,1.48,5.52,5.52,0,0,1,.44,2.34,7,7,0,0,1-.43,2.43,4.82,4.82,0,0,1-1.27,1.91,6.23,6.23,0,0,1-2.15,1.23,10.19,10.19,0,0,1-3.1.42l-.88,0c-.31,0-.61-.07-.88-.12v-1.33H90a3.45,3.45,0,0,0,.81.19,7,7,0,0,0,1.12.09,5.14,5.14,0,0,0,3.21-.89,3.48,3.48,0,0,0,1.31-2.56,8.78,8.78,0,0,1-1.58.55,7.65,7.65,0,0,1-1.64.17,9.37,9.37,0,0,1-1.57-.12,5.45,5.45,0,0,1-1.42-.49,3.2,3.2,0,0,1-1.26-1.07,2.76,2.76,0,0,1-.43-1.57M111,126l-.38,10.65-1.63,1,.14-10.07-6.22,3-.54-1.2,7.82-4.06Z"/><path class="cls-2" d="M114.43,39.85c-1.25-.6-.37-.82-.3-2,.06-1-.59-2.17-.39-2.89.55-1.92,3-1.19,4.36-.2a2.75,2.75,0,0,1,.64,1.12c.44,1.17.9,2.81-.43,3.64a4.31,4.31,0,0,1-3.88.33"/><path class="cls-2" d="M100,34.19l-.11-.09a4.17,4.17,0,0,1,.13-.42,41.94,41.94,0,0,0,4.61-1.61,5.8,5.8,0,0,0,3-2.54c-2.77.21-5.66,1.49-8.36,1a15.84,15.84,0,0,1-2.61-2.07.89.89,0,0,0,0-.15c-1.18-1.26-1-2.47.66-2.6,2.52,1.25,7.08.33,9.84,0a10.28,10.28,0,0,0,3-.7c1.45-3.39,1.93-7,3-10.35,1.47-2.23,2.58-.2,3.79,1.39,0,.23.35.54.54,1.07l.15,0c.39,1.17.46,1.68-.77,2.39a13.4,13.4,0,0,0-2.23,5.19c1.9.19,3.4-1.15,5.54-.67A2,2,0,0,1,119,26.62c-1.73.36-3.58.62-5.53,1a13.45,13.45,0,0,1-3.7,4.84,11.29,11.29,0,0,1-1.6.86,15.7,15.7,0,0,1-3.85,1,18.33,18.33,0,0,1-4.33-.11"/><path class="cls-2" d="M57.92,46.47a10.46,10.46,0,0,1-4.41-1.89c0-.39,0-.79,0-1.17a87.9,87.9,0,0,0,6-10.62c.33-1.62.89-3.4,1.3-5a.31.31,0,0,1,.13-.12.49.49,0,0,1-.06-.13c.54-.91.8-1.21,1.86-.47.38.82-.77,2.31-.93,3.27,0,1.73-.07,3.52-.23,5.34A13.39,13.39,0,0,0,61.11,38,11.68,11.68,0,0,0,60,42.24c-.74.94-.48,2.81-1.41,3.86a5.75,5.75,0,0,0-.7.37"/><path class="cls-2" d="M71.74,28.66c-1.92.66-2.93-.34-4.38-1-.23-.48,0-.9-.14-1.26a1.62,1.62,0,0,0,.64-.59c.75-.41,1-.49,1.89-.87,1-.68,3-3.68,4.27-3.23,1,2.23-.55,5.53-2.28,7"/><path class="cls-2" d="M55.84,30.74c-1-.35-2.25-3.2-2.67-4.1-.11-1.84,1.51-2.54,3.29-2,1.64,1,2.62,1.31,2.14,3.42a5.35,5.35,0,0,1-2.76,2.71"/><path class="cls-2" d="M69.25,23.83c-.55-.8-.07-3.18-.6-3.5a14.28,14.28,0,0,1-1.3.82c-1.35-.1-3.14-1-3.1-2.24.47-1.28.24-.91,1.51-1.51,1-1,2.07-2.07,3.12-3.11,2-1.22,3.39-.45,4.33,1.57a10.48,10.48,0,0,1-.79,4.3c-.88,1.05-1.63,2.12-2.39,3.19-.28.16-.53.32-.78.48"/><path class="cls-2" d="M55.32,22.39c-.59-.21-.49-.5-.41-1-.4-.85-1.2-1.35-1.58-2.16-.32-1.65-.83-2.1.15-3.33,1.16,0,5.3.45,5.23,2.71a7.32,7.32,0,0,1-3.39,3.77"/><path class="cls-2" d="M34.11,79.27c-1.79,1.23-6.1.42-5.53-2.16a1.15,1.15,0,0,1-.29-1L28.16,76c-.46-2.7-1.92-5.27-2.71-7.82-.42-.8-.92-1.42-.6-2.3.59-.15,1.25.5,1.75,1,.26-.06.56-.71.68-1.13-.19-1.79,0-3.85-.3-5.68-.46-.39-.91-.8-1.35-1.21-.35.92-1.52,3.91-2.54,2.3a7.2,7.2,0,0,0-.23-4.51C22,55.7,20.7,55,20.3,54c.18-1.48,2.44-1.82,3.76-1.23,1.06.09,1.05-1.92,2.26,1.4,0,.54.54.88,1.14,1.18l.28-.35c0-1.41,0-2.95.07-4.46a15.06,15.06,0,0,1-3.21-4.06c0-1.56,1.76-2.45,3.29-2.91a4.34,4.34,0,0,0,.47-2.61,2,2,0,0,1,.47-.87,3.52,3.52,0,0,1,1.55.57C31.59,42.22,29,47,31.43,47.4c.49-.81-.18-1.67-.55-2.33.14-1.2,2-2.69,3.28-3.14,1.92-.17,1.8.91,1.81,2.56.09.23.18.46.28.67,2.43,1.77,2.43,1.77,5.81,4.05A7,7,0,0,1,43.21,52a.41.41,0,0,1,.11.07l-.07.12c.45,1,.47,2.51-.67,2.65-2.76-1.88-5.52-4-8.21-5.72a.45.45,0,0,0,0,.18,11.34,11.34,0,0,1,2.85,5.92,2.67,2.67,0,0,1-3,1.26c-.2-.3-.12-.55-.16-.9-.82-1.44-3.2-2.81-4.4-3.63-.47.94.48,3.74.77,4.88.05.67.09,1.36.14,2,.82,1,1.67,1.94,2.58,3,.33.58.67,1.16,1,1.75a.56.56,0,0,0-.07.13c.39.86,1.28,3.39-.37,3.4l-.45-.29a8.28,8.28,0,0,0-2.6-3.51c-.38,1.3.11,2.66-.55,3.76a7.83,7.83,0,0,1-1.64,1.27l-.13-.07c-.33.15-.75.25-.79.45.47.6.95,1.21,1.44,1.81a51.79,51.79,0,0,0,5.24,7.43,1.86,1.86,0,0,1-.1,1.34"/><path class="cls-2" d="M22.4,68.16c-.7,0-1-.83-1.59-1.22-1.92-.55-3.36-.94-4-2.84a5.21,5.21,0,0,1,.28-.52,17.25,17.25,0,0,1,4.11-.65c2.39.53,1.57,3.52,1.19,5.23"/><path class="cls-2" d="M17.39,62.52c-.41.3-.49.23-.68.21-.26-.45-.35-.78-.8-1C13.8,61.71,11.6,60.13,12,58c.38-.44.8-.18,1.61.06,1.78-.35,4.45-1.47,4.56,1.4-.19,1-.51,2.1-.78,3.09"/><path class="cls-1" d="M126.79,65.24l-21,0c-6.12,0-9.26,6-11.58,11.44l-3.54-8,5.94-2.19c-3.47-3.29-14.3-5.08-15.73-.13L78.35,76.64c-2-4.63-4.87-11.4-11.28-11.4H45.78c2.77,4.9,5.41,6.66,15.2,6.24l1.29,3.37-10.74.05c3.17,5.85,5,6.09,13.64,5.85l1.83,4-8.44.31c1.82,4.13,3.72,5.9,11,5.57l1.41,3.58-6.72,0c2.53,4.17,3.77,6.07,9.1,5.61l1.43,3.89H70.09c2,4.5,4.36,4.68,7.22,5.13,2.57.4,2.93,5.22-.06,6.76l9,14.66,9-14.66c-3-1.55-2.63-6.36-.06-6.76,2.86-.45,5.2-.63,7.21-5.13H97.82l1.43-3.9c5.32.47,6.56-1.44,9.09-5.6l-6.72,0L103,90.65c7.25.34,9.16-1.44,11-5.57l-8.44-.3,1.83-4c8.64.24,10.47,0,13.65-5.86l-10.74,0,1.28-3.38c9.79.42,12.43-1.34,15.21-6.23"/><path class="cls-1" d="M158.74,55.2l.08-.19c.31-.75.29-1.06.22-1.19s-.43-.27-.95-.41l-.48-.09-.29,0-.1-.21a2,2,0,0,0-.33-.31l-.41-.14-.09,0,.52-.4a4,4,0,0,1,1.26-.56l.05-.12.2.07a3.72,3.72,0,0,0,1.3-2.56,1.33,1.33,0,0,0-1.18-.45,9.79,9.79,0,0,0-2.43.54,13.93,13.93,0,0,1-1.63.45l-.19-.09c-1.34-.64-1.39-.67-4.2-2.14a1.19,1.19,0,0,0-.45.56,1.51,1.51,0,0,0,.08,1.29l.26.21,0,0h0l-.66.36c-.15.08-.19.1-.17.1h0L149,50a1.73,1.73,0,0,0,.16.38l0,.29a.82.82,0,0,1-.28.62l-.08.32v0h0l-.41-.33a11.93,11.93,0,0,1-1-.83,1.69,1.69,0,0,0-.33,0,.84.84,0,0,0-.66.25c-.12.17-.1.38,0,.68l0,.15c-.09.4-.43,1.09-1.68,1.1h-.64a1,1,0,0,0-.45.1c0,.85.37.91,1.26,1.05.34,0,.7.11,1.18.22a.69.69,0,0,1,.25,0,1.26,1.26,0,0,1,.52.16l.66.26.24.07.11.05-.81.4a2.34,2.34,0,0,0-.82.58,1.8,1.8,0,0,1-.37.69l0,.18-.33-.08-1.81-.45-.93-.25c-1.64-.43-3.69-1-5.61-1.3a8.72,8.72,0,0,0-1.34-.33l-.91-.11,0,.26a11,11,0,0,0,1,.69l.07.15a3.69,3.69,0,0,0,1.69,2c.66.12,1.35.2,2.17.29,2.4.28,4.88.56,6.84,2l.5.26h.15l-.72.36a3.43,3.43,0,0,0-.57.39l-.22,0a24.69,24.69,0,0,1-3.15-.78,3.15,3.15,0,0,0-1.68-.7,3,3,0,0,0-1.39.54l-.1.05,0,0-.07,0-.23-.1a3.77,3.77,0,0,0-1-.19c-.64-.23-1.3-.44-2-.68A24,24,0,0,1,130.35,56a9.89,9.89,0,0,1-1.13-1.14c-.09-.11-.15-.18-.2-.18h0l-.17-.21a2.36,2.36,0,0,0-.69.61c-.36,1.13.66,3.84,1.58,4.64a9.84,9.84,0,0,0,2.07.55,7.44,7.44,0,0,1,3.68,1.46l.32.08h0l-.31.41a10.74,10.74,0,0,1-1.37,1.42l-.24.2a2.54,2.54,0,0,0-.41.39l-.23,0a4,4,0,0,1-.53,0,4.78,4.78,0,0,1-2.33-.81,2.87,2.87,0,0,0-.75-.31l-.13.23a16.88,16.88,0,0,0,3.9,4.46l.14.23a1.29,1.29,0,0,0,.63.17h0c1.21,0,2.52-1.69,3.49-2.92.21-.26.4-.51.62-.74l.24-.18c.91-.67,1-.73.94-.74l.23.06a8.18,8.18,0,0,1,2,.92,2.09,2.09,0,0,0,1.39-1.83l-.29-.27c-.44-.4-.87-.8-1.32-1.19l-.22-.05.14-.37a3,3,0,0,1,.71-.94l0-.15.3.08c1.3.29,2.46.65,3.89,1.09l1.25.41.3.23a3.33,3.33,0,0,0,2,.92,1.25,1.25,0,0,0,.45-.08,7.88,7.88,0,0,0,1.51-1.93h0l0,0c-.24-.35-.35-.46-.39-.46l.22-.27a1.17,1.17,0,0,1,.37-.28c2.11-.67,4.4-1.5,6.08-2.1,1-.64,1.12-.7.76-1.65a6.25,6.25,0,0,0-.27-.59m-8.2,1.25.34-.31c.47-.44.68-.65.73-.86a.88.88,0,0,0-.33-.34l-.11,0-.23,0a.92.92,0,0,1-.73-.33l-.16-.13V54.3l.13-.42-.07,0,.46-.15a8.76,8.76,0,0,0,1.8-.66l.12-.2.3.25a4.48,4.48,0,0,1,1.57,2.51l-.15.18a3.8,3.8,0,0,1-3,1.2l-.29.07-.15-.46-.2-.13Z"/><path class="cls-1" d="M141.58,52.75a2.19,2.19,0,0,1-1.31-.43c-.25-1,.5-2.08,1-2.87a7.5,7.5,0,0,0,.44-.66l.09-.23.18-.34c.22-.43.43-.85.63-1.32.08-.24.14-.47.2-.69.33-1.31.58-2.13,1.24-2.36.51.08.76.15.88.34s.08.46,0,1l-.08.18a2.71,2.71,0,0,1,.13.62,8.14,8.14,0,0,1,.1,2.3l0,.29a4.12,4.12,0,0,1-.2.77,6,6,0,0,1-1.32,2.61l-.28.25-.18.11a2.78,2.78,0,0,1-1.46.48Z"/><path class="cls-1" d="M141.58,52.71h0a2.84,2.84,0,0,0,1.43-.48l.18-.1.28-.25a6.06,6.06,0,0,0,1.3-2.58,5.77,5.77,0,0,0,.21-.77l0-.29a7.6,7.6,0,0,0-.1-2.3l-.09-.65h0l.09-.17c.09-.47.14-.74,0-.92s-.36-.24-.84-.33c-.63.24-.87,1-1.18,2.25l-.22.79c-.21.48-.42.89-.64,1.32l-.19.34-.08.24c-.11.18-.26.39-.44.66-.54.78-1.28,1.84-1,2.8a2.14,2.14,0,0,0,1.28.43"/><path class="cls-1" d="M137,51.56a2.28,2.28,0,0,1-1.06-.47c-.7-1.6,1.83-3.41,2.13-3.61a1,1,0,0,1,.79.71,2.94,2.94,0,0,1-.47,2.61c-.77.53-1.09.75-1.38.76Z"/><path class="cls-1" d="M137,51.51h0c.27,0,.6-.22,1.34-.73a2.89,2.89,0,0,0,.46-2.57,1,1,0,0,0-.72-.7c-.29.21-2.79,2-2.12,3.55a2.18,2.18,0,0,0,1,.45"/></g></g></svg>