<svg xmlns="http://www.w3.org/2000/svg" viewBox="0 0 314.02 47.78"><defs><style>.cls-1{fill:#003f88;}.cls-2{fill:#003;}.cls-3{fill:#e84d29;}</style></defs><g id="图层_2" data-name="图层 2"><g id="图层_1-2" data-name="图层 1"><path class="cls-1" d="M23.87,0A23.87,23.87,0,1,1,0,23.89,23.91,23.91,0,0,1,23.87,0Zm0,.94A22.92,22.92,0,1,0,46.79,23.89,23,23,0,0,0,23.87,1Z"/><path class="cls-1" d="M15.48,34.07a13.43,13.43,0,0,1-3.55-4.56,13.21,13.21,0,1,1,20.32,4.56L32,33.7a12.71,12.71,0,0,0,3.42-4.4,12.55,12.55,0,0,0,1.22-5.41,12.72,12.72,0,1,0-20.8,9.81l-.31.37Z"/><path class="cls-1" d="M24,36.08,21.25,32c.83-.42.72-1.75,0-1.86a2,2,0,0,1-2-1.41h1.28l-.39-1.08c-1.47.13-1.77-.28-2.47-1.43l1.84-.06-.38-.94c-2,.09-2.53-.4-3-1.54l2.34-.09L18,22.43c-2.39.07-2.9,0-3.77-1.62h3l-.42-1.07c-2.71.12-3.39-.15-4.15-1.5l6.08-.15A2.61,2.61,0,0,1,21,19.46L21.69,21l.77-2.66c.4-1.36,3.39-.87,4.35,0L25,19.08l.89,2.15c.64-1.5,1.43-3.15,3.12-3.15h6c-.46,1.31-1.57,2-4,1.54l-.42,1.12h3c-.72,1.66-1.51,1.87-3.72,1.62l-.47,1.12,2.38.07c-.46,1.06-1.29,1.69-3.12,1.47l-.38,1.09h1.88c-.54,1.32-.89,1.62-2.6,1.54l-.4,1.08h1.36c-.57,1.15-.74,1.29-2,1.4-.73.06-1.05,1.22-.08,1.91L24,36.08Z"/><polygon class="cls-1" points="3.43 31.86 2.53 29.45 3.02 29.27 7.14 29.91 6.51 28.21 7.01 28.04 7.83 30.25 7.34 30.42 3.21 29.79 3.92 31.69 3.43 31.86 3.43 31.86"/><polygon class="cls-1" points="5 35.16 4.75 34.67 6.69 33.67 6.08 32.48 4.14 33.47 3.89 32.99 8.04 30.86 8.28 31.34 6.54 32.24 7.15 33.44 8.9 32.54 9.15 33.02 5 35.16 5 35.16"/><polygon class="cls-1" points="6.97 37.78 5.49 35.72 9.38 33.31 10.79 35.27 10.35 35.53 9.28 34.04 8.08 34.79 9.06 36.16 8.63 36.43 7.65 35.06 6.26 35.92 7.4 37.52 6.97 37.78 6.97 37.78"/><polygon class="cls-1" points="10.27 41.02 9.78 40.6 12.64 37.08 13.14 37.5 10.27 41.02 10.27 41.02"/><path class="cls-1" d="M12.49,42.57l.59-1.25-.71-.52-1.06,1-.49-.38,3.36-3.32.67.42-1.78,4.33-.58-.32Zm.86-1.86.7-1.61L14,39.05l-1.21,1.23.58.43Z"/><polygon class="cls-1" points="15.86 44.19 15.25 43.91 15.6 40.67 14.28 43.39 13.67 43.12 15.78 38.95 16.32 39.2 16.07 42.28 17.44 39.74 17.94 39.95 15.86 44.19 15.86 44.19"/><path class="cls-1" d="M19,45.13,18.6,45l0-.37a.66.66,0,0,1-.36.15.92.92,0,0,1-.46,0A1.15,1.15,0,0,1,17.1,44a2.55,2.55,0,0,1,.09-1.66,3.52,3.52,0,0,1,.87-1.6,1.45,1.45,0,0,1,1.34-.32c.51.16.83.77.69,1.63l-.6-.05c.1-.37.05-.94-.31-1a.77.77,0,0,0-.82.22,3.74,3.74,0,0,0-.6,1.31,2.51,2.51,0,0,0-.16,1.32.69.69,0,0,0,.43.52.57.57,0,0,0,.54-.08,1.28,1.28,0,0,0,.39-.67l.09-.27-.72-.23.15-.47,1.17.39L19,45.13Z"/><path class="cls-1" d="M25.19,44.1a1.51,1.51,0,0,1-.33,1,1.2,1.2,0,0,1-1,.33,1.22,1.22,0,0,1-.95-.4,1.6,1.6,0,0,1-.27-1l.11-3.17.56,0L23.22,44a.94.94,0,0,0,.18.67.64.64,0,0,0,.5.23.69.69,0,0,0,.52-.19,1,1,0,0,0,.21-.65l.11-3.18.56,0-.11,3.18Z"/><polygon class="cls-1" points="28.38 44.95 27.88 45.02 26.3 41.99 26.55 45.25 25.95 45.33 25.6 40.77 26.29 40.7 27.59 42.83 27.34 40.54 27.84 40.45 28.38 44.95 28.38 44.95"/><polygon class="cls-1" points="30.08 44.47 29.5 44.65 28.28 40.33 28.87 40.15 30.08 44.47 30.08 44.47"/><polygon class="cls-1" points="31.66 38.99 32.4 43.77 31.82 44.05 29.3 40 29.85 39.77 31.61 42.53 31.12 39.23 31.66 38.99 31.66 38.99"/><polygon class="cls-1" points="36.35 41.7 34.22 42.85 31.9 38.86 33.93 37.77 34.19 38.21 32.64 39.05 33.36 40.28 34.78 39.52 35.04 39.96 33.62 40.73 34.45 42.15 36.1 41.26 36.35 41.7 36.35 41.7"/><path class="cls-1" d="M38.79,40l-.47.41L36.66,39l-.42.39,1.11,1.52-.47.49-2.73-3.84L35,37a1.55,1.55,0,0,1,1-.31A1.22,1.22,0,0,1,37.17,38a1.91,1.91,0,0,1-.1.62L38.79,40Zm-2.95-2.7c-.35-.1-.62.17-.87.37l.91,1.2a1.62,1.62,0,0,0,.61-.61.78.78,0,0,0-.65-1Z"/><path class="cls-1" d="M40.26,36.29a1.31,1.31,0,0,1-.52,2.39,1.71,1.71,0,0,1-.91-.16l.22-.49a1.45,1.45,0,0,0,.61.08A.73.73,0,0,0,40,36.77a.85.85,0,0,0-.6-.12c-.55.06-.9.47-1.51.51a1.13,1.13,0,0,1-1.24-1,1.33,1.33,0,0,1,.2-.94,1.21,1.21,0,0,1,1.64-.31l-.21.51a.81.81,0,0,0-1,.15.63.63,0,0,0-.11.49.59.59,0,0,0,.67.54c.59-.07,1-.56,1.57-.54a1.88,1.88,0,0,1,.89.25Z"/><polygon class="cls-1" points="42.27 35.7 41.93 36.12 38 33.65 38.34 33.23 42.27 35.7 42.27 35.7"/><polygon class="cls-1" points="40.29 30.72 39.85 31.53 43.57 33.71 43.32 34.17 39.6 31.99 39.17 32.8 38.7 32.52 39.82 30.45 40.29 30.72 40.29 30.72"/><polygon class="cls-1" points="40.97 27.65 43.23 29.68 44.75 30.32 44.56 30.83 43.16 30.29 39.94 30.22 40.09 29.7 42.34 29.74 40.75 28.27 40.97 27.65 40.97 27.65"/><path class="cls-1" d="M9.93,39a1.8,1.8,0,0,1-1.13.61,1.23,1.23,0,0,1-.94-.41,1.25,1.25,0,0,1-.38-.92,1.13,1.13,0,0,1,.15-.54l.51.31a.61.61,0,0,0-.06.25.6.6,0,0,0,.17.47.64.64,0,0,0,.54.24,1.17,1.17,0,0,0,.69-.43l2.27-2.24.42.43L9.93,39Z"/><path class="cls-1" d="M17.64,38.2l-1.59-1,.14-.25.59.37.95-1.64-.59-.37.13-.22a1.68,1.68,0,0,0,.53.23.35.35,0,0,0,.34-.16l.34.21-1.27,2.21.57.36-.14.25Zm4.74-1a.34.34,0,0,0-.13-.34,1,1,0,0,0-.52-.2,1.08,1.08,0,0,0-.55,0,.37.37,0,0,0-.26.28.31.31,0,0,0,0,.25,1,1,0,0,0,.28.22l.26.12a1.73,1.73,0,0,0,.32.14,1,1,0,0,0,.4-.21.54.54,0,0,0,.15-.3Zm-.21,1.43a.35.35,0,0,0,0-.29,1.13,1.13,0,0,0-.37-.27L21.51,38l-.35-.15a1.15,1.15,0,0,0-.43.2.63.63,0,0,0-.2.33.5.5,0,0,0,.16.46.94.94,0,0,0,.56.24,1.12,1.12,0,0,0,.62-.05.49.49,0,0,0,.3-.36Zm-1,.7a2.34,2.34,0,0,1-.58-.15,1.22,1.22,0,0,1-.42-.24.66.66,0,0,1-.22-.31.65.65,0,0,1,0-.34.66.66,0,0,1,.27-.4,1.61,1.61,0,0,1,.62-.23h0a1.45,1.45,0,0,1-.43-.33.46.46,0,0,1-.08-.38.7.7,0,0,1,.48-.48,2.11,2.11,0,0,1,1-.08,1.91,1.91,0,0,1,.91.34.53.53,0,0,1,0,.91,1.24,1.24,0,0,1-.56.22h0a1.79,1.79,0,0,1,.52.36.5.5,0,0,1,.11.46.78.78,0,0,1-.53.55,2.14,2.14,0,0,1-1.06.1Zm5.5-1.74a1.26,1.26,0,0,0-.08-.48.71.71,0,0,0-.23-.28.67.67,0,0,0-.25-.13,1.29,1.29,0,0,0-.29,0,.83.83,0,0,0-.56.17.57.57,0,0,0-.21.48.53.53,0,0,0,.07.3.59.59,0,0,0,.23.21.84.84,0,0,0,.24.07,1.42,1.42,0,0,0,.3,0,1.84,1.84,0,0,0,.39,0,2.51,2.51,0,0,0,.38-.11v-.08a.34.34,0,0,0,0-.1Zm-2.2-.25a.77.77,0,0,1,.1-.4,1,1,0,0,1,.3-.32,1.5,1.5,0,0,1,.44-.2,2.24,2.24,0,0,1,.52-.06,1.8,1.8,0,0,1,.53.06,1.35,1.35,0,0,1,.42.19,1,1,0,0,1,.34.41,1.57,1.57,0,0,1,.13.65,1.7,1.7,0,0,1-.13.67,1.2,1.2,0,0,1-.35.53,1.63,1.63,0,0,1-.59.34,2.68,2.68,0,0,1-.86.11H25.1a.88.88,0,0,1-.24,0v-.36h0l.22.05a1.63,1.63,0,0,0,.31,0,1.47,1.47,0,0,0,.89-.25,1,1,0,0,0,.36-.71,2,2,0,0,1-.89.2,1.91,1.91,0,0,1-.43,0,1.56,1.56,0,0,1-.4-.13.84.84,0,0,1-.34-.3.75.75,0,0,1-.12-.43Zm6.23-2.44-.11,2.94-.45.29,0-2.79-1.72.84-.15-.33,2.16-1.13.23.18Z"/><path class="cls-1" d="M32.88,12.36c-.32-.22-.06-.24,0-.57s-.08-.61,0-.8c.23-.5.87-.21,1.21.11a.78.78,0,0,1,.13.34c.07.33.14.8-.26,1a1.23,1.23,0,0,1-1.08-.06Z"/><path class="cls-1" d="M29.14,10.24l0,0,.05-.1a11.49,11.49,0,0,0,1.33-.27,1.58,1.58,0,0,0,.93-.58,10.14,10.14,0,0,1-2.34,0,4.73,4.73,0,0,1-.63-.66.08.08,0,0,0,0,0c-.27-.39-.18-.72.28-.69a5.68,5.68,0,0,0,2.7.38,3,3,0,0,0,.84-.08,27,27,0,0,0,1.21-2.72c.48-.55.71,0,1,.53a3.07,3.07,0,0,1,.11.31l0,0c.06.33.06.47-.3.62a3.59,3.59,0,0,0-.82,1.34c.52.12,1-.19,1.54,0a.55.55,0,0,1-.4.65c-.49,0-1,0-1.56.05a3.57,3.57,0,0,1-1.2,1.18,3,3,0,0,1-.47.18,4.1,4.1,0,0,1-1.09.12,4.16,4.16,0,0,1-1.18-.2Z"/><path class="cls-1" d="M17.19,11.89A2.78,2.78,0,0,1,16,11.23c0-.11,0-.22,0-.33a23.47,23.47,0,0,0,2-2.71c.14-.44.36-.91.52-1.34,0,0,0,0,0,0v0c.17-.23.26-.3.52-.07.08.24-.28.61-.36.87-.06.48-.13,1-.24,1.46a3.5,3.5,0,0,0-.21.63,3.09,3.09,0,0,0-.43,1.13c-.24.23-.23.75-.52,1l-.2.08Z"/><path class="cls-1" d="M21.57,7.45c-.55.12-.79-.18-1.17-.42,0-.14,0-.25,0-.35a.57.57,0,0,0,.2-.14c.22-.09.3-.1.55-.18s.94-.91,1.27-.75a1.86,1.86,0,0,1-.85,1.84Z"/><path class="cls-1" d="M17.14,7.5c-.26-.12-.52-1-.6-1.21,0-.51.49-.65,1-.45s.68.44.48,1a1.47,1.47,0,0,1-.84.65Z"/><path class="cls-1" d="M21,6.05c-.12-.24.09-.88-.05-1a3.36,3.36,0,0,1-.38.19c-.37-.08-.83-.38-.78-.72s.1-.24.47-.36.63-.51,1-.76c.57-.27.94,0,1.13.58A2.8,2.8,0,0,1,22,5.14c-.28.26-.52.53-.76.8a1.75,1.75,0,0,0-.24.11Z"/><path class="cls-1" d="M17.27,5.19c-.16-.08-.12-.15-.08-.28s-.29-.41-.37-.65c0-.46-.16-.6.15-.91.32,0,1.44.3,1.35.92a2,2,0,0,1-1.05.92Z"/><path class="cls-1" d="M9.62,21.88c-.48.36-1.68.18-1.55-.53A.34.34,0,0,1,8,21.07l0,0a17.78,17.78,0,0,0-.84-2.13c-.12-.22-.27-.38-.18-.63.16-.05.35.12.49.25s.14-.2.17-.32c-.07-.49,0-1.06-.14-1.56l-.39-.32c-.08.26-.37,1.1-.68.66a2,2,0,0,0-.11-1.24c-.25-.26-.61-.43-.73-.72s.65-.53,1-.38.27-.54.64.36c0,.15.16.24.33.32a.86.86,0,0,1,.07-.1c0-.39,0-.82,0-1.24a4.11,4.11,0,0,1-.93-1.08c0-.43.46-.7.88-.84a1.27,1.27,0,0,0,.1-.73c0-.1,0-.1.12-.25a1.14,1.14,0,0,1,.43.14c.35.43-.3,1.78.37,1.86.13-.23-.07-.46-.18-.64,0-.33.52-.76.87-.9.53-.07.51.23.53.69a1.42,1.42,0,0,1,.08.18c.7.46.7.46,1.66,1.05a2.11,2.11,0,0,1,.35.76l0,0,0,0c.13.26.16.69-.15.75-.79-.5-1.58-1-2.34-1.5a.11.11,0,0,0,0,.05,3.15,3.15,0,0,1,.85,1.61.74.74,0,0,1-.82.38c-.05-.08,0-.15-.05-.25a4.23,4.23,0,0,0-1.25-.95c-.12.26.17,1,.26,1.34s0,.37.07.55c.23.27.48.52.74.79l.3.48,0,0c.13.24.4.93-.06.95l-.13-.08a2.26,2.26,0,0,0-.75-.94c-.09.36,0,.73-.11,1a2.36,2.36,0,0,1-.44.38l0,0c-.09.05-.2.08-.21.14l.41.48a15.36,15.36,0,0,0,1.53,2,.47.47,0,0,1,0,.37Z"/><path class="cls-1" d="M6.26,18.94c-.19,0-.3-.22-.45-.32-.54-.13-.94-.22-1.14-.74a1.09,1.09,0,0,1,.08-.15,4.73,4.73,0,0,1,1.12-.22c.67.12.48.95.39,1.43Z"/><path class="cls-1" d="M4.81,17.44a.2.2,0,0,1-.18.06c-.08-.12-.11-.21-.23-.26-.59,0-1.21-.4-1.13-1,.11-.13.22-.06.45,0,.49-.12,1.21-.46,1.28.33,0,.29-.12.59-.19.87Z"/><path class="cls-1" d="M38.31,16c-.25-.47.41-1,.71-1.18.43.1.43.79.14,1.12s-.45.33-.85.06Z"/><path class="cls-1" d="M37.57,20.65s0,0,0,0a4.66,4.66,0,0,1-1.16-1.47.28.28,0,0,1,.07-.11c.39.1.69.47,1.13.4a2.86,2.86,0,0,0,.57-.51c-.48-.42-1-.34-1.54-.57a1.69,1.69,0,0,1-.46-1.45c.4-.41.3-.14.76.25A9.72,9.72,0,0,0,39,18a.76.76,0,0,1,.26.05.76.76,0,0,1,1,.07l.83.21.15-.08a5.48,5.48,0,0,0-2.43-.66,1.21,1.21,0,0,1-.54-.62c-.12-.09-.82-.57-.29-.53.25.11.51.11.78.22.75.14,1.52.39,2.29.59a.41.41,0,0,0,.09-.18.89.89,0,0,1,.27-.19c-.12-.06-.14-.09-.22,0-.42-.15-.8,0-.77-.53a.76.76,0,0,1-.93,0c-.13-.39.29-.82.44-1.07,0,0,.13-.25.25-.51s.17-.83.52-.91c.3.07.41.1.32.5a2.93,2.93,0,0,1,0,.85l0,0a2.8,2.8,0,0,1-.51,1c.21.05.56.09.63-.18-.11-.34.22-.43.46-.35a1,1,0,0,0,.26.24.16.16,0,0,0,.05-.12c-.12-.25-.05-.25.15-.36a.49.49,0,0,1,.25-.68,10.7,10.7,0,0,0,1.17.66c.44,0,1.31-.51,1.57,0a1.17,1.17,0,0,1-.43.78,1.68,1.68,0,0,0-.42.17l.11.11c.39.13.67.09.44.64.12.39.24.44-.22.72s-1.14.39-1.71.56l-.06,0a1.63,1.63,0,0,1,.11.17,4.93,4.93,0,0,1-.54.61c-.39.08-.59-.12-.87-.33-.48-.16-.9-.31-1.38-.43a.84.84,0,0,0-.17.22c.16.14.31.3.47.45s-.26.58-.55.66a1.55,1.55,0,0,0-.53-.29l-.3.21c-.32.35-.94,1.33-1.51.92Zm5-3.15s0,0,0,0c.27-.25.35-.34.07-.54a.21.21,0,0,1-.23,0s0,0,0,0l.06,0a.19.19,0,0,1,0-.07,2.2,2.2,0,0,0,.51-.17.94.94,0,0,1,.37.6.92.92,0,0,1-.77.28Z"/><path class="cls-2" d="M53.9,47.7V34.83a1.46,1.46,0,0,1,1.1-.27h5c.83,0,.88-.06.89-.87V14c0-.81-.06-.86-.89-.87H55a1.46,1.46,0,0,1-1.1-.27c0-4.09,0-8.17,0-12.26,0-.58.17-.62.66-.62Q70.74,0,87,0A1.18,1.18,0,0,1,87,.65V12.2c0,.81-.09.93-.92,1-1.75,0-3.5,0-5.26,0-.87,0-.92.05-.92.9q0,9.76,0,19.52c0,.89.06.95,1,1,1.68,0,3.36,0,5,0,1,0,1.1.1,1.1,1.13,0,3.78,0,7.56,0,11.33,0,.62-.19.77-.79.76H54.54A1.08,1.08,0,0,1,53.9,47.7Z"/><path class="cls-3" d="M70.43,45.85c-4.63,0-9.26,0-13.9,0-.66,0-.8-.19-.8-.82,0-2.56,0-5.12,0-7.68,0-.51.13-.67.65-.66,1.48,0,3,0,4.46,0a2,2,0,0,0,2.26-2.22V13.21A1.92,1.92,0,0,0,61,11c-1.53,0-3.07,0-4.6,0-.49,0-.62-.15-.62-.62,0-2.63,0-5.27,0-7.9,0-.58.22-.67.73-.67,5.7,0,11.41,0,17.11,0,3.59,0,7.17,0,10.75,0,.67,0,.81.18.8.81,0,2.56,0,5.13,0,7.68,0,.54-.13.72-.69.71-1.51,0-3,0-4.53,0a1.92,1.92,0,0,0-2.15,2.17V34.49A2,2,0,0,0,80,36.72c1.51,0,3,0,4.53,0,.46,0,.58.14.58.58,0,2.64,0,5.27,0,7.9,0,.59-.21.67-.72.67Z"/><path class="cls-2" d="M117.59,1V4.27l-6.72,9.8h6.72v3.19H105.8V14.07l6.69-9.8h-6.31V1Z"/><path class="cls-2" d="M129.44,1V13.6a3.51,3.51,0,0,1-1.23,2.68q-1.25,1.11-4.5,1.11l-.49,0a6,6,0,0,1-3.35-.92,3.22,3.22,0,0,1-1.46-2.58V10.85h4.5V13.6a1.14,1.14,0,0,0,.25.78.81.81,0,0,0,.52.29H124a1.26,1.26,0,0,0,.52-.38,1.17,1.17,0,0,0,.24-.76V1Z"/><path class="cls-2" d="M136,13.11a1.59,1.59,0,0,0,.4,1.17,1.25,1.25,0,0,0,.89.39h.14a1.44,1.44,0,0,0,.81-.45,1.5,1.5,0,0,0,.37-1.11V1h4.55v12.4a3.53,3.53,0,0,1-1.62,3,6.82,6.82,0,0,1-4.11,1.17,7.64,7.64,0,0,1-4.29-1.09,3.78,3.78,0,0,1-1.64-3.37V1H136Z"/><path class="cls-2" d="M152.12,8.94v3h-6.69v-3Z"/><path class="cls-2" d="M159,13.11a1.55,1.55,0,0,0,.4,1.17,1.23,1.23,0,0,0,.89.39h.13a1.38,1.38,0,0,0,.81-.45,1.5,1.5,0,0,0,.37-1.11V1h4.56v12.4a3.53,3.53,0,0,1-1.62,3,6.85,6.85,0,0,1-4.12,1.17,7.66,7.66,0,0,1-4.29-1.09,3.78,3.78,0,0,1-1.63-3.37V1H159Z"/><path class="cls-2" d="M173.35,17.26h-4.69V1h4.69Z"/><path class="cls-2" d="M180.15,13.11a1.59,1.59,0,0,0,.4,1.17,1.25,1.25,0,0,0,.89.39h.14a1.44,1.44,0,0,0,.81-.45,1.5,1.5,0,0,0,.37-1.11V1h4.55v12.4a3.54,3.54,0,0,1-1.61,3,6.88,6.88,0,0,1-4.12,1.17,7.66,7.66,0,0,1-4.29-1.09,3.78,3.78,0,0,1-1.63-3.37V1h4.49Z"/><path class="cls-2" d="M201.79,10.85v2.59a3.52,3.52,0,0,1-1.43,2.76,7.37,7.37,0,0,1-4.68,1.19,7.24,7.24,0,0,1-4.06-1.1,3.44,3.44,0,0,1-1.67-3V5a1.15,1.15,0,0,1,0-.26,4.49,4.49,0,0,1,1.43-2.86c.87-.86,2.36-1.29,4.46-1.29a7.64,7.64,0,0,1,4.29,1.09,3.67,3.67,0,0,1,1.63,3.26V7.17h-4.55V5.08a1.19,1.19,0,0,0-.42-1,1.81,1.81,0,0,0-.95-.44.15.15,0,0,0-.08,0h-.11a1.21,1.21,0,0,0-.85.36,1.57,1.57,0,0,0-.39,1.2v7.41a2.37,2.37,0,0,0,.43,1.53,1.24,1.24,0,0,0,.95.5H196a1.41,1.41,0,0,0,.89-.57,2.29,2.29,0,0,0,.4-1.46V10.85Z"/><path class="cls-2" d="M215.8,17.26h-4.69V1h4.69Z"/><path class="cls-2" d="M223,1l3.79,9.66V1h4.55V17.26h-5.15l-3.76-9.75v9.75h-4.31V1Z"/><path class="cls-2" d="M237.58,11.81s0,.09,0,.14a.69.69,0,0,1,0,.13c0,.12,0,.24,0,.35s0,.21,0,.3A1.88,1.88,0,0,0,238,14.2a1.91,1.91,0,0,0,1.08.49.55.55,0,0,0,.18,0h.18a1.46,1.46,0,0,0,1-.38,1.1,1.1,0,0,0,.35-.82,1.94,1.94,0,0,0-.28-.9,3.65,3.65,0,0,0-.85-1c-.14-.12-.3-.24-.48-.37s-.36-.25-.56-.37l-.18-.12-.18-.12-.79-.49c-.28-.16-.56-.34-.85-.52a10.44,10.44,0,0,1-2.11-1.77,3.89,3.89,0,0,1-1-2.75,3.39,3.39,0,0,1,.12-.83,4.26,4.26,0,0,1,.37-.94,5.42,5.42,0,0,1,1.63-1.78,4.89,4.89,0,0,1,2.95-.8,10.07,10.07,0,0,1,4.62,1,3.77,3.77,0,0,1,2,3.68,1.5,1.5,0,0,1,0,.2,2,2,0,0,0,0,.25s0,.07,0,.11a.65.65,0,0,0,0,.11v.25h-4.36a1.51,1.51,0,0,0,.07-.37c0-.13,0-.24,0-.35a2.28,2.28,0,0,0-.44-1.39,1.26,1.26,0,0,0-1.06-.61h-.14a2.67,2.67,0,0,0-1.28.45.94.94,0,0,0-.4.71,1.09,1.09,0,0,0,.07.33,2.21,2.21,0,0,0,.18.34,2.48,2.48,0,0,0,.34.46c.14.15.28.29.43.43l.4.3a4.92,4.92,0,0,0,.45.28c.33.21.68.41,1.06.62l1.13.65a13.87,13.87,0,0,1,2.69,2,4,4,0,0,1,1.24,3.06v.62a3.4,3.4,0,0,1-1.92,2.59,8.15,8.15,0,0,1-4.2,1.07l-.85,0c-1.94-.07-3.29-.49-4.06-1.24a4.14,4.14,0,0,1-1.32-2.48c0-.12,0-.24,0-.36s0-.24,0-.36a2.72,2.72,0,0,1,0-.28c0-.09,0-.19,0-.28a1,1,0,0,1,0-.17,1.16,1.16,0,0,1,0-.18.91.91,0,0,1,0-.23,1.5,1.5,0,0,0,0-.2Z"/><path class="cls-2" d="M257.49,1V4.27h-2.93v13H250v-13h-2.94V1Z"/><path class="cls-2" d="M263.75,17.26h-4.69V1h4.69Z"/><path class="cls-2" d="M275.59,1V4.27h-2.93v13h-4.55v-13h-2.94V1Z"/><path class="cls-2" d="M281.79,13.11a1.59,1.59,0,0,0,.4,1.17,1.23,1.23,0,0,0,.89.39h.14a1.44,1.44,0,0,0,.81-.45,1.55,1.55,0,0,0,.37-1.11V1H289v12.4a3.53,3.53,0,0,1-1.62,3,6.82,6.82,0,0,1-4.11,1.17,7.64,7.64,0,0,1-4.29-1.09,3.78,3.78,0,0,1-1.63-3.37V1h4.49Z"/><path class="cls-2" d="M301.13,1V4.27H298.2v13h-4.56v-13h-2.93V1Z"/><path class="cls-2" d="M313,1V4.12h-5.73V7.51h4.93V10.7h-4.93v3.52H313v3H302.53V1Z"/><path class="cls-2" d="M108.52,41.55a2.43,2.43,0,0,0-.46.7,8.1,8.1,0,0,0-1.67-1q.19-.3.39-.66C107.5,40.93,108.08,41.27,108.52,41.55Zm-1.41,3.2a15.28,15.28,0,0,0,.56-1.65,2.34,2.34,0,0,0,.78.43c-.31.72-.55,1.32-.7,1.8a12.61,12.61,0,0,0-.35,1.26,3.81,3.81,0,0,0-1-.46A8.06,8.06,0,0,0,107.11,44.75Zm1.57-5.56a2.67,2.67,0,0,0-.47.62,17.31,17.31,0,0,0-1.55-1.21,4.15,4.15,0,0,0,.43-.58Zm1.12,3V40.5c-.38,0-.76,0-1.12,0v-.69a8.22,8.22,0,0,0,1.12.07V39c0-.46,0-.86,0-1.2h.82c0,.28,0,.66,0,1.12v1a7.36,7.36,0,0,0,1-.07v.69c-.39,0-.73,0-1,0v1.44c.36-.1.69-.21,1-.31a4.2,4.2,0,0,0,.12.66,6.5,6.5,0,0,0-1.09.39v2.67a.69.69,0,0,1-.37.72,3.24,3.24,0,0,1-1.14.29,2.21,2.21,0,0,0-.31-.85,2.74,2.74,0,0,0,.85,0c.16,0,.23-.19.23-.45V43a5.07,5.07,0,0,0-1.2.54c-.1-.31-.19-.61-.27-.89A14.2,14.2,0,0,0,109.8,42.21Zm4.35-3.55q-.66.06-1.44.18v1.7h1.48a8.61,8.61,0,0,0,1,0v.7l-.73,0V45c0,.42,0,.91,0,1.48h-.86c0-.83,0-1.49,0-2v-3.3h-1c0,.73,0,1.36,0,1.88a6.9,6.9,0,0,1-.29,1.67,7,7,0,0,1-.75,1.69,2.27,2.27,0,0,0-.86-.39,4.33,4.33,0,0,0,1-2.11,15,15,0,0,0,.2-3c0-1.21,0-2.06,0-2.56l1.49-.17a4.48,4.48,0,0,0,1.38-.41c.13.29.27.57.42.86Z"/><path class="cls-2" d="M118.37,41.32a2,2,0,0,0-.46.81,9.63,9.63,0,0,0-1.75-1,5.25,5.25,0,0,0,.39-.73A12.8,12.8,0,0,1,118.37,41.32Zm-.19,3.41c-.31.75-.56,1.38-.74,1.9a6.82,6.82,0,0,0-1.08-.5,6.72,6.72,0,0,0,1-1.57,12.63,12.63,0,0,0,.75-1.81,3.7,3.7,0,0,0,.93.47A4.93,4.93,0,0,0,118.18,44.73Zm.81-5.82a6.35,6.35,0,0,0-.54.74,10.44,10.44,0,0,0-1.55-1.12,5.07,5.07,0,0,0,.43-.66A18.84,18.84,0,0,1,119,38.91Zm4-.34c.57,0,1.15,0,1.74-.08v.85c-.59,0-1.15,0-1.66,0h-.66v6h.89l1.94,0v.81c-.7,0-1.35,0-1.94,0h-2.44c-.6,0-1.27,0-2,0v-.81l2,0h.73v-6h-.42c-.57,0-1.17,0-1.79,0v-.81c.65,0,1.24,0,1.79,0Z"/><path class="cls-2" d="M130.24,40.39c0-.91,0-1.51,0-1.82s0-.61-.06-.9a9.55,9.55,0,0,0,1.05.12,5.54,5.54,0,0,0-.18,1.12c0,.5,0,1,0,1.48h2c.7,0,1.35,0,1.94-.08v.85q-.77,0-1.59,0h-2.29a5.29,5.29,0,0,0,.55,1.33,10.15,10.15,0,0,0,.79,1.21,7.45,7.45,0,0,0,1.13,1.1,7.22,7.22,0,0,0,1.57,1,2.38,2.38,0,0,0-.62.78,8.66,8.66,0,0,1-1.38-1A8.89,8.89,0,0,1,131.73,44a9.48,9.48,0,0,1-1-1.76,8.29,8.29,0,0,1-.66,1.42,9,9,0,0,1-.76,1,6.18,6.18,0,0,1-1,.93,15.25,15.25,0,0,1-1.45.93,4.25,4.25,0,0,0-.7-.81A7.21,7.21,0,0,0,127.7,45a5,5,0,0,0,1.3-1.14,5.84,5.84,0,0,0,.81-1.34,4.55,4.55,0,0,0,.39-1.35h-2.13q-.93,0-1.47,0v-.85c.36,0,.85,0,1.47.08Z"/><path class="cls-2" d="M143.23,41.51v.82a3.27,3.27,0,0,0-1,.37c-.3.16-.64.34-1,.52v.35h2.44c.31,0,.71,0,1.2,0v.78c-.52,0-.92,0-1.2,0h-2.44v1.59a.64.64,0,0,1-.43.68,7,7,0,0,1-1.4.21,2.82,2.82,0,0,0-.39-.85h1.05c.26,0,.39-.15.39-.43v-1.2h-2.68c-.41,0-.88,0-1.39,0v-.78c.54,0,1,0,1.36,0h2.71a3.76,3.76,0,0,0-.08-.7l1.4-.7h-2.13c-.5,0-1,0-1.67,0v-.74c.57,0,1.11,0,1.63,0Zm-.58-1.74h2.13c0,.23,0,.5,0,.81s0,.61,0,.89H144v-1h-6.71v1.08h-.82c0-.31,0-.62,0-.93a6.44,6.44,0,0,0,0-.81h5.4l.64-1.15a8,8,0,0,0,.52-1.18c.41.23.74.4,1,.5A12,12,0,0,0,142.65,39.77ZM138.81,39a4.51,4.51,0,0,0-.66.58A6.46,6.46,0,0,0,137,38.33a5.22,5.22,0,0,0,.62-.5A9.71,9.71,0,0,1,138.81,39Zm2.41-.12a7.47,7.47,0,0,1-.74.51,8.85,8.85,0,0,0-.93-1.4l.7-.46A12.66,12.66,0,0,1,141.22,38.91Z"/><path class="cls-2" d="M148.74,38.84c-.16.33-.3.64-.43.93V45c0,.57,0,1.06,0,1.48h-.85c0-.39,0-.88,0-1.48V41.09c-.44.69-.78,1.2-1,1.51A3.45,3.45,0,0,0,146,42a8.74,8.74,0,0,0,1.21-1.73,11.22,11.22,0,0,0,1.12-2.65,3.16,3.16,0,0,0,.85.42A5.21,5.21,0,0,0,148.74,38.84Zm5.62-.47c0,.39,0,1.1,0,2.13.34,0,.62,0,.86,0v.73c-.24,0-.52,0-.86,0v1.36c0,.31,0,.75,0,1.32h-.77v-.58h-2.06a6.79,6.79,0,0,1-1.71,3.33,1.57,1.57,0,0,0-.85-.42,4.5,4.5,0,0,0,1.79-2.91c-.63,0-1.1,0-1.44,0v-.74c.34,0,.85,0,1.55,0a10.81,10.81,0,0,0,.08-1.44c-1,0-1.68,0-2,0v-.73c.36,0,1,0,2,0V39c-.36,0-.84,0-1.44,0v-.74c.42,0,.9,0,1.44,0Zm-.77,4.23V41.16h-1.87a14.16,14.16,0,0,1-.07,1.44Zm0-2.1V39h-1.83c0,.52,0,1,0,1.47Z"/><path class="cls-2" d="M161,43.3a6.32,6.32,0,0,0-.58.58,11.4,11.4,0,0,0-1.12-1.44v2.87c0,.62,0,1.09,0,1.4h-.86c0-.34,0-.8,0-1.4V42.6a11.91,11.91,0,0,1-.81,1.36c-.26.36-.6.79-1,1.28a2.08,2.08,0,0,0-.66-.66,7.4,7.4,0,0,0,1.53-1.77,7,7,0,0,0,.87-1.72h-.73c-.62,0-1.08,0-1.36,0v-.74c.31,0,.76,0,1.36,0h.81V38.91c-.52.11-1.07.21-1.67.32a3.22,3.22,0,0,0-.31-.74,16.18,16.18,0,0,0,1.83-.27,20.37,20.37,0,0,0,2.21-.58,2.9,2.9,0,0,0,.5.81c-.52.08-1.11.18-1.78.31v1.67h.66c.54,0,1,0,1.43,0v.74c-.41,0-.88,0-1.39,0h-.7v.46A20.3,20.3,0,0,1,161,43.3Zm1.71-2.76V43c0,.54,0,1,0,1.39h-.85c0-.46,0-.93,0-1.39V40.54c0-.41,0-.82,0-1.24h.85C162.67,39.61,162.66,40,162.66,40.54ZM164.44,39v6.79a.57.57,0,0,1-.36.6,8,8,0,0,1-1.3.29,4.85,4.85,0,0,0-.27-.93,3.3,3.3,0,0,0,1,0,.3.3,0,0,0,.18-.31V39c0-.36,0-.79,0-1.28h.85C164.46,38,164.44,38.41,164.44,39Z"/><path class="cls-2" d="M168.63,44.27c-.33.36-.63.69-.89,1s-.47.57-.62.78a5.25,5.25,0,0,0-.62-.54,1,1,0,0,0,.27-.7V41c-.23,0-.54,0-.93,0v-.66c.28,0,.65,0,1.09,0h.58c0,.44,0,.94,0,1.51v2.52c.18-.23.39-.53.62-.89A3.73,3.73,0,0,0,168.63,44.27Zm-2.21-6.17a4.31,4.31,0,0,0,.62-.46,11.82,11.82,0,0,1,1.05,1.55l-.66.42A6.88,6.88,0,0,0,166.42,38.1Zm4.93,3.8a10.76,10.76,0,0,1-.51,1h3.26c0,.36,0,.93,0,1.71s0,1.44,0,2h-.74v-.66h-2.9v.7h-.74c0-.49,0-1.21,0-2.17-.24.31-.51.63-.82,1a1.66,1.66,0,0,0-.58-.54,7.05,7.05,0,0,0,1.22-1.32,8.58,8.58,0,0,0,.95-1.67h-.93c-.36,0-.77,0-1.24,0v-.7c.49,0,.94,0,1.36,0h1.08a7,7,0,0,0,.31-1.2c.26.08.56.15.9.23a2.92,2.92,0,0,0-.47,1h2c.36,0,.77,0,1.24,0v.7c-.41,0-.79,0-1.13,0Zm3.37-2.36c-.39,0-.92,0-1.59,0,0,.2,0,.55,0,1h-.74v-1h-1.86l0,1.08h-.78c0-.51,0-.88,0-1.08-.44,0-.89,0-1.35,0v-.7c.36,0,.81,0,1.35,0,0-.49,0-.91,0-1.24h.78c0,.33,0,.75,0,1.24h1.86a11,11,0,0,0,0-1.24h.78a12.07,12.07,0,0,0,0,1.27q.9,0,1.59,0Zm-1.36,5.77V43.49h-2.9v1.82Z"/><path class="cls-2" d="M178.52,38.84c-.15.33-.3.64-.42.93V45c0,.57,0,1.06,0,1.48h-.85c0-.39,0-.88,0-1.48V41.09c-.44.69-.78,1.2-1,1.51a3,3,0,0,0-.54-.58,9.26,9.26,0,0,0,1.2-1.73,11.25,11.25,0,0,0,1.13-2.65,3,3,0,0,0,.85.42A5.11,5.11,0,0,0,178.52,38.84Zm5.62-.47q0,.59,0,2.13c.33,0,.62,0,.85,0v.73c-.23,0-.52,0-.85,0v1.36q0,.46,0,1.32h-.77v-.58h-2.06a6.78,6.78,0,0,1-1.7,3.33,1.59,1.59,0,0,0-.86-.42,4.5,4.5,0,0,0,1.79-2.91c-.62,0-1.1,0-1.44,0v-.74c.34,0,.86,0,1.55,0a9.34,9.34,0,0,0,.08-1.44c-1,0-1.68,0-2,0v-.73q.54,0,2,0V39c-.36,0-.84,0-1.43,0v-.74c.41,0,.89,0,1.43,0Zm-.77,4.23V41.16h-1.86a14.21,14.21,0,0,1-.08,1.44Zm0-2.1V39h-1.82c0,.52,0,1,0,1.47Z"/><path class="cls-2" d="M189.81,40.39c0-.91,0-1.51,0-1.82l-.06-.9a9.64,9.64,0,0,0,1,.12,6.53,6.53,0,0,0-.17,1.12c0,.5-.06,1-.06,1.48h2c.7,0,1.34,0,1.94-.08v.85q-.78,0-1.59,0h-2.29a4.9,4.9,0,0,0,.54,1.33,10.16,10.16,0,0,0,.8,1.21,7.33,7.33,0,0,0,1.12,1.1,7.47,7.47,0,0,0,1.57,1,2.67,2.67,0,0,0-.62.78,9.07,9.07,0,0,1-1.37-1A8.13,8.13,0,0,1,191.3,44a9.58,9.58,0,0,1-1-1.76,7.59,7.59,0,0,1-.66,1.42,7.9,7.9,0,0,1-.75,1,6.18,6.18,0,0,1-1.05.93,15.48,15.48,0,0,1-1.46.93,3.89,3.89,0,0,0-.69-.81,7.21,7.21,0,0,0,1.61-.78,5,5,0,0,0,1.3-1.14,6.65,6.65,0,0,0,.81-1.34,4.55,4.55,0,0,0,.39-1.35h-2.13c-.63,0-1.12,0-1.48,0v-.85c.36,0,.85,0,1.48.08Z"/><path class="cls-2" d="M202.8,41.51v.82a3.27,3.27,0,0,0-1,.37c-.3.16-.64.34-1,.52v.35h2.45c.3,0,.71,0,1.2,0v.78c-.52,0-.92,0-1.2,0h-2.45v1.59a.63.63,0,0,1-.43.68,6.83,6.83,0,0,1-1.39.21,3.08,3.08,0,0,0-.39-.85h1.05c.26,0,.39-.15.39-.43v-1.2h-2.68c-.41,0-.88,0-1.4,0v-.78c.55,0,1,0,1.36,0H200a3.76,3.76,0,0,0-.08-.7l1.39-.7h-2.13c-.49,0-1.05,0-1.67,0v-.74c.57,0,1.12,0,1.63,0Zm-.58-1.74h2.13a6.44,6.44,0,0,0,0,.81,8.45,8.45,0,0,0,0,.89h-.82v-1h-6.7v1.08H196c0-.31,0-.62,0-.93a6.44,6.44,0,0,0,0-.81h5.39c.21-.36.42-.75.64-1.15a6.35,6.35,0,0,0,.52-1.18c.42.23.74.4,1,.5A12.65,12.65,0,0,0,202.22,39.77ZM198.38,39a3.65,3.65,0,0,0-.66.58,6.51,6.51,0,0,0-1.17-1.28,4.72,4.72,0,0,0,.63-.5A9.71,9.71,0,0,1,198.38,39Zm2.4-.12a6.46,6.46,0,0,1-.74.51,7.65,7.65,0,0,0-.93-1.4l.7-.46A11.32,11.32,0,0,1,200.78,38.91Z"/><path class="cls-2" d="M214.28,39c-.24,0-.7,0-1.4,0h-5.39v3.22a11,11,0,0,1-.1,1.67,6.05,6.05,0,0,1-.33,1.3,9.11,9.11,0,0,1-.73,1.49,4.79,4.79,0,0,0-.82-.54,4.21,4.21,0,0,0,.91-1.61,6.77,6.77,0,0,0,.29-2.11V39.57c0-.31,0-.75-.07-1.31h6.24c.52,0,1,0,1.4,0Zm-3.42,4.11A3.78,3.78,0,0,0,212,43c.17-.07.25-.28.25-.64l.12-1.71h-2.83v4.23q0,.66.69.66H213c.28,0,.45-.09.5-.28s.1-.45.16-.81a6,6,0,0,0,.89.43,5.57,5.57,0,0,1-.43,1,.91.91,0,0,1-.81.31h-3.69c-.57,0-.85-.25-.85-.74V41.78c0-.72,0-1.31,0-1.78h4.5q-.07.51-.12,1.11c0,.4-.06.89-.11,1.47s-.2.93-.45,1.05a5.27,5.27,0,0,1-1.38.29A2.34,2.34,0,0,0,210.86,43.06Z"/><path class="cls-2" d="M223.35,40.74c0,1,0,1.76,0,2.32h-.78V42.4h-5.42v2.49a.76.76,0,0,0,.81.85h4.54c.39,0,.64-.1.75-.29a3.43,3.43,0,0,0,.26-1.26,1.94,1.94,0,0,0,1,.43,3.2,3.2,0,0,1-.74,1.51,1.86,1.86,0,0,1-1,.23h-5c-.91,0-1.37-.45-1.4-1.2V39.77c0-.39,0-.84,0-1.36h7C223.36,39,223.35,39.73,223.35,40.74Zm-3.84,1V39.07h-2.32v2.68Zm3.1,0V39.07h-2.36v2.68Z"/><path class="cls-2" d="M228.86,43.37c-.36.06-.84.13-1.42.24a15.37,15.37,0,0,0-1.65.38,3.31,3.31,0,0,0-.27-.69,3.56,3.56,0,0,0,1-.72,8.07,8.07,0,0,0,1-1.3l-1,0a2.57,2.57,0,0,0-.85.17,4.19,4.19,0,0,0-.31-.69,4.32,4.32,0,0,0,1-1.15,17.08,17.08,0,0,0,1.06-1.8,3.43,3.43,0,0,0,.78.31,7.45,7.45,0,0,0-.68,1,16.66,16.66,0,0,1-1.22,1.61c.7,0,1.2,0,1.51.08.28-.47.49-.83.62-1.09a2.31,2.31,0,0,0,.78.31,9.6,9.6,0,0,0-1,1.32,12.53,12.53,0,0,1-1.46,1.78c.52-.07,1.23-.19,2.14-.35A2,2,0,0,0,228.86,43.37Zm-1.71,2.29c-.59.18-1,.33-1.28.43a1.76,1.76,0,0,0-.35-.74,12.09,12.09,0,0,0,1.22-.25l2.24-.56a2.59,2.59,0,0,0-.08.66C228.33,45.33,227.75,45.48,227.15,45.66Zm3.07.93h-.7c0-.46,0-1,0-1.74v-3.8c0-.65,0-1.2,0-1.67h1.94c0-.65,0-1.2,0-1.67.28,0,.58,0,.89,0a1.81,1.81,0,0,0-.14.66c0,.29,0,.61,0,1h2.14c0,.52,0,1,0,1.47v5c0,.33-.11.54-.31.62a6,6,0,0,1-1,.23,4.59,4.59,0,0,0-.31-.77,5.77,5.77,0,0,0,.68,0c.17,0,.25-.16.25-.39V40h-1.4a9.44,9.44,0,0,1-.11,1.59q.3.35.72.78a7.61,7.61,0,0,1,.71.85,2.21,2.21,0,0,0-.5.51,7.73,7.73,0,0,0-1.09-1.44,5,5,0,0,1-.44.93c-.17.26-.37.56-.6.89a5.33,5.33,0,0,0-.62-.35Zm0-2.94a5.43,5.43,0,0,0,.69-.9,3.24,3.24,0,0,0,.35-.87,5.59,5.59,0,0,0,.16-.91c0-.31,0-.65,0-1h-1.24Z"/><path class="cls-2" d="M239.48,42.33v-2a7.7,7.7,0,0,1-1.92,1.55,16.89,16.89,0,0,1-1.57.82c0-.21-.16-.43-.5-.66a6.51,6.51,0,0,0,1.86-.78,7,7,0,0,0,1.28-1h-1.55c-.44,0-.89,0-1.36,0v-.62c.47,0,.92,0,1.36,0h2.4v-1c-.49.05-1.41.13-2.75.23a2.81,2.81,0,0,0-.35-.69A26.1,26.1,0,0,0,240,38a10.89,10.89,0,0,0,2.4-.5,4.52,4.52,0,0,0,.66.81q-.66,0-1.32.12l-1.55.19v1.09h2.56c.39,0,.83,0,1.32,0v.62c-.46,0-.9,0-1.32,0h-1.63a5.67,5.67,0,0,0,1.24,1.11,6.48,6.48,0,0,0,2,.83,1.58,1.58,0,0,0-.58.78,10.88,10.88,0,0,1-1.08-.51,16.5,16.5,0,0,0-.08,1.94c0,.88,0,1.59,0,2.13h-.74V46h-4.07v.62h-.66V44.5c0-.88,0-1.6,0-2.17Zm2.37,1.55v-1h-4.07v1Zm0,1.51v-1h-4.07v1ZM242,42.1a9.37,9.37,0,0,1-1.86-1.83h0v2.06h2.25Z"/><path class="cls-2" d="M246.81,38.64c0-.25,0-.54,0-.85h.74c0,.31,0,.57,0,.78v1.2c.42,0,.8,0,1.17,0v.62c-.37,0-.75,0-1.17,0v1.24c.16-.08.34-.18.55-.31l.73,1.16c-.18.11-.37.24-.58.39-.26-.44-.49-.81-.7-1.12V45.2c0,.51,0,.95,0,1.32h-.74c0-.39,0-.83,0-1.32V42.33a10.73,10.73,0,0,1-1.08,2,4.78,4.78,0,0,0-.54-.66,6.51,6.51,0,0,0,.62-.84,5.49,5.49,0,0,0,.48-1q.21-.57.45-1.47c-.52,0-1,0-1.4,0v-.62c.41,0,.9,0,1.47,0ZM249.9,46c-.27.26-.54.49-.8.7-.26-.18-.48-.32-.66-.43a5.64,5.64,0,0,0,1-.75c.32-.3.59-.56.8-.8l.69.55A4.56,4.56,0,0,0,249.9,46Zm3.54-5.16a11.25,11.25,0,0,0-1.55,0c-.49.06-1,.11-1.59.16v.89h2.33c.49,0,.89,0,1.2,0v.62c-.31,0-.72,0-1.24,0v1.28q1.4,0,1.86,0v.62a9.86,9.86,0,0,0-1,0H249.8c-.52,0-.93,0-1.24,0v-.62q.42,0,1.08,0V41.59c0-.39,0-.75,0-1.09a8.77,8.77,0,0,0,1.06,0l1-.14A9.85,9.85,0,0,0,253,40Zm-1.35-2h2.36c0,.23,0,.48,0,.74s0,.46,0,.69h-.73v-.89h-4.19v.89h-.74a5.87,5.87,0,0,0,0-.69,6.34,6.34,0,0,0,0-.74h2.48A8.45,8.45,0,0,0,251,38c.26,0,.53-.11.81-.19C251.93,38.15,252,38.49,252.09,38.8Zm-.16,4.92V42.44H250.3v1.28Zm1.48,1.55a6,6,0,0,1,.85.78,4.51,4.51,0,0,0-.62.5,10.11,10.11,0,0,0-.85-.87,7.33,7.33,0,0,0-.82-.6l.47-.46C252.8,44.85,253.12,45.07,253.41,45.27Z"/><path class="cls-2" d="M256.7,37.71h.82c0,.34,0,1,0,2,.31,0,.64,0,1,0v.7c-.34,0-.68,0-1,0v1.47a4.69,4.69,0,0,1,.58-.35c.28.5.54.92.78,1.28a7.55,7.55,0,0,0-.74.43,8.77,8.77,0,0,0-.62-1.28v3c0,.51,0,1,0,1.59h-.82c0-.55,0-1.08,0-1.59V42.06a13.23,13.23,0,0,1-1,2.36,3,3,0,0,0-.66-.73,8.7,8.7,0,0,0,1.48-3.34c-.39,0-.81,0-1.24,0v-.7c.43,0,.9,0,1.39,0C256.74,38.72,256.73,38.05,256.7,37.71Zm4.62,6.4a5.67,5.67,0,0,0,1-2,2.09,2.09,0,0,0,.85.3c-.18.32-.36.65-.52,1a5.65,5.65,0,0,1-.84,1.24,3,3,0,0,0,1,.7,6.24,6.24,0,0,0,1.59.47,1.62,1.62,0,0,0-.62.77,8.11,8.11,0,0,1-1.45-.62,3.9,3.9,0,0,1-1-.77,7.08,7.08,0,0,1-1.05.73,12.29,12.29,0,0,1-1.63.74,2.22,2.22,0,0,0-.58-.7,7.65,7.65,0,0,0,1.73-.62,6.13,6.13,0,0,0,1-.7,6.6,6.6,0,0,1-1.16-2.13,1.66,1.66,0,0,0,.66-.31A6.37,6.37,0,0,0,261.32,44.11ZM262.79,39c.52,0,1,0,1.48,0v.7c-.42,0-.91,0-1.48,0H260c-.52,0-1,0-1.36,0V39c.39,0,.84,0,1.36,0Zm-2.52,2.35c-.34.37-.61.68-.81.91a3.43,3.43,0,0,0-.7-.47,7,7,0,0,0,1.47-1.7l.82.5A5.13,5.13,0,0,0,260.27,41.38ZM262,38.6a5.12,5.12,0,0,0-.78.35,4.08,4.08,0,0,0-.5-1.12l.66-.31A7.79,7.79,0,0,1,262,38.6Zm2.29,2.95a9,9,0,0,0-.7.62,9.38,9.38,0,0,0-1.52-1.47,2,2,0,0,0,.55-.51Z"/><path class="cls-2" d="M273.81,38.64c-.39,0-.91,0-1.56,0h-5.74v7.18h6.33c.51,0,.93,0,1.24,0v.7c-.34,0-.78,0-1.32,0H265.7c0-.62,0-1.07,0-1.36V39.15c0-.44,0-.84,0-1.21h8.11Zm-3.19,2.83a7.42,7.42,0,0,0,1.32-2.09,9.25,9.25,0,0,0,1,.54,2.61,2.61,0,0,0-.74.74q-.3.47-.93,1.32a13.89,13.89,0,0,1,2.14,2.13,2.06,2.06,0,0,0-.66.66,11,11,0,0,0-2.06-2.13,14.94,14.94,0,0,1-1.18,1.2c-.4.36-.9.76-1.49,1.2a4,4,0,0,0-.78-.58,6.9,6.9,0,0,0,1.4-.83,11,11,0,0,0,1.47-1.53,16.63,16.63,0,0,0-2.4-1.79,1.9,1.9,0,0,0,.54-.66A25.33,25.33,0,0,1,270.62,41.47Z"/><path class="cls-2" d="M278.26,38.14c.31,0,.65,0,1,0v.66a7.23,7.23,0,0,0-.77,0v5.16c.28-.08.54-.14.77-.19a2.36,2.36,0,0,0,0,.65c-.31.06-.55.11-.73.16v.89c0,.39,0,.83,0,1.32h-.82c0-.49.08-.93.08-1.32v-.74c-.29.06-.64.15-1.07.28s-.88.28-1.37.46a5.06,5.06,0,0,0-.28-.89,4.77,4.77,0,0,0,.82-.12V38.72a3.5,3.5,0,0,0-.74.08v-.7c.31,0,.64,0,1,0Zm-.46,1.94V38.72h-1.2v1.36Zm0,2.13V40.7h-1.2v1.51Zm0,.62h-1.2v1.44l1.2-.24Zm4.87-4.13c-.1.2-.26.5-.49.91.54,0,1.05,0,1.51,0v.7a11.45,11.45,0,0,0-1.2-.08h-.77c0,1-.06,1.63-.08,2h1.12c.31,0,.69,0,1.13,0v.7c-.44,0-.82,0-1.13,0h-1a4.22,4.22,0,0,0,.94,1.86,2.84,2.84,0,0,0,1.55,1,2.32,2.32,0,0,0-.41.45,1.26,1.26,0,0,0-.18.48,6.37,6.37,0,0,1-1.35-1.28,5.68,5.68,0,0,1-.89-1.74,8.61,8.61,0,0,1-.7,1.63,9.28,9.28,0,0,1-1.09,1.47,2.28,2.28,0,0,0-.35-.35.64.64,0,0,0-.35-.19,3.49,3.49,0,0,0,1-1.11,5.66,5.66,0,0,0,.64-1.24,6.48,6.48,0,0,0,.23-1h-.46c-.42,0-.85,0-1.32,0v-.7c.47,0,.9,0,1.32,0h.54c.05-.75.08-1.42.08-2h-.39c-.36,0-.79,0-1.28.08v-.7c.49,0,.92,0,1.28,0h1a13.47,13.47,0,0,0,.7-2,6.59,6.59,0,0,0,.85.42A4.65,4.65,0,0,0,282.67,38.7Zm-1.69.37a1.57,1.57,0,0,0-.62.39,12.31,12.31,0,0,0-.82-1.48,3,3,0,0,0,.55-.34C280.55,38.36,280.85,38.84,281,39.07Z"/><path class="cls-2" d="M289.82,38.22a11.91,11.91,0,0,0,1.82,1.86,9,9,0,0,0,1.28.77,7.6,7.6,0,0,0,1.13.43,2.2,2.2,0,0,0-.51.82,12.78,12.78,0,0,1-1.39-.74,7.78,7.78,0,0,1-1.26-1,14.72,14.72,0,0,1-1.46-1.65A11.57,11.57,0,0,1,288,40.45c-.48.45-.89.81-1.22,1.06s-.71.52-1.13.78a3.28,3.28,0,0,0-.62-.62,9.14,9.14,0,0,0,3-2.31,7.85,7.85,0,0,0,1.2-1.8A5.07,5.07,0,0,0,290,38Zm2.56,6.43c0,.94,0,1.54,0,1.83h-.82v-.74h-4.3v.85h-.78c0-.31,0-.9,0-1.78s0-1.55,0-1.94h5.9C292.39,43.13,292.38,43.72,292.38,44.65Zm-1.71-3.37c.42,0,.78,0,1.09,0V42c-.34,0-.69,0-1.05,0h-2.17c-.54,0-1,0-1.32,0v-.74c.49,0,.93,0,1.32,0Zm.93,3.84V43.49h-4.3v1.63Z"/><path class="cls-2" d="M302.08,41.51v.82a3.08,3.08,0,0,0-1,.37c-.3.16-.64.34-1,.52v.35h2.44c.31,0,.71,0,1.2,0v.78c-.51,0-.91,0-1.2,0h-2.44v1.59a.63.63,0,0,1-.43.68,6.83,6.83,0,0,1-1.39.21,3.08,3.08,0,0,0-.39-.85h1c.26,0,.39-.15.39-.43v-1.2h-2.67c-.42,0-.88,0-1.4,0v-.78c.54,0,1,0,1.36,0h2.71a3.68,3.68,0,0,0-.07-.7l1.39-.7h-2.13c-.49,0-1.05,0-1.67,0v-.74c.57,0,1.11,0,1.63,0Zm-.59-1.74h2.14a6.44,6.44,0,0,0,0,.81,8.45,8.45,0,0,0,0,.89h-.82v-1H296.1v1.08h-.81c0-.31,0-.62,0-.93s0-.58,0-.81h5.39c.21-.36.42-.75.64-1.15a7.09,7.09,0,0,0,.52-1.18c.42.23.74.4,1,.5A12.74,12.74,0,0,0,301.49,39.77ZM297.65,39a3.91,3.91,0,0,0-.65.58,6.51,6.51,0,0,0-1.17-1.28,4.5,4.5,0,0,0,.62-.5A8.49,8.49,0,0,1,297.65,39Zm2.41-.12a6.46,6.46,0,0,1-.74.51,8.85,8.85,0,0,0-.93-1.4l.7-.46A12.66,12.66,0,0,1,300.06,38.91Z"/><path class="cls-2" d="M307.58,39.61c-.15.52-.32,1-.5,1.55a6.12,6.12,0,0,1,.93,1.46,1.83,1.83,0,0,1,.08,1,1.26,1.26,0,0,1-.51.77,1.82,1.82,0,0,1-1.05.27,2.91,2.91,0,0,0-.15-.89q.74.12.87-.15a1.08,1.08,0,0,0,.08-.66,2,2,0,0,0-.33-.8,10,10,0,0,0-.66-.87c.1-.34.23-.72.37-1.14a10.34,10.34,0,0,0,.33-1.27H306v7.76h-.73c0-.49,0-1.08,0-1.78V40c0-.57,0-1.1,0-1.59H308C307.88,38.68,307.74,39.1,307.58,39.61Zm4.54,2.64c.46,0,.89,0,1.28,0v.66l-.82,0h-.65v2.44c0,.32.11.48.33.49a5.21,5.21,0,0,0,.56,0,.38.38,0,0,0,.33-.21,2.41,2.41,0,0,0,.13-.78,2.78,2.78,0,0,0,.74.35c-.13.67-.32,1.06-.56,1.16a3.26,3.26,0,0,1-1.32.12.85.85,0,0,1-.91-1V42.83h-.89a5.89,5.89,0,0,1-.2,1.81,2.49,2.49,0,0,1-.81,1.31,3.82,3.82,0,0,1-1.24.72,1.56,1.56,0,0,0-.59-.58c1.09-.34,1.72-.8,1.9-1.38a5.49,5.49,0,0,0,.24-1.88c-.6,0-1,0-1.28,0v-.66c.33,0,.73,0,1.2,0Zm1.55-2.68a6.34,6.34,0,0,0,0,.74h-.78v-.89h-3.87v.85h-.78a5.07,5.07,0,0,0,0-.66,6.92,6.92,0,0,0,0-.73h5.43A5.32,5.32,0,0,0,313.67,39.57Zm-2.13,1.13c.54,0,1,0,1.28,0v.66c-.34,0-.77,0-1.28,0h-1.13c-.57,0-1,0-1.39,0v-.66c.33,0,.79,0,1.35,0Zm-.7-1.86a4.31,4.31,0,0,0-.7-1,1.74,1.74,0,0,0,.58-.39c.42.54.67.89.78,1.05A2.34,2.34,0,0,0,310.84,38.84Z"/><path class="cls-2" d="M106.28,30.42v-.9l2.24-4.3H106.4v-.89h3.37v.9l-2.27,4.3h2.34v.89Z"/><path class="cls-2" d="M110.16,24.33h1.06v2A1.09,1.09,0,0,1,113,26a1.18,1.18,0,0,1,.29.86v3.53h-1.06V27.28a1.35,1.35,0,0,0-.09-.57.39.39,0,0,0-.36-.17c-.35,0-.52.27-.52.82v3.06h-1.06Z"/><path class="cls-2" d="M114.81,28.35V29a1,1,0,0,0,.12.55.51.51,0,0,0,.42.17c.33,0,.5-.21.5-.62v-.22h1.05c0,1.1-.49,1.65-1.46,1.65a1.66,1.66,0,0,1-1.28-.43,2.05,2.05,0,0,1-.41-1.43V27.44c0-1.14.52-1.71,1.55-1.71a1.76,1.76,0,0,1,1.2.36,2.1,2.1,0,0,1,.4,1.56v.7Zm0-.81h1v-.43a.48.48,0,0,0-.55-.57.42.42,0,0,0-.39.17,1.12,1.12,0,0,0-.1.56Z"/><path class="cls-2" d="M117.62,25.85h1.06V31a1.12,1.12,0,0,1-.22.73,1.2,1.2,0,0,1-.9.25h-.33v-.82h.14c.17,0,.25-.1.25-.29Zm0-.57v-1h1.06v1Z"/><path class="cls-2" d="M119.43,24.32h1v1h-1Zm0,1.53h1v4.57h-1Z"/><path class="cls-2" d="M121.06,27.19a1.39,1.39,0,0,1,.39-1.13,1.88,1.88,0,0,1,1.21-.33,1.73,1.73,0,0,1,1.16.31,1.23,1.23,0,0,1,.36,1V29.8a2,2,0,0,0,.08.62h-1a1,1,0,0,1-.06-.36.86.86,0,0,1,0-.15,1.58,1.58,0,0,1-.47.49,1,1,0,0,1-.49.14c-.81,0-1.21-.45-1.21-1.36a1.3,1.3,0,0,1,.3-.93,3.07,3.07,0,0,1,1-.62,3.07,3.07,0,0,0,.58-.29.42.42,0,0,0,.18-.37.46.46,0,0,0-.1-.33.58.58,0,0,0-.38-.1.67.67,0,0,0-.48.14.87.87,0,0,0-.11.51Zm2.06.83-.62.41a1,1,0,0,0-.34.3.89.89,0,0,0-.08.42c0,.39.17.58.5.58s.54-.23.54-.71Z"/><path class="cls-2" d="M124.83,30.42V25.85h1.06v.52a1,1,0,0,1,1-.64,1,1,0,0,1,.76.3,1.14,1.14,0,0,1,.3.86v3.53h-1.06V27.28a1.35,1.35,0,0,0-.09-.57.4.4,0,0,0-.36-.17c-.35,0-.52.27-.52.82v3.06Z"/><path class="cls-2" d="M128.57,30.94h1.05c0,.17.14.26.37.26h0c.33,0,.5-.24.5-.72v-.56a1.05,1.05,0,0,1-1,.62c-.69,0-1-.52-1-1.58V27.31a2.07,2.07,0,0,1,.26-1.21,1,1,0,0,1,.83-.37.88.88,0,0,1,.89.64v-.52h1.1v4.43a1.83,1.83,0,0,1-.37,1.25,1.45,1.45,0,0,1-1.14.42,2,2,0,0,1-1.16-.25A1,1,0,0,1,128.57,30.94Zm1-3.59v1.59c0,.53.15.79.44.79s.49-.3.49-.91V27.39c0-.56-.16-.85-.48-.85s-.45.2-.45.59Z"/><path class="cls-2" d="M133.82,24.33H135v4.18a1.55,1.55,0,0,0,.19.87.67.67,0,0,0,.59.25.76.76,0,0,0,.62-.23,1.48,1.48,0,0,0,.19-.89V24.33h1.14v4.28a2.15,2.15,0,0,1-.42,1.47,2,2,0,0,1-1.5.47,2.08,2.08,0,0,1-1.51-.45,2.11,2.11,0,0,1-.44-1.49Z"/><path class="cls-2" d="M138.33,30.42V25.85h1v.52a1,1,0,0,1,1-.64,1,1,0,0,1,.76.3,1.13,1.13,0,0,1,.29.86v3.53h-1V27.28a1.32,1.32,0,0,0-.1-.57.37.37,0,0,0-.35-.17c-.35,0-.53.27-.53.82v3.06Z"/><path class="cls-2" d="M142.08,24.32h1.06v1h-1.06Zm0,1.53h1.06v4.57h-1.06Z"/><path class="cls-2" d="M145.15,29.32l.64-3.47h1.09l-1.08,4.57h-1.32l-1.08-4.57h1.14Z"/><path class="cls-2" d="M148,28.35V29a.91.91,0,0,0,.13.55.48.48,0,0,0,.41.17c.33,0,.5-.21.5-.62v-.22h1.06q0,1.65-1.47,1.65a1.68,1.68,0,0,1-1.28-.43,2.05,2.05,0,0,1-.41-1.43V27.44q0-1.71,1.56-1.71a1.75,1.75,0,0,1,1.19.36,2.1,2.1,0,0,1,.41,1.56v.7Zm0-.81h1v-.43a.58.58,0,0,0-.13-.44.57.57,0,0,0-.41-.13.44.44,0,0,0-.4.17,1.12,1.12,0,0,0-.1.56Z"/><path class="cls-2" d="M150.69,30.42V25.85h1v.81a2,2,0,0,1,.44-.68,1,1,0,0,1,.67-.25V27l-.22,0c-.57,0-.86.26-.86.77v2.69Z"/><path class="cls-2" d="M152.74,28.89h1.06c0,.1,0,.2,0,.28,0,.38.15.56.45.56s.47-.13.47-.4a.44.44,0,0,0-.17-.37,2.86,2.86,0,0,0-.42-.31l-.59-.42a1.65,1.65,0,0,1-.78-1.4c0-.73.52-1.1,1.54-1.1a1.51,1.51,0,0,1,1.13.38,1.6,1.6,0,0,1,.36,1.15h-1.06c0-.33,0-.53-.13-.6a.48.48,0,0,0-.35-.12c-.29,0-.43.13-.43.38a.44.44,0,0,0,.11.3,2.2,2.2,0,0,0,.36.29L155,28a1.45,1.45,0,0,1,.74,1.2c0,.87-.5,1.31-1.5,1.31s-1.54-.48-1.54-1.44A1.22,1.22,0,0,1,152.74,28.89Z"/><path class="cls-2" d="M156.29,24.32h1.05v1h-1.05Zm0,1.53h1.05v4.57h-1.05Z"/><path class="cls-2" d="M157.66,26.63v-.78h.43V24.58h1v1.27h.44v.78h-.44v2.74a.39.39,0,0,0,0,.18c0,.07.11.1.25.1h.15v.82a4.68,4.68,0,0,1-.55,0,1.15,1.15,0,0,1-.7-.18.77.77,0,0,1-.24-.63V26.63Z"/><path class="cls-2" d="M160,32v-.82h.21a.8.8,0,0,0,.33,0,.21.21,0,0,0,.09-.19,1.58,1.58,0,0,0-.07-.43l-1.13-4.63h1.1l.63,3.29.62-3.29h1.07L161.68,31a1.62,1.62,0,0,1-.39.8,1.11,1.11,0,0,1-.77.23Z"/><path class="cls-2" d="M165,24.33h1.13v4.18a1.55,1.55,0,0,0,.19.87.67.67,0,0,0,.59.25.76.76,0,0,0,.62-.23,1.47,1.47,0,0,0,.2-.89V24.33h1.13v4.28a2.15,2.15,0,0,1-.42,1.47,2,2,0,0,1-1.5.47,2,2,0,0,1-1.5-.45,2.06,2.06,0,0,1-.44-1.49Z"/><path class="cls-2" d="M169.5,30.42V25.85h1.05v.52a1,1,0,0,1,1-.64,1,1,0,0,1,.76.3,1.18,1.18,0,0,1,.29.86v3.53h-1.05V27.28a1.32,1.32,0,0,0-.1-.57.38.38,0,0,0-.35-.17c-.35,0-.53.27-.53.82v3.06Z"/><path class="cls-2" d="M173.25,24.32h1.06v1h-1.06Zm0,1.53h1.06v4.57h-1.06Z"/><path class="cls-2" d="M176.32,29.32l.64-3.47h1.09L177,30.42h-1.32l-1.08-4.57h1.14Z"/><path class="cls-2" d="M179.19,28.35V29a.91.91,0,0,0,.13.55.48.48,0,0,0,.41.17c.33,0,.5-.21.5-.62v-.22h1.06q0,1.65-1.47,1.65a1.68,1.68,0,0,1-1.28-.43,2.05,2.05,0,0,1-.41-1.43V27.44q0-1.71,1.56-1.71a1.75,1.75,0,0,1,1.19.36,2.1,2.1,0,0,1,.41,1.56v.7Zm0-.81h1v-.43a.58.58,0,0,0-.13-.44.57.57,0,0,0-.41-.13.44.44,0,0,0-.4.17,1.12,1.12,0,0,0-.1.56Z"/><path class="cls-2" d="M181.86,30.42V25.85h1v.81a2,2,0,0,1,.44-.68,1,1,0,0,1,.67-.25V27l-.22,0c-.57,0-.86.26-.86.77v2.69Z"/><path class="cls-2" d="M183.91,28.89H185c0,.1,0,.2,0,.28,0,.38.15.56.45.56s.47-.13.47-.4a.44.44,0,0,0-.17-.37,2.86,2.86,0,0,0-.42-.31l-.59-.42a1.65,1.65,0,0,1-.78-1.4c0-.73.52-1.1,1.54-1.1a1.51,1.51,0,0,1,1.13.38,1.6,1.6,0,0,1,.36,1.15h-1.06c0-.33,0-.53-.13-.6a.48.48,0,0,0-.35-.12c-.29,0-.43.13-.43.38a.44.44,0,0,0,.11.3,2.2,2.2,0,0,0,.36.29l.76.52a1.45,1.45,0,0,1,.74,1.2c0,.87-.5,1.31-1.5,1.31s-1.54-.48-1.54-1.44A1.22,1.22,0,0,1,183.91,28.89Z"/><path class="cls-2" d="M187.46,24.32h1v1h-1Zm0,1.53h1v4.57h-1Z"/><path class="cls-2" d="M188.83,26.63v-.78h.43V24.58h1.05v1.27h.45v.78h-.45v2.74a.39.39,0,0,0,0,.18c0,.07.11.1.25.1h.16v.82a5,5,0,0,1-.56,0,1.15,1.15,0,0,1-.7-.18.77.77,0,0,1-.24-.63V26.63Z"/><path class="cls-2" d="M191.2,32v-.82h.21a.8.8,0,0,0,.33,0,.21.21,0,0,0,.09-.19,2,2,0,0,0-.06-.43l-1.14-4.63h1.1l.63,3.29.62-3.29h1.08L192.85,31a1.62,1.62,0,0,1-.39.8,1.11,1.11,0,0,1-.77.23Z"/><path class="cls-2" d="M195.81,28.44v-.53a2.66,2.66,0,0,1,.41-1.77,1.62,1.62,0,0,1,1.21-.41,1.54,1.54,0,0,1,1.22.43A2.59,2.59,0,0,1,199,27.8v.54a3.17,3.17,0,0,1-.34,1.76,1.5,1.5,0,0,1-1.26.44,1.55,1.55,0,0,1-1.28-.44A3,3,0,0,1,195.81,28.44Zm1.06-1.16V29a1.11,1.11,0,0,0,.12.63.6.6,0,0,0,.45.14c.22,0,.36-.05.43-.16A1.24,1.24,0,0,0,198,29V27.27c0-.48-.17-.73-.52-.73a.58.58,0,0,0-.45.17A1,1,0,0,0,196.87,27.28Z"/><path class="cls-2" d="M199.23,25.85h.38v-.48a1.08,1.08,0,0,1,.24-.79,1.27,1.27,0,0,1,.88-.24h.38v.84a.59.59,0,0,0-.23-.05.19.19,0,0,0-.21.22v.5h.44v.78h-.44v3.79h-1.06V26.63h-.38Z"/><path class="cls-2" d="M203.09,24.33h1.13v6.09h-1.13Z"/><path class="cls-2" d="M205,30.42V24.33H206v6.09Z"/><path class="cls-2" d="M206.82,30.42V24.33h1.05v6.09Z"/><path class="cls-2" d="M208.67,24.32h1.05v1h-1.05Zm0,1.53h1.05v4.57h-1.05Z"/><path class="cls-2" d="M210.42,30.42V25.85h1.05v.52a1,1,0,0,1,1-.64,1,1,0,0,1,.76.3,1.13,1.13,0,0,1,.29.86v3.53h-1.05V27.28a1.19,1.19,0,0,0-.1-.57.37.37,0,0,0-.35-.17c-.35,0-.53.27-.53.82v3.06Z"/><path class="cls-2" d="M214,28.44v-.53a2.67,2.67,0,0,1,.4-1.77,1.65,1.65,0,0,1,1.22-.41,1.57,1.57,0,0,1,1.22.43,2.6,2.6,0,0,1,.37,1.64v.54a3.08,3.08,0,0,1-.34,1.76,1.49,1.49,0,0,1-1.25.44,1.58,1.58,0,0,1-1.29-.44A3,3,0,0,1,214,28.44Zm1.05-1.16V29a1,1,0,0,0,.13.63.58.58,0,0,0,.44.14c.22,0,.37-.05.43-.16a1.24,1.24,0,0,0,.1-.61V27.27c0-.48-.17-.73-.52-.73a.54.54,0,0,0-.44.17A1,1,0,0,0,215.06,27.28Z"/><path class="cls-2" d="M217.83,24.32h1v1h-1Zm0,1.53h1v4.57h-1Z"/><path class="cls-2" d="M219.34,28.89h1c0,.1,0,.2,0,.28,0,.38.15.56.45.56s.46-.13.46-.4a.43.43,0,0,0-.16-.37,4.62,4.62,0,0,0-.42-.31l-.59-.42a1.65,1.65,0,0,1-.78-1.4c0-.73.51-1.1,1.53-1.1a1.51,1.51,0,0,1,1.13.38,1.6,1.6,0,0,1,.36,1.15h-1.05c0-.33-.05-.53-.13-.6a.51.51,0,0,0-.35-.12c-.29,0-.44.13-.44.38a.44.44,0,0,0,.11.3,3.67,3.67,0,0,0,.36.29l.77.52a1.44,1.44,0,0,1,.73,1.2c0,.87-.5,1.31-1.49,1.31s-1.55-.48-1.55-1.44A1.06,1.06,0,0,1,219.34,28.89Z"/><path class="cls-2" d="M224.29,27.19a1.39,1.39,0,0,1,.39-1.13,1.86,1.86,0,0,1,1.21-.33,1.73,1.73,0,0,1,1.16.31,1.26,1.26,0,0,1,.35,1V29.8a2,2,0,0,0,.09.62h-1a1,1,0,0,1-.06-.36.86.86,0,0,1,0-.15,1.58,1.58,0,0,1-.47.49,1,1,0,0,1-.5.14c-.8,0-1.21-.45-1.21-1.36a1.3,1.3,0,0,1,.31-.93,3,3,0,0,1,1-.62,2.92,2.92,0,0,0,.59-.29.41.41,0,0,0,.17-.37.47.47,0,0,0-.09-.33.58.58,0,0,0-.38-.1.64.64,0,0,0-.48.14.79.79,0,0,0-.12.51Zm2.06.83-.62.41a1,1,0,0,0-.34.3.89.89,0,0,0-.08.42c0,.39.17.58.5.58s.54-.23.54-.71Z"/><path class="cls-2" d="M227.68,26.63v-.78h.43V24.58h1v1.27h.45v.78h-.45v2.74a.58.58,0,0,0,0,.18c0,.07.11.1.26.1h.15v.82a4.93,4.93,0,0,1-.55,0,1.18,1.18,0,0,1-.71-.18.77.77,0,0,1-.24-.63V26.63Z"/><path class="cls-2" d="M231.59,24.33h1.14v4.18a1.47,1.47,0,0,0,.19.87.67.67,0,0,0,.59.25.76.76,0,0,0,.62-.23,1.48,1.48,0,0,0,.19-.89V24.33h1.14v4.28a2.15,2.15,0,0,1-.42,1.47,2,2,0,0,1-1.5.47A2.08,2.08,0,0,1,232,30.1a2.11,2.11,0,0,1-.44-1.49Z"/><path class="cls-2" d="M236.09,30.42V25.85h1v.81a2,2,0,0,1,.43-.68,1,1,0,0,1,.68-.25V27L238,27c-.57,0-.85.26-.85.77v2.69Z"/><path class="cls-2" d="M238.42,30.42V24.33h1.06v2a.92.92,0,0,1,.92-.58,1.05,1.05,0,0,1,.82.34,2,2,0,0,1,.29,1.24V29c0,1.05-.36,1.58-1.07,1.58a1.07,1.07,0,0,1-1-.63v.51Zm1.06-3v1.44c0,.57.17.85.51.85s.47-.27.47-.82V27.33a1.15,1.15,0,0,0-.12-.63.44.44,0,0,0-.36-.16C239.65,26.54,239.48,26.84,239.48,27.44Z"/><path class="cls-2" d="M241.93,27.19a1.39,1.39,0,0,1,.39-1.13,1.89,1.89,0,0,1,1.22-.33,1.72,1.72,0,0,1,1.15.31,1.23,1.23,0,0,1,.36,1V29.8a2,2,0,0,0,.08.62h-1a1,1,0,0,1-.06-.36,1,1,0,0,1,0-.15,1.6,1.6,0,0,1-.48.49,1,1,0,0,1-.49.14c-.81,0-1.21-.45-1.21-1.36a1.3,1.3,0,0,1,.3-.93,3.07,3.07,0,0,1,1.05-.62,2.78,2.78,0,0,0,.58-.29.52.52,0,0,0,.08-.7.56.56,0,0,0-.38-.1.63.63,0,0,0-.47.14.79.79,0,0,0-.12.51ZM244,28l-.62.41a1.17,1.17,0,0,0-.34.3.89.89,0,0,0-.08.42c0,.39.17.58.51.58s.53-.23.53-.71Z"/><path class="cls-2" d="M245.7,30.42V25.85h1.06v.52A1.09,1.09,0,0,1,248.5,26a1.18,1.18,0,0,1,.29.86v3.53h-1.06V27.28a1.35,1.35,0,0,0-.09-.57.4.4,0,0,0-.36-.17c-.35,0-.52.27-.52.82v3.06Z"/><path class="cls-2" d="M249.24,27.19a1.39,1.39,0,0,1,.39-1.13,1.89,1.89,0,0,1,1.22-.33A1.7,1.7,0,0,1,252,26a1.23,1.23,0,0,1,.36,1V29.8a2.39,2.39,0,0,0,.08.62h-1a.8.8,0,0,1-.07-.36,1,1,0,0,1,0-.15,1.6,1.6,0,0,1-.48.49,1,1,0,0,1-.49.14c-.81,0-1.21-.45-1.21-1.36a1.3,1.3,0,0,1,.3-.93,3.07,3.07,0,0,1,1.05-.62,2.78,2.78,0,0,0,.58-.29.52.52,0,0,0,.08-.7.56.56,0,0,0-.38-.1.63.63,0,0,0-.47.14.79.79,0,0,0-.12.51Zm2.06.83-.62.41a1.17,1.17,0,0,0-.34.3.89.89,0,0,0-.08.42c0,.39.17.58.51.58s.53-.23.53-.71Z"/><path class="cls-2" d="M252.9,27.42h1.9v.93h-1.9Z"/><path class="cls-2" d="M257.84,28.26H259a3.12,3.12,0,0,1-.39,1.68,1.46,1.46,0,0,1-1.34.61A1.82,1.82,0,0,1,255.7,30a3.27,3.27,0,0,1-.44-1.92V26.76a3.21,3.21,0,0,1,.46-2,1.75,1.75,0,0,1,1.44-.56,1.64,1.64,0,0,1,1.34.5,2.33,2.33,0,0,1,.41,1.53h-1.12a2.2,2.2,0,0,0-.11-.83.43.43,0,0,0-.44-.28c-.53,0-.8.43-.8,1.27v2a1.8,1.8,0,0,0,.2,1,.72.72,0,0,0,.61.29.45.45,0,0,0,.44-.31A2.63,2.63,0,0,0,257.84,28.26Z"/><path class="cls-2" d="M259.43,24.33h1.05v2a1,1,0,0,1,1-.64,1,1,0,0,1,.76.3,1.13,1.13,0,0,1,.29.86v3.53h-1.05V27.28a1.32,1.32,0,0,0-.1-.57.37.37,0,0,0-.35-.17c-.35,0-.53.27-.53.82v3.06h-1.05Z"/><path class="cls-2" d="M263,27.19a1.39,1.39,0,0,1,.4-1.13,1.86,1.86,0,0,1,1.21-.33,1.73,1.73,0,0,1,1.16.31,1.26,1.26,0,0,1,.35,1V29.8a2,2,0,0,0,.09.62h-1a.8.8,0,0,1-.07-.36,1,1,0,0,1,0-.15,1.58,1.58,0,0,1-.47.49,1,1,0,0,1-.5.14c-.8,0-1.21-.45-1.21-1.36a1.26,1.26,0,0,1,.31-.93,2.92,2.92,0,0,1,1-.62,2.54,2.54,0,0,0,.58-.29.52.52,0,0,0,.08-.7.55.55,0,0,0-.37-.1.64.64,0,0,0-.48.14.79.79,0,0,0-.12.51ZM265,28l-.63.41a1,1,0,0,0-.33.3.78.78,0,0,0-.08.42c0,.39.17.58.5.58s.54-.23.54-.71Z"/><path class="cls-2" d="M266.77,25.85h1.06v.52a1.21,1.21,0,0,1,1.72-.45.71.71,0,0,1,.29.45.89.89,0,0,1,.34-.43,1.09,1.09,0,0,1,.71-.21,1.18,1.18,0,0,1,.82.27.93.93,0,0,1,.31.72v3.7H271V27.34a1.35,1.35,0,0,0-.1-.61.38.38,0,0,0-.36-.19.48.48,0,0,0-.45.21,1.26,1.26,0,0,0-.13.66v3h-1.05V27.28a1,1,0,0,0-.12-.57.45.45,0,0,0-.4-.17.51.51,0,0,0-.4.16,1.23,1.23,0,0,0-.12.66v3.06h-1.06Z"/><path class="cls-2" d="M273.76,26.37a.93.93,0,0,1,.9-.64,1,1,0,0,1,.83.35,1.91,1.91,0,0,1,.3,1.23V29c0,1-.37,1.55-1.09,1.55a1.11,1.11,0,0,1-.58-.13.91.91,0,0,1-.36-.44v2H272.7v-6.1h1.06Zm0,1.08v1.47q0,.81.51.81c.31,0,.46-.27.46-.82V27.24a.88.88,0,0,0-.12-.53.39.39,0,0,0-.33-.17C273.93,26.54,273.76,26.85,273.76,27.45Z"/><path class="cls-2" d="M276.19,27.19a1.39,1.39,0,0,1,.39-1.13,1.88,1.88,0,0,1,1.21-.33A1.73,1.73,0,0,1,279,26a1.23,1.23,0,0,1,.36,1V29.8a2,2,0,0,0,.08.62h-1a1,1,0,0,1-.06-.36.86.86,0,0,1,0-.15,1.58,1.58,0,0,1-.47.49,1,1,0,0,1-.49.14c-.81,0-1.21-.45-1.21-1.36a1.3,1.3,0,0,1,.3-.93,3.07,3.07,0,0,1,1.05-.62,3.07,3.07,0,0,0,.58-.29.42.42,0,0,0,.18-.37.46.46,0,0,0-.1-.33.58.58,0,0,0-.38-.1.67.67,0,0,0-.48.14.87.87,0,0,0-.11.51Zm2.06.83-.62.41a1,1,0,0,0-.34.3.89.89,0,0,0-.08.42c0,.39.17.58.5.58s.54-.23.54-.71Z"/><path class="cls-2" d="M280.06,24.32h1.06v1h-1.06Zm0,1.53h1.06v4.57h-1.06Z"/><path class="cls-2" d="M281.89,30.94H283c0,.17.13.26.37.26h.05c.32,0,.49-.24.49-.72v-.56a1,1,0,0,1-1,.62c-.69,0-1-.52-1-1.58V27.31a2.06,2.06,0,0,1,.27-1.21.94.94,0,0,1,.82-.37.87.87,0,0,1,.89.64v-.52h1.11v4.43a1.83,1.83,0,0,1-.38,1.25,1.44,1.44,0,0,1-1.14.42,1.92,1.92,0,0,1-1.15-.25A1,1,0,0,1,281.89,30.94Zm1-3.59v1.59c0,.53.14.79.44.79s.48-.3.48-.91V27.39c0-.56-.16-.85-.48-.85s-.44.2-.44.59Z"/><path class="cls-2" d="M285.47,30.42V25.85h1v.52a1,1,0,0,1,1-.64,1,1,0,0,1,.76.3,1.14,1.14,0,0,1,.3.86v3.53H287.5V27.28a1.19,1.19,0,0,0-.1-.57.37.37,0,0,0-.35-.17c-.35,0-.53.27-.53.82v3.06Z"/><path class="cls-2" d="M290.82,24.33H292v6.09h-1.14Z"/><path class="cls-2" d="M292.6,30.42V25.85h1.06v.52a1,1,0,0,1,1-.64,1,1,0,0,1,.76.3,1.14,1.14,0,0,1,.3.86v3.53h-1.06V27.28a1.19,1.19,0,0,0-.1-.57.37.37,0,0,0-.35-.17c-.35,0-.52.27-.52.82v3.06Z"/><path class="cls-2" d="M296,28.89h1.06c0,.1,0,.2,0,.28,0,.38.15.56.45.56s.47-.13.47-.4a.44.44,0,0,0-.17-.37,2.86,2.86,0,0,0-.42-.31l-.59-.42a1.65,1.65,0,0,1-.78-1.4c0-.73.52-1.1,1.54-1.1a1.51,1.51,0,0,1,1.13.38,1.6,1.6,0,0,1,.36,1.15H298c0-.33,0-.53-.13-.6a.48.48,0,0,0-.35-.12c-.28,0-.43.13-.43.38a.44.44,0,0,0,.11.3,2.75,2.75,0,0,0,.36.29l.76.52a1.45,1.45,0,0,1,.74,1.2c0,.87-.5,1.31-1.5,1.31S296,30.06,296,29.1C296,29,296,28.94,296,28.89Z"/><path class="cls-2" d="M299.08,26.63v-.78h.42V24.58h1.06v1.27H301v.78h-.44v2.74a.39.39,0,0,0,0,.18c0,.07.11.1.25.1H301v.82a4.8,4.8,0,0,1-.55,0,1.15,1.15,0,0,1-.7-.18.77.77,0,0,1-.25-.63V26.63Z"/><path class="cls-2" d="M301.41,24.32h1v1h-1Zm0,1.53h1v4.57h-1Z"/><path class="cls-2" d="M302.78,26.63v-.78h.43V24.58h1.05v1.27h.45v.78h-.45v2.74a.39.39,0,0,0,0,.18c0,.07.11.1.26.1h.15v.82a5,5,0,0,1-.56,0,1.15,1.15,0,0,1-.7-.18.77.77,0,0,1-.24-.63V26.63Z"/><path class="cls-2" d="M305,25.85h1.06V29.1q0,.63.42.63c.33,0,.49-.27.49-.81V25.85H308v4.57h-1v-.7a1,1,0,0,1-1,.82,1,1,0,0,1-.79-.28,1.5,1.5,0,0,1-.23-.91Z"/><path class="cls-2" d="M308.28,26.63v-.78h.43V24.58h1.06v1.27h.44v.78h-.44v2.74a.39.39,0,0,0,0,.18c0,.07.11.1.25.1h.15v.82a4.8,4.8,0,0,1-.55,0,1.2,1.2,0,0,1-.71-.18.77.77,0,0,1-.24-.63V26.63Z"/><path class="cls-2" d="M311.5,28.35V29a1,1,0,0,0,.13.55.51.51,0,0,0,.42.17c.33,0,.49-.21.49-.62v-.22h1.06q0,1.65-1.47,1.65a1.68,1.68,0,0,1-1.28-.43,2.05,2.05,0,0,1-.4-1.43V27.44c0-1.14.52-1.71,1.55-1.71a1.73,1.73,0,0,1,1.19.36,2.1,2.1,0,0,1,.41,1.56v.7Zm0-.81h1v-.43a.63.63,0,0,0-.12-.44.6.6,0,0,0-.42-.13.44.44,0,0,0-.4.17,1.24,1.24,0,0,0-.1.56Z"/><rect class="cls-2" x="162.88" y="27.38" width="1.73" height="0.76"/></g></g></svg>